999
dxfrw 0.6.3
  0
SECTION
  2
HEADER
  9
$ACADVER
  1
AC1021
  9
$DWGCODEPAGE
  3
ANSI_1252
  9
$INSBASE
 10
0
 20
0
 30
0
  9
$EXTMIN
 10
0.090159
 20
0.09016
 30
0
  9
$EXTMAX
 10
276.706053
 20
215.90002
 30
0
  9
$LIMMIN
 10
0
 20
0
  9
$LIMMAX
 10
420
 20
297
  9
$ORTHOMODE
 70
    0
  9
$REGENMODE
 70
    1
  9
$FILLMODE
 70
    1
  9
$QTEXTMODE
 70
    0
  9
$MIRRTEXT
 70
    0
  9
$LTSCALE
 40
1
  9
$ATTMODE
 70
    0
  9
$TEXTSIZE
 40
2.5
  9
$TRACEWID
 40
15.68
  9
$TEXTSTYLE
  7
STANDARD
  9
$CLAYER
  8
dim
  9
$CELTYPE
  6
BYLAYER
  9
$CECOLOR
 62
  256
  9
$CELTSCALE
 40
1
  9
$DISPSILH
 70
    0
  9
$DIMSCALE
 40
2.5
  9
$DIMASZ
 40
0.35
  9
$DIMEXO
 40
0.2
  9
$DIMDLI
 40
3.75
  9
$DIMRND
 40
0
  9
$DIMDLE
 40
0
  9
$DIMEXE
 40
0.65
  9
$DIMTP
 40
0
  9
$DIMTM
 40
0
  9
$DIMTXT
 40
0.35
  9
$DIMCEN
 40
2.5
  9
$DIMTSZ
 40
0
  9
$DIMTOL
 70
    0
  9
$DIMLIM
 70
    0
  9
$DIMTIH
 70
    0
  9
$DIMTOH
 70
    0
  9
$DIMSE1
 70
    0
  9
$DIMSE2
 70
    0
  9
$DIMTAD
 70
    1
  9
$DIMZIN
 70
    8
  9
$DIMBLK
  1

  9
$DIMASO
 70
    1
  9
$DIMSHO
 70
    1
  9
$DIMPOST
  1

  9
$DIMAPOST
  1

  9
$DIMALT
 70
    0
  9
$DIMALTD
 70
    3
  9
$DIMALTF
 40
0.03937
  9
$DIMLFAC
 40
1
  9
$DIMTOFL
 70
    1
  9
$DIMTVP
 40
0
  9
$DIMTIX
 70
    0
  9
$DIMSOXD
 70
    0
  9
$DIMSAH
 70
    0
  9
$DIMBLK1
  1

  9
$DIMBLK2
  1

  9
$DIMSTYLE
  2
Standard
  9
$DIMCLRD
 70
    0
  9
$DIMCLRE
 70
    0
  9
$DIMCLRT
 70
    0
  9
$DIMTFAC
 40
1
  9
$DIMGAP
 40
0.2
  9
$DIMJUST
 70
    0
  9
$DIMSD1
 70
    0
  9
$DIMSD2
 70
    0
  9
$DIMTOLJ
 70
    0
  9
$DIMTZIN
 70
    8
  9
$DIMALTZ
 70
    0
  9
$DIMALTTZ
 70
    0
  9
$DIMUPT
 70
    0
  9
$DIMDEC
 70
    1
  9
$DIMTDEC
 70
    2
  9
$DIMALTU
 70
    2
  9
$DIMALTTD
 70
    3
  9
$DIMTXSTY
  7
cursive
  9
$DIMAUNIT
 70
    0
  9
$DIMADEC
 70
    0
  9
$DIMALTRND
 40
0
  9
$DIMAZIN
 70
    0
  9
$DIMDSEP
 70
    0
  9
$DIMATFIT
 70
    3
  9
$DIMFRAC
 70
    0
  9
$DIMLDRBLK
  1
STANDARD
  9
$DIMLUNIT
 70
    2
  9
$DIMLWD
 70
   -2
  9
$DIMLWE
 70
   -2
  9
$DIMTMOVE
 70
    0
  9
$DIMFXL
 40
1
  9
$DIMFXLON
 70
    0
  9
$DIMJOGANG
 40
0.7854
  9
$DIMTFILL
 70
    0
  9
$DIMTFILLCLR
 70
    0
  9
$DIMARCSYM
 70
    0
  9
$DIMLTYPE
  6

  9
$DIMLTEX1
  6

  9
$DIMLTEX2
  6

  9
$LUNITS
 70
    2
  9
$LUPREC
 70
    1
  9
$SKETCHINC
 40
1
  9
$FILLETRAD
 40
0
  9
$AUNITS
 70
    0
  9
$AUPREC
 70
    1
  9
$MENU
  1
.
  9
$ELEVATION
 40
0
  9
$PELEVATION
 40
0
  9
$THICKNESS
 40
0
  9
$LIMCHECK
 70
    0
  9
$CHAMFERA
 40
0
  9
$CHAMFERB
 40
0
  9
$CHAMFERC
 40
0
  9
$CHAMFERD
 40
0
  9
$SKPOLY
 70
    0
  9
$USRTIMER
 70
    1
  9
$ANGBASE
 50
0
  9
$ANGDIR
 70
    0
  9
$PDMODE
 70
   34
  9
$PDSIZE
 40
0
  9
$PLINEWID
 40
0
  9
$SPLFRAME
 70
    0
  9
$SPLINETYPE
 70
    2
  9
$SPLINESEGS
 70
    8
  9
$HANDSEED
  5
20000
  9
$SURFTAB1
 70
    6
  9
$SURFTAB2
 70
    6
  9
$SURFTYPE
 70
    6
  9
$SURFU
 70
    6
  9
$SURFV
 70
    6
  9
$UCSBASE
  2

  9
$UCSNAME
  2

  9
$UCSORG
 10
0
 20
0
 30
0
  9
$UCSXDIR
 10
1
 20
0
 30
0
  9
$UCSYDIR
 10
0
 20
1
 30
0
  9
$UCSORTHOREF
  2

  9
$UCSORTHOVIEW
 70
    0
  9
$UCSORGTOP
 10
0
 20
0
 30
0
  9
$UCSORGBOTTOM
 10
0
 20
0
 30
0
  9
$UCSORGLEFT
 10
0
 20
0
 30
0
  9
$UCSORGRIGHT
 10
0
 20
0
 30
0
  9
$UCSORGFRONT
 10
0
 20
0
 30
0
  9
$UCSORGBACK
 10
0
 20
0
 30
0
  9
$PUCSBASE
  2

  9
$PUCSNAME
  2

  9
$PUCSORG
 10
0
 20
0
 30
0
  9
$PUCSXDIR
 10
1
 20
0
 30
0
  9
$PUCSYDIR
 10
0
 20
1
 30
0
  9
$PUCSORTHOREF
  2

  9
$PUCSORTHOVIEW
 70
    0
  9
$PUCSORGTOP
 10
0
 20
0
 30
0
  9
$PUCSORGBOTTOM
 10
0
 20
0
 30
0
  9
$PUCSORGLEFT
 10
0
 20
0
 30
0
  9
$PUCSORGRIGHT
 10
0
 20
0
 30
0
  9
$PUCSORGFRONT
 10
0
 20
0
 30
0
  9
$PUCSORGBACK
 10
0
 20
0
 30
0
  9
$USERI1
 70
    0
  9
$USERI2
 70
    0
  9
$USERI3
 70
    0
  9
$USERI4
 70
    0
  9
$USERI5
 70
    0
  9
$USERR1
 40
0
  9
$USERR2
 40
0
  9
$USERR3
 40
0
  9
$USERR4
 40
0
  9
$USERR5
 40
0
  9
$WORLDVIEW
 70
    1
  9
$SHADEDGE
 70
    3
  9
$SHADEDIF
 70
   70
  9
$TILEMODE
 70
    1
  9
$MAXACTVP
 70
   64
  9
$PINSBASE
 10
0
 20
0
 30
0
  9
$PLIMCHECK
 70
    0
  9
$PEXTMIN
 10
0
 20
0
 30
0
  9
$PEXTMAX
 10
0
 20
0
 30
0
  9
$GRIDMODE
 70
    1
  9
$SNAPSTYLE
 70
    0
  9
$GRIDUNIT
 10
0.001
 20
0.001
  9
$PLIMMIN
 10
0
 20
0
  9
$PLIMMAX
 10
279.4
 20
215.9
  9
$UNITMODE
 70
    0
  9
$VISRETAIN
 70
    1
  9
$PLINEGEN
 70
    0
  9
$PSLTSCALE
 70
    1
  9
$TREEDEPTH
 70
 3020
  9
$CMLSTYLE
  2
Standard
  9
$CMLJUST
 70
    0
  9
$CMLSCALE
 40
20
  9
$PROXYGRAPHICS
 70
    1
  9
$MEASUREMENT
 70
    1
  9
$CELWEIGHT
370
   -1
  9
$ENDCAPS
280
    0
  9
$JOINSTYLE
280
    0
  9
$LWDISPLAY
290
    0
  9
$INSUNITS
 70
    4
  9
$HYPERLINKBASE
  1

  9
$STYLESHEET
  1

  9
$XEDIT
290
    1
  9
$CEPSNTYPE
380
    0
  9
$PSTYLEMODE
290
    1
  9
$EXTNAMES
290
    1
  9
$PSVPSCALE
 40
1
  9
$OLESTARTUP
290
    0
  9
$SORTENTS
280
  127
  9
$INDEXCTL
280
    0
  9
$HIDETEXT
280
    1
  9
$XCLIPFRAME
290
    0
  9
$HALOGAP
280
    0
  9
$OBSCOLOR
 70
  257
  9
$OBSLTYPE
280
    0
  9
$INTERSECTIONDISPLAY
280
    0
  9
$INTERSECTIONCOLOR
 70
  257
  9
$DIMASSOC
280
    1
  9
$PROJECTNAME
  1

  9
$CAMERADISPLAY
290
    0
  9
$LENSLENGTH
 40
50
  9
$CAMERAHEIGHT
 40
0
  9
$STEPSPERSEC
 40
2
  9
$STEPSIZE
 40
50
  9
$3DDWFPREC
 40
2
  9
$PSOLWIDTH
 40
5
  9
$PSOLHEIGHT
 40
80
  9
$LOFTANG1
 40
1.570796326794897
  9
$LOFTANG2
 40
1.570796326794897
  9
$LOFTMAG1
 40
0
  9
$LOFTMAG2
 40
0
  9
$LOFTPARAM
 70
    7
  9
$LOFTNORMALS
280
    1
  9
$LATITUDE
 40
1
  9
$LONGITUDE
 40
1
  9
$NORTHDIRECTION
 40
0
  9
$TIMEZONE
 70
-8000
  9
$LIGHTGLYPHDISPLAY
280
    1
  9
$TILEMODELIGHTSYNCH
280
    1
  9
$SOLIDHIST
280
    1
  9
$SHOWHIST
280
    1
  9
$DWFFRAME
280
    2
  9
$DGNFRAME
280
    0
  9
$REALWORLDSCALE
290
    1
  9
$INTERFERECOLOR
 62
    1
  9
$CSHADOW
280
    0
  9
$SHADOWPLANELOCATION
 40
0
  0
ENDSEC
  0
SECTION
  2
CLASSES
  0
ENDSEC
  0
SECTION
  2
TABLES
  0
TABLE
  2
VPORT
  5
8
330
0
100
AcDbSymbolTable
 70
    1
  0
VPORT
  5
31
330
2
100
AcDbSymbolTableRecord
100
AcDbViewportTableRecord
  2
*ACTIVE
 70
    0
 10
0
 20
0
 11
1
 21
1
 12
100.0881404435149
 22
79.08570936651232
 13
0
 23
0
 14
10
 24
10
 15
0.001
 25
0.001
 16
0
 26
0
 36
1
 17
0
 27
0
 37
0
 40
86.92393723257071
 41
1.028901734104046
 42
50
 43
0
 44
0
 50
0
 51
0
 71
    0
 72
  100
 73
    1
 74
    3
 75
    0
 76
    1
 77
    0
 78
    0
281
    0
 65
    1
110
0
120
0
130
0
111
1
121
0
131
0
112
0
122
1
132
0
 79
    0
146
0
348
10020
 60
    3
 61
    5
292
1
282
    1
141
0
142
0
 63
  250
421
3358443
  0
ENDTAB
  0
TABLE
  2
LTYPE
  5
5
330
0
100
AcDbSymbolTable
 70
    4
  0
LTYPE
  5
14
330
5
100
AcDbSymbolTableRecord
100
AcDbLinetypeTableRecord
  2
ByBlock
 70
    0
  3

 72
   65
 73
    0
 40
0
  0
LTYPE
  5
15
330
5
100
AcDbSymbolTableRecord
100
AcDbLinetypeTableRecord
  2
ByLayer
 70
    0
  3

 72
   65
 73
    0
 40
0
  0
LTYPE
  5
16
330
5
100
AcDbSymbolTableRecord
100
AcDbLinetypeTableRecord
  2
Continuous
 70
    0
  3
Solid line
 72
   65
 73
    0
 40
0
  0
LTYPE
  5
32
330
5
100
AcDbSymbolTableRecord
100
AcDbLinetypeTableRecord
  2
DOT
 70
    0
  3
Dot . . . . . . . . . . . . . . . . . . . . . .
 72
   65
 73
    2
 40
6.35
 49
0
 74
    0
 49
-6.35
 74
    0
  0
LTYPE
  5
33
330
5
100
AcDbSymbolTableRecord
100
AcDbLinetypeTableRecord
  2
DOTTINY
 70
    0
  3
Dot (.15x) .....................................
 72
   65
 73
    2
 40
0.9525
 49
0
 74
    0
 49
-0.9525
 74
    0
  0
LTYPE
  5
34
330
5
100
AcDbSymbolTableRecord
100
AcDbLinetypeTableRecord
  2
DOT2
 70
    0
  3
Dot (.5x) .....................................
 72
   65
 73
    2
 40
3.175
 49
0
 74
    0
 49
-3.175
 74
    0
  0
LTYPE
  5
35
330
5
100
AcDbSymbolTableRecord
100
AcDbLinetypeTableRecord
  2
DOTX2
 70
    0
  3
Dot (2x) .  .  .  .  .  .  .  .  .  .  .  .  .
 72
   65
 73
    2
 40
12.7
 49
0
 74
    0
 49
-12.7
 74
    0
  0
LTYPE
  5
36
330
5
100
AcDbSymbolTableRecord
100
AcDbLinetypeTableRecord
  2
DASHED
 70
    0
  3
Dashed _ _ _ _ _ _ _ _ _ _ _ _ _ _ _ _ _
 72
   65
 73
    2
 40
19.05
 49
12.7
 74
    0
 49
-6.35
 74
    0
  0
LTYPE
  5
37
330
5
100
AcDbSymbolTableRecord
100
AcDbLinetypeTableRecord
  2
DASHEDTINY
 70
    0
  3
Dashed (.15x) _ _ _ _ _ _ _ _ _ _ _ _ _ _ _ _ _
 72
   65
 73
    2
 40
2.8575
 49
1.905
 74
    0
 49
-0.9525
 74
    0
  0
LTYPE
  5
38
330
5
100
AcDbSymbolTableRecord
100
AcDbLinetypeTableRecord
  2
DASHED2
 70
    0
  3
Dashed (.5x) _ _ _ _ _ _ _ _ _ _ _ _ _ _ _ _ _
 72
   65
 73
    2
 40
9.524999999999999
 49
6.35
 74
    0
 49
-3.175
 74
    0
  0
LTYPE
  5
39
330
5
100
AcDbSymbolTableRecord
100
AcDbLinetypeTableRecord
  2
DASHEDX2
 70
    0
  3
Dashed (2x) ____  ____  ____  ____  ____  ___
 72
   65
 73
    2
 40
38.09999999999999
 49
25.4
 74
    0
 49
-12.7
 74
    0
  0
LTYPE
  5
3A
330
5
100
AcDbSymbolTableRecord
100
AcDbLinetypeTableRecord
  2
DASHDOT
 70
    0
  3
Dash dot __ . __ . __ . __ . __ . __ . __ . __
 72
   65
 73
    4
 40
25.4
 49
12.7
 74
    0
 49
-6.35
 74
    0
 49
0
 74
    0
 49
-6.35
 74
    0
  0
LTYPE
  5
3B
330
5
100
AcDbSymbolTableRecord
100
AcDbLinetypeTableRecord
  2
DASHDOTTINY
 70
    0
  3
Dash dot (.15x) _._._._._._._._._._._._._._._.
 72
   65
 73
    4
 40
3.81
 49
1.905
 74
    0
 49
-0.9525
 74
    0
 49
0
 74
    0
 49
-0.9525
 74
    0
  0
LTYPE
  5
3C
330
5
100
AcDbSymbolTableRecord
100
AcDbLinetypeTableRecord
  2
DASHDOT2
 70
    0
  3
Dash dot (.5x) _._._._._._._._._._._._._._._.
 72
   65
 73
    4
 40
12.7
 49
6.35
 74
    0
 49
-3.175
 74
    0
 49
0
 74
    0
 49
-3.175
 74
    0
  0
LTYPE
  5
3D
330
5
100
AcDbSymbolTableRecord
100
AcDbLinetypeTableRecord
  2
DASHDOTX2
 70
    0
  3
Dash dot (2x) ____  .  ____  .  ____  .  ___
 72
   65
 73
    4
 40
50.8
 49
25.4
 74
    0
 49
-12.7
 74
    0
 49
0
 74
    0
 49
-12.7
 74
    0
  0
LTYPE
  5
3E
330
5
100
AcDbSymbolTableRecord
100
AcDbLinetypeTableRecord
  2
DIVIDE
 70
    0
  3
Divide ____ . . ____ . . ____ . . ____ . . ____
 72
   65
 73
    6
 40
31.75
 49
12.7
 74
    0
 49
-6.35
 74
    0
 49
0
 74
    0
 49
-6.35
 74
    0
 49
0
 74
    0
 49
-6.35
 74
    0
  0
LTYPE
  5
3F
330
5
100
AcDbSymbolTableRecord
100
AcDbLinetypeTableRecord
  2
DIVIDETINY
 70
    0
  3
Divide (.15x) __..__..__..__..__..__..__..__.._
 72
   65
 73
    6
 40
4.7625
 49
1.905
 74
    0
 49
-0.9525
 74
    0
 49
0
 74
    0
 49
-0.9525
 74
    0
 49
0
 74
    0
 49
-0.9525
 74
    0
  0
LTYPE
  5
40
330
5
100
AcDbSymbolTableRecord
100
AcDbLinetypeTableRecord
  2
DIVIDE2
 70
    0
  3
Divide (.5x) __..__..__..__..__..__..__..__.._
 72
   65
 73
    6
 40
15.875
 49
6.35
 74
    0
 49
-3.175
 74
    0
 49
0
 74
    0
 49
-3.175
 74
    0
 49
0
 74
    0
 49
-3.175
 74
    0
  0
LTYPE
  5
41
330
5
100
AcDbSymbolTableRecord
100
AcDbLinetypeTableRecord
  2
DIVIDEX2
 70
    0
  3
Divide (2x) ________  .  .  ________  .  .  _
 72
   65
 73
    6
 40
63.5
 49
25.4
 74
    0
 49
-12.7
 74
    0
 49
0
 74
    0
 49
-12.7
 74
    0
 49
0
 74
    0
 49
-12.7
 74
    0
  0
LTYPE
  5
42
330
5
100
AcDbSymbolTableRecord
100
AcDbLinetypeTableRecord
  2
BORDER
 70
    0
  3
Border __ __ . __ __ . __ __ . __ __ . __ __ .
 72
   65
 73
    6
 40
44.45
 49
12.7
 74
    0
 49
-6.35
 74
    0
 49
12.7
 74
    0
 49
-6.35
 74
    0
 49
0
 74
    0
 49
-6.35
 74
    0
  0
LTYPE
  5
43
330
5
100
AcDbSymbolTableRecord
100
AcDbLinetypeTableRecord
  2
BORDERTINY
 70
    0
  3
Border (.15x) __.__.__.__.__.__.__.__.__.__.__.
 72
   65
 73
    6
 40
6.6675
 49
1.905
 74
    0
 49
-0.9525
 74
    0
 49
1.905
 74
    0
 49
-0.9525
 74
    0
 49
0
 74
    0
 49
-0.9525
 74
    0
  0
LTYPE
  5
44
330
5
100
AcDbSymbolTableRecord
100
AcDbLinetypeTableRecord
  2
BORDER2
 70
    0
  3
Border (.5x) __.__.__.__.__.__.__.__.__.__.__.
 72
   65
 73
    6
 40
22.225
 49
6.35
 74
    0
 49
-3.175
 74
    0
 49
6.35
 74
    0
 49
-3.175
 74
    0
 49
0
 74
    0
 49
-3.175
 74
    0
  0
LTYPE
  5
45
330
5
100
AcDbSymbolTableRecord
100
AcDbLinetypeTableRecord
  2
BORDERX2
 70
    0
  3
Border (2x) ____  ____  .  ____  ____  .  ___
 72
   65
 73
    6
 40
88.89999999999999
 49
25.4
 74
    0
 49
-12.7
 74
    0
 49
25.4
 74
    0
 49
-12.7
 74
    0
 49
0
 74
    0
 49
-12.7
 74
    0
  0
LTYPE
  5
46
330
5
100
AcDbSymbolTableRecord
100
AcDbLinetypeTableRecord
  2
CENTER
 70
    0
  3
Center ____ _ ____ _ ____ _ ____ _ ____ _ ____
 72
   65
 73
    4
 40
50.8
 49
31.75
 74
    0
 49
-6.35
 74
    0
 49
6.35
 74
    0
 49
-6.35
 74
    0
  0
LTYPE
  5
47
330
5
100
AcDbSymbolTableRecord
100
AcDbLinetypeTableRecord
  2
CENTERTINY
 70
    0
  3
Center (.15x) ___ _ ___ _ ___ _ ___ _ ___ _ ___
 72
   65
 73
    4
 40
7.619999999999999
 49
4.7625
 74
    0
 49
-0.9525
 74
    0
 49
0.9525
 74
    0
 49
-0.9525
 74
    0
  0
LTYPE
  5
48
330
5
100
AcDbSymbolTableRecord
100
AcDbLinetypeTableRecord
  2
CENTER2
 70
    0
  3
Center (.5x) ___ _ ___ _ ___ _ ___ _ ___ _ ___
 72
   65
 73
    4
 40
28.575
 49
19.05
 74
    0
 49
-3.175
 74
    0
 49
3.175
 74
    0
 49
-3.175
 74
    0
  0
LTYPE
  5
49
330
5
100
AcDbSymbolTableRecord
100
AcDbLinetypeTableRecord
  2
CENTERX2
 70
    0
  3
Center (2x) ________  __  ________  __  _____
 72
   65
 73
    4
 40
101.6
 49
63.5
 74
    0
 49
-12.7
 74
    0
 49
12.7
 74
    0
 49
-12.7
 74
    0
  0
ENDTAB
  0
TABLE
  2
LAYER
  5
2
330
0
100
AcDbSymbolTable
 70
    1
  0
LAYER
  5
10
330
2
100
AcDbSymbolTableRecord
100
AcDbLayerTableRecord
  2
0
 70
    0
 62
    7
  6
CONTINUOUS
370
    9
390
F
  0
LAYER
  5
4A
330
2
100
AcDbSymbolTableRecord
100
AcDbLayerTableRecord
  2
ProjItem
 70
    0
 62
    7
  6
CONTINUOUS
370
    9
390
F
  0
LAYER
  5
4B
330
2
100
AcDbSymbolTableRecord
100
AcDbLayerTableRecord
  2
ProjItem001
 70
    0
 62
    7
  6
CONTINUOUS
370
    9
390
F
  0
LAYER
  5
4C
330
2
100
AcDbSymbolTableRecord
100
AcDbLayerTableRecord
  2
ProjItem002
 70
    0
 62
    7
  6
CONTINUOUS
370
    9
390
F
  0
LAYER
  5
4D
330
2
100
AcDbSymbolTableRecord
100
AcDbLayerTableRecord
  2
dim
 70
    0
 62
    7
  6
CONTINUOUS
370
    9
390
F
  0
LAYER
  5
4E
330
2
100
AcDbSymbolTableRecord
100
AcDbLayerTableRecord
  2
leader
 70
    0
 62
    7
  6
DASHDOTTINY
370
    5
390
F
  0
ENDTAB
  0
TABLE
  2
STYLE
  5
3
330
0
100
AcDbSymbolTable
 70
    3
  0
STYLE
  5
4F
330
2
100
AcDbSymbolTableRecord
100
AcDbTextStyleTableRecord
  2
standard
 70
    0
 40
0
 41
1
 50
0
 71
    0
 42
1
  3
standard
  4

  0
ENDTAB
  0
TABLE
  2
VIEW
  5
6
330
0
100
AcDbSymbolTable
 70
    0
  0
ENDTAB
  0
TABLE
  2
UCS
  5
7
330
0
100
AcDbSymbolTable
 70
    0
  0
ENDTAB
  0
TABLE
  2
APPID
  5
9
330
0
100
AcDbSymbolTable
 70
    1
  0
APPID
  5
12
330
9
100
AcDbSymbolTableRecord
100
AcDbRegAppTableRecord
  2
ACAD
 70
    0
  0
APPID
  5
50
330
9
100
AcDbSymbolTableRecord
100
AcDbRegAppTableRecord
  2
LibreCad
 70
    0
  0
ENDTAB
  0
TABLE
  2
DIMSTYLE
  5
A
330
0
100
AcDbSymbolTable
 70
    1
100
AcDbDimStyleTable
 71
    1
  0
DIMSTYLE
105
51
330
A
100
AcDbSymbolTableRecord
100
AcDbDimStyleTableRecord
  2
Standard
 70
    0
 40
2.5
 41
0.35
 42
0.2
 43
0.38
 44
0.65
 45
0
 46
0
 47
0
 48
0
 49
1
140
0.35
141
0.09
142
0
143
25.4
144
1
145
0
146
1
147
0.2
148
0
 71
    0
 72
    0
 73
    0
 74
    1
 75
    0
 76
    0
 77
    0
 78
    8
 79
    0
170
    0
171
    2
172
    0
173
    0
174
    0
175
    0
176
    0
177
    0
178
    0
179
    0
271
    1
272
    4
273
    2
274
    2
275
    0
276
    0
277
    2
278
    0
279
    0
280
    0
281
    0
282
    0
283
    1
284
    0
285
    0
286
    0
288
    0
289
    3
340
cursive
341

371
   -2
372
   -2
  0
ENDTAB
  0
TABLE
  2
BLOCK_RECORD
  5
1
330
0
100
AcDbSymbolTable
 70
    2
  0
BLOCK_RECORD
  5
1F
330
1
100
AcDbSymbolTableRecord
100
AcDbBlockTableRecord
  2
*Model_Space
 70
    0
280
    1
281
    0
  0
BLOCK_RECORD
  5
1E
330
1
100
AcDbSymbolTableRecord
100
AcDbBlockTableRecord
  2
*Paper_Space
 70
    0
280
    1
281
    0
  0
BLOCK_RECORD
  5
52
330
1
100
AcDbSymbolTableRecord
100
AcDbBlockTableRecord
  2
*D17
 70
    0
280
    1
281
    0
  0
BLOCK_RECORD
  5
55
330
1
100
AcDbSymbolTableRecord
100
AcDbBlockTableRecord
  2
*D1
 70
    0
280
    1
281
    0
  0
BLOCK_RECORD
  5
58
330
1
100
AcDbSymbolTableRecord
100
AcDbBlockTableRecord
  2
*D11
 70
    0
280
    1
281
    0
  0
BLOCK_RECORD
  5
5B
330
1
100
AcDbSymbolTableRecord
100
AcDbBlockTableRecord
  2
*D18
 70
    0
280
    1
281
    0
  0
BLOCK_RECORD
  5
5E
330
1
100
AcDbSymbolTableRecord
100
AcDbBlockTableRecord
  2
*D7
 70
    0
280
    1
281
    0
  0
BLOCK_RECORD
  5
61
330
1
100
AcDbSymbolTableRecord
100
AcDbBlockTableRecord
  2
*D9
 70
    0
280
    1
281
    0
  0
BLOCK_RECORD
  5
64
330
1
100
AcDbSymbolTableRecord
100
AcDbBlockTableRecord
  2
*D14
 70
    0
280
    1
281
    0
  0
BLOCK_RECORD
  5
67
330
1
100
AcDbSymbolTableRecord
100
AcDbBlockTableRecord
  2
*D2
 70
    0
280
    1
281
    0
  0
BLOCK_RECORD
  5
6A
330
1
100
AcDbSymbolTableRecord
100
AcDbBlockTableRecord
  2
*D16
 70
    0
280
    1
281
    0
  0
BLOCK_RECORD
  5
6D
330
1
100
AcDbSymbolTableRecord
100
AcDbBlockTableRecord
  2
*D15
 70
    0
280
    1
281
    0
  0
BLOCK_RECORD
  5
70
330
1
100
AcDbSymbolTableRecord
100
AcDbBlockTableRecord
  2
*D4
 70
    0
280
    1
281
    0
  0
BLOCK_RECORD
  5
73
330
1
100
AcDbSymbolTableRecord
100
AcDbBlockTableRecord
  2
*D12
 70
    0
280
    1
281
    0
  0
BLOCK_RECORD
  5
76
330
1
100
AcDbSymbolTableRecord
100
AcDbBlockTableRecord
  2
*D13
 70
    0
280
    1
281
    0
  0
BLOCK_RECORD
  5
79
330
1
100
AcDbSymbolTableRecord
100
AcDbBlockTableRecord
  2
*D6
 70
    0
280
    1
281
    0
  0
BLOCK_RECORD
  5
7C
330
1
100
AcDbSymbolTableRecord
100
AcDbBlockTableRecord
  2
*D3
 70
    0
280
    1
281
    0
  0
BLOCK_RECORD
  5
7F
330
1
100
AcDbSymbolTableRecord
100
AcDbBlockTableRecord
  2
*D8
 70
    0
280
    1
281
    0
  0
BLOCK_RECORD
  5
82
330
1
100
AcDbSymbolTableRecord
100
AcDbBlockTableRecord
  2
*D10
 70
    0
280
    1
281
    0
  0
BLOCK_RECORD
  5
85
330
1
100
AcDbSymbolTableRecord
100
AcDbBlockTableRecord
  2
*D5
 70
    0
280
    1
281
    0
  0
BLOCK_RECORD
  5
88
330
1
100
AcDbSymbolTableRecord
100
AcDbBlockTableRecord
  2
Wireling_Accelerometer_AST1001_REV1-DETAILED_DRAWING-DXF
 70
    0
280
    1
281
    0
  0
BLOCK_RECORD
  5
8B
330
1
100
AcDbSymbolTableRecord
100
AcDbBlockTableRecord
  2
Wireling_BUTTON_AST1015_REV1-DETAILED_DRAWING-DXF
 70
    0
280
    1
281
    0
  0
ENDTAB
  0
ENDSEC
  0
SECTION
  2
BLOCKS
  0
BLOCK
  5
20
330
1F
100
AcDbEntity
  8
0
100
AcDbBlockBegin
  2
*Model_Space
 70
    0
 10
0
 20
0
 30
0
  3
*Model_Space
  1

  0
ENDBLK
  5
21
330
1F
100
AcDbEntity
  8
0
100
AcDbBlockEnd
  0
BLOCK
  5
1C
330
1B
100
AcDbEntity
  8
0
100
AcDbBlockBegin
  2
*Paper_Space
 70
    0
 10
0
 20
0
 30
0
  3
*Paper_Space
  1

  0
ENDBLK
  5
1D
330
1F
100
AcDbEntity
  8
0
100
AcDbBlockEnd
  0
BLOCK
  5
53
330
52
100
AcDbEntity
  8
0
100
AcDbBlockBegin
  2
*D17
 70
    1
 10
0
 20
0
  3
*D17
  1

  0
LINE
  5
8E
100
AcDbEntity
  8
dim
  6
ByBlock
 62
    0
370
   -2
100
AcDbLine
 10
159
 20
113.04016
 11
159
 21
103.04016
  0
MTEXT
  5
8F
100
AcDbEntity
  8
dim
  6
CONTINUOUS
 62
    0
370
   -2
100
AcDbMText
 10
158.0625
 20
108.04016
 30
0
 40
0.875
 41
0.976973897469624
 71
    5
 72
    1
  1
10
  7
cursive
210
0
220
0
230
1
 50
90
 73
    2
 44
1
  0
SOLID
  5
90
100
AcDbEntity
  8
dim
  6
ByBlock
 62
    0
370
   -2
100
AcDbTrace
 10
159
 20
113.04016
 30
0
 11
159.1456996302205
 21
112.16516
 31
0
 12
158.8543003697795
 22
112.16516
 32
0
 13
158.8543003697795
 23
112.16516
 33
0
  0
SOLID
  5
91
100
AcDbEntity
  8
dim
  6
ByBlock
 62
    0
370
   -2
100
AcDbTrace
 10
159
 20
103.04016
 30
0
 11
158.8543003697795
 21
103.91516
 31
0
 12
159.1456996302205
 22
103.91516
 32
0
 13
159.1456996302205
 23
103.91516
 33
0
  0
LINE
  5
92
100
AcDbEntity
  8
dim
  6
ByBlock
 62
    0
370
   -2
100
AcDbLine
 10
157.038159
 20
113.04016
 11
160.625
 21
113.04016
  0
LINE
  5
93
100
AcDbEntity
  8
dim
  6
ByBlock
 62
    0
370
   -2
100
AcDbLine
 10
157.038159
 20
103.04016
 11
160.625
 21
103.04016
  0
ENDBLK
  5
54
330
52
100
AcDbEntity
  8
0
100
AcDbBlockEnd
  0
BLOCK
  5
56
330
55
100
AcDbEntity
  8
0
100
AcDbBlockBegin
  2
*D1
 70
    1
 10
0
 20
0
  3
*D1
  1

  0
LINE
  5
94
100
AcDbEntity
  8
dim
  6
ByBlock
 62
    0
370
   -2
100
AcDbLine
 10
122.690159
 20
114
 11
126.890159
 21
114
  0
MTEXT
  5
95
100
AcDbEntity
  8
dim
  6
CONTINUOUS
 62
    0
370
   -2
100
AcDbMText
 10
124.790159
 20
114.9375
 30
0
 40
0.875
 41
1.661618214646482
 71
    5
 72
    1
  1
4.2
  7
cursive
210
0
220
0
230
1
 50
0
 73
    2
 44
1
  0
SOLID
  5
96
100
AcDbEntity
  8
dim
  6
ByBlock
 62
    0
370
   -2
100
AcDbTrace
 10
122.690159
 20
114
 30
0
 11
123.565159
 21
114.1456996302205
 31
0
 12
123.565159
 22
113.8543003697795
 32
0
 13
123.565159
 23
113.8543003697795
 33
0
  0
SOLID
  5
97
100
AcDbEntity
  8
dim
  6
ByBlock
 62
    0
370
   -2
100
AcDbTrace
 10
126.890159
 20
114
 30
0
 11
126.015159
 21
113.8543003697795
 31
0
 12
126.015159
 22
114.1456996302205
 32
0
 13
126.015159
 23
114.1456996302205
 33
0
  0
LINE
  5
98
100
AcDbEntity
  8
dim
  6
ByBlock
 62
    0
370
   -2
100
AcDbLine
 10
122.690159
 20
112.34016
 11
122.690159
 21
115.625
  0
LINE
  5
99
100
AcDbEntity
  8
dim
  6
ByBlock
 62
    0
370
   -2
100
AcDbLine
 10
126.890159
 20
112.34016
 11
126.890159
 21
115.625
  0
ENDBLK
  5
57
330
55
100
AcDbEntity
  8
0
100
AcDbBlockEnd
  0
BLOCK
  5
59
330
58
100
AcDbEntity
  8
0
100
AcDbBlockBegin
  2
*D11
 70
    1
 10
0
 20
0
  3
*D11
  1

  0
LINE
  5
9A
100
AcDbEntity
  8
dim
  6
ByBlock
 62
    0
370
   -2
100
AcDbLine
 10
134.040159
 20
116
 11
138.140159
 21
116
  0
MTEXT
  5
9B
100
AcDbEntity
  8
dim
  6
CONTINUOUS
 62
    0
370
   -2
100
AcDbMText
 10
137.6433011055087
 20
116.9375
 30
0
 40
0.875
 41
1.506284211017288
 71
    5
 72
    1
  1
0.6
  7
cursive
210
0
220
0
230
1
 50
0
 73
    2
 44
1
  0
SOLID
  5
9C
100
AcDbEntity
  8
dim
  6
ByBlock
 62
    0
370
   -2
100
AcDbTrace
 10
135.790159
 20
116
 30
0
 11
134.915159
 21
115.8543003697795
 31
0
 12
134.915159
 22
116.1456996302205
 32
0
 13
134.915159
 23
116.1456996302205
 33
0
  0
SOLID
  5
9D
100
AcDbEntity
  8
dim
  6
ByBlock
 62
    0
370
   -2
100
AcDbTrace
 10
136.390159
 20
116
 30
0
 11
137.265159
 21
116.1456996302205
 31
0
 12
137.265159
 22
115.8543003697795
 32
0
 13
137.265159
 23
115.8543003697795
 33
0
  0
LINE
  5
9E
100
AcDbEntity
  8
dim
  6
ByBlock
 62
    0
370
   -2
100
AcDbLine
 10
135.790159
 20
113.54016
 11
135.790159
 21
117.625
  0
LINE
  5
9F
100
AcDbEntity
  8
dim
  6
ByBlock
 62
    0
370
   -2
100
AcDbLine
 10
136.390159
 20
113.54016
 11
136.390159
 21
117.625
  0
ENDBLK
  5
5A
330
58
100
AcDbEntity
  8
0
100
AcDbBlockEnd
  0
BLOCK
  5
5C
330
5B
100
AcDbEntity
  8
0
100
AcDbBlockBegin
  2
*D18
 70
    1
 10
0
 20
0
  3
*D18
  1

  0
LINE
  5
A0
100
AcDbEntity
  8
dim
  6
ByBlock
 62
    0
370
   -2
100
AcDbLine
 10
146.538159
 20
101
 11
156.538159
 21
101
  0
MTEXT
  5
A1
100
AcDbEntity
  8
dim
  6
CONTINUOUS
 62
    0
370
   -2
100
AcDbMText
 10
151.538159
 20
101.9375
 30
0
 40
0.875
 41
0.976973897469624
 71
    5
 72
    1
  1
10
  7
cursive
210
0
220
0
230
1
 50
0
 73
    2
 44
1
  0
SOLID
  5
A2
100
AcDbEntity
  8
dim
  6
ByBlock
 62
    0
370
   -2
100
AcDbTrace
 10
146.538159
 20
101
 30
0
 11
147.413159
 21
101.1456996302205
 31
0
 12
147.413159
 22
100.8543003697795
 32
0
 13
147.413159
 23
100.8543003697795
 33
0
  0
SOLID
  5
A3
100
AcDbEntity
  8
dim
  6
ByBlock
 62
    0
370
   -2
100
AcDbTrace
 10
156.538159
 20
101
 30
0
 11
155.663159
 21
100.8543003697795
 31
0
 12
155.663159
 22
101.1456996302205
 32
0
 13
155.663159
 23
101.1456996302205
 33
0
  0
LINE
  5
A4
100
AcDbEntity
  8
dim
  6
ByBlock
 62
    0
370
   -2
100
AcDbLine
 10
146.538159
 20
102.54016
 11
146.538159
 21
99.375
  0
LINE
  5
A5
100
AcDbEntity
  8
dim
  6
ByBlock
 62
    0
370
   -2
100
AcDbLine
 10
156.538159
 20
102.54016
 11
156.538159
 21
99.375
  0
ENDBLK
  5
5D
330
5B
100
AcDbEntity
  8
0
100
AcDbBlockEnd
  0
BLOCK
  5
5F
330
5E
100
AcDbEntity
  8
0
100
AcDbBlockBegin
  2
*D7
 70
    1
 10
0
 20
0
  3
*D7
  1

  0
LINE
  5
A6
100
AcDbEntity
  8
dim
  6
ByBlock
 62
    0
370
   -2
100
AcDbLine
 10
141
 20
113.04016
 11
141
 21
110.24016
  0
MTEXT
  5
A7
100
AcDbEntity
  8
dim
  6
CONTINUOUS
 62
    0
370
   -2
100
AcDbMText
 10
140.0625
 20
111.64016
 30
0
 40
0.875
 41
1.70778263965486
 71
    5
 72
    1
  1
2.8
  7
cursive
210
0
220
0
230
1
 50
90
 73
    2
 44
1
  0
SOLID
  5
A8
100
AcDbEntity
  8
dim
  6
ByBlock
 62
    0
370
   -2
100
AcDbTrace
 10
141
 20
113.04016
 30
0
 11
141.1456996302205
 21
112.16516
 31
0
 12
140.8543003697795
 22
112.16516
 32
0
 13
140.8543003697795
 23
112.16516
 33
0
  0
SOLID
  5
A9
100
AcDbEntity
  8
dim
  6
ByBlock
 62
    0
370
   -2
100
AcDbTrace
 10
141
 20
110.24016
 30
0
 11
140.8543003697795
 21
111.11516
 31
0
 12
141.1456996302205
 22
111.11516
 32
0
 13
141.1456996302205
 23
111.11516
 33
0
  0
LINE
  5
AA
100
AcDbEntity
  8
dim
  6
ByBlock
 62
    0
370
   -2
100
AcDbLine
 10
136.890159
 20
113.04016
 11
142.625
 21
113.04016
  0
LINE
  5
AB
100
AcDbEntity
  8
dim
  6
ByBlock
 62
    0
370
   -2
100
AcDbLine
 10
139.3
 20
110.24016
 11
142.625
 21
110.24016
  0
ENDBLK
  5
60
330
5E
100
AcDbEntity
  8
0
100
AcDbBlockEnd
  0
BLOCK
  5
62
330
61
100
AcDbEntity
  8
0
100
AcDbBlockBegin
  2
*D9
 70
    1
 10
0
 20
0
  3
*D9
  1

  0
LINE
  5
AC
100
AcDbEntity
  8
dim
  6
ByBlock
 62
    0
370
   -2
100
AcDbLine
 10
136.390159
 20
114
 11
138.890159
 21
114
  0
MTEXT
  5
AD
100
AcDbEntity
  8
dim
  6
CONTINUOUS
 62
    0
370
   -2
100
AcDbMText
 10
137.640159
 20
114.9375
 30
0
 40
0.875
 41
1.798993214646482
 71
    5
 72
    1
  1
2.5
  7
cursive
210
0
220
0
230
1
 50
0
 73
    2
 44
1
  0
SOLID
  5
AE
100
AcDbEntity
  8
dim
  6
ByBlock
 62
    0
370
   -2
100
AcDbTrace
 10
136.390159
 20
114
 30
0
 11
137.265159
 21
114.1456996302205
 31
0
 12
137.265159
 22
113.8543003697795
 32
0
 13
137.265159
 23
113.8543003697795
 33
0
  0
SOLID
  5
AF
100
AcDbEntity
  8
dim
  6
ByBlock
 62
    0
370
   -2
100
AcDbTrace
 10
138.890159
 20
114
 30
0
 11
138.015159
 21
113.8543003697795
 31
0
 12
138.015159
 22
114.1456996302205
 32
0
 13
138.015159
 23
114.1456996302205
 33
0
  0
LINE
  5
B0
100
AcDbEntity
  8
dim
  6
ByBlock
 62
    0
370
   -2
100
AcDbLine
 10
136.390159
 20
113.54016
 11
136.390159
 21
115.625
  0
LINE
  5
B1
100
AcDbEntity
  8
dim
  6
ByBlock
 62
    0
370
   -2
100
AcDbLine
 10
138.890159
 20
111.84016
 11
138.890159
 21
115.625
  0
ENDBLK
  5
63
330
61
100
AcDbEntity
  8
0
100
AcDbBlockEnd
  0
BLOCK
  5
65
330
64
100
AcDbEntity
  8
0
100
AcDbBlockBegin
  2
*D14
 70
    1
 10
0
 20
0
  3
*D14
  1

  0
LINE
  5
B2
100
AcDbEntity
  8
dim
  6
ByBlock
 62
    0
370
   -2
100
AcDbLine
 10
148.038159
 20
114.79016
 11
148.038159
 21
109.79016
  0
MTEXT
  5
B3
100
AcDbEntity
  8
dim
  6
CONTINUOUS
 62
    0
370
   -2
100
AcDbMText
 10
147.100659
 20
115.4553269545455
 30
0
 40
0.875
 41
3.830333909090927
 71
    5
 72
    1
  1
2x 1.5
  7
cursive
210
0
220
0
230
1
 50
90
 73
    2
 44
1
  0
SOLID
  5
B4
100
AcDbEntity
  8
dim
  6
ByBlock
 62
    0
370
   -2
100
AcDbTrace
 10
148.038159
 20
113.04016
 30
0
 11
147.8924593697795
 21
113.91516
 31
0
 12
148.1838586302205
 22
113.91516
 32
0
 13
148.1838586302205
 23
113.91516
 33
0
  0
SOLID
  5
B5
100
AcDbEntity
  8
dim
  6
ByBlock
 62
    0
370
   -2
100
AcDbTrace
 10
148.038159
 20
111.54016
 30
0
 11
148.1838586302205
 21
110.66516
 31
0
 12
147.8924593697795
 22
110.66516
 32
0
 13
147.8924593697795
 23
110.66516
 33
0
  0
LINE
  5
B6
100
AcDbEntity
  8
dim
  6
ByBlock
 62
    0
370
   -2
100
AcDbLine
 10
147.038159
 20
113.04016
 11
149.663159
 21
113.04016
  0
LINE
  5
B7
100
AcDbEntity
  8
dim
  6
ByBlock
 62
    0
370
   -2
100
AcDbLine
 10
148.538159
 20
111.54016
 11
149.663159
 21
111.54016
  0
ENDBLK
  5
66
330
64
100
AcDbEntity
  8
0
100
AcDbBlockEnd
  0
BLOCK
  5
68
330
67
100
AcDbEntity
  8
0
100
AcDbBlockBegin
  2
*D2
 70
    1
 10
0
 20
0
  3
*D2
  1

  0
LINE
  5
B8
100
AcDbEntity
  8
dim
  6
ByBlock
 62
    0
370
   -2
100
AcDbLine
 10
121.290159
 20
101
 11
128.290159
 21
101
  0
MTEXT
  5
B9
100
AcDbEntity
  8
dim
  6
CONTINUOUS
 62
    0
370
   -2
100
AcDbMText
 10
124.790159
 20
101.9375
 30
0
 40
0.875
 41
0.4289006944444445
 71
    5
 72
    1
  1
7
  7
cursive
210
0
220
0
230
1
 50
0
 73
    2
 44
1
  0
SOLID
  5
BA
100
AcDbEntity
  8
dim
  6
ByBlock
 62
    0
370
   -2
100
AcDbTrace
 10
121.290159
 20
101
 30
0
 11
122.165159
 21
101.1456996302205
 31
0
 12
122.165159
 22
100.8543003697795
 32
0
 13
122.165159
 23
100.8543003697795
 33
0
  0
SOLID
  5
BB
100
AcDbEntity
  8
dim
  6
ByBlock
 62
    0
370
   -2
100
AcDbTrace
 10
128.290159
 20
101
 30
0
 11
127.415159
 21
100.8543003697795
 31
0
 12
127.415159
 22
101.1456996302205
 32
0
 13
127.415159
 23
101.1456996302205
 33
0
  0
LINE
  5
BC
100
AcDbEntity
  8
dim
  6
ByBlock
 62
    0
370
   -2
100
AcDbLine
 10
121.290159
 20
102.69016
 11
121.290159
 21
99.375
  0
LINE
  5
BD
100
AcDbEntity
  8
dim
  6
ByBlock
 62
    0
370
   -2
100
AcDbLine
 10
128.290159
 20
102.69016
 11
128.290159
 21
99.375
  0
ENDBLK
  5
69
330
67
100
AcDbEntity
  8
0
100
AcDbBlockEnd
  0
BLOCK
  5
6B
330
6A
100
AcDbEntity
  8
0
100
AcDbBlockBegin
  2
*D16
 70
    1
 10
0
 20
0
  3
*D16
  1

  0
SOLID
  5
BE
100
AcDbEntity
  8
dim
  6
ByBlock
 62
    0
370
   -2
100
AcDbTrace
 10
154.4389914152354
 20
111.0873916206189
 30
0
 11
153.8287338237338
 21
110.4436222098349
 31
0
 12
153.6530529037569
 22
110.6761082166001
 32
0
 13
153.6530529037569
 23
110.6761082166001
 33
0
  0
LINE
  5
BF
100
AcDbEntity
  8
dim
  6
ByBlock
 62
    0
370
   -2
100
AcDbLine
 10
155.038159
 20
111.54016
 11
149.1417522307593
 21
107.0844674609424
  0
MTEXT
  5
C0
100
AcDbEntity
  8
dim
  6
CONTINUOUS
 62
    0
370
   -2
100
AcDbMText
 10
151.2251649579245
 20
109.8338917388056
 30
0
 40
0.875
 41
4.889589204587161
 71
    5
 72
    1
  1
2x R0.8
  7
cursive
210
0
220
0
230
1
 50
37.07696799219034
 73
    2
 44
1
  0
ENDBLK
  5
6C
330
6A
100
AcDbEntity
  8
0
100
AcDbBlockEnd
  0
BLOCK
  5
6E
330
6D
100
AcDbEntity
  8
0
100
AcDbBlockBegin
  2
*D15
 70
    1
 10
0
 20
0
  3
*D15
  1

  0
LINE
  5
C1
100
AcDbEntity
  8
dim
  6
ByBlock
 62
    0
370
   -2
100
AcDbLine
 10
144.788159
 20
111.54016
 11
149.788159
 21
111.54016
  0
MTEXT
  5
C2
100
AcDbEntity
  8
dim
  6
CONTINUOUS
 62
    0
370
   -2
100
AcDbMText
 10
150.4533259545455
 20
112.47766
 30
0
 40
0.875
 41
3.830333909090927
 71
    5
 72
    1
  1
2x 1.5
  7
cursive
210
0
220
0
230
1
 50
0
 73
    2
 44
1
  0
SOLID
  5
C3
100
AcDbEntity
  8
dim
  6
ByBlock
 62
    0
370
   -2
100
AcDbTrace
 10
146.538159
 20
111.54016
 30
0
 11
145.663159
 21
111.3944603697795
 31
0
 12
145.663159
 22
111.6858596302205
 32
0
 13
145.663159
 23
111.6858596302205
 33
0
  0
SOLID
  5
C4
100
AcDbEntity
  8
dim
  6
ByBlock
 62
    0
370
   -2
100
AcDbTrace
 10
148.038159
 20
111.54016
 30
0
 11
148.913159
 21
111.6858596302205
 31
0
 12
148.913159
 22
111.3944603697795
 32
0
 13
148.913159
 23
111.3944603697795
 33
0
  0
LINE
  5
C5
100
AcDbEntity
  8
dim
  6
ByBlock
 62
    0
370
   -2
100
AcDbLine
 10
146.538159
 20
112.54016
 11
146.538159
 21
109.91516
  0
LINE
  5
C6
100
AcDbEntity
  8
dim
  6
ByBlock
 62
    0
370
   -2
100
AcDbLine
 10
148.038159
 20
111.04016
 11
148.038159
 21
109.91516
  0
ENDBLK
  5
6F
330
6D
100
AcDbEntity
  8
0
100
AcDbBlockEnd
  0
BLOCK
  5
71
330
70
100
AcDbEntity
  8
0
100
AcDbBlockBegin
  2
*D4
 70
    1
 10
0
 20
0
  3
*D4
  1

  0
LINE
  5
C7
100
AcDbEntity
  8
dim
  6
ByBlock
 62
    0
370
   -2
100
AcDbLine
 10
119.790159
 20
98
 11
124.790159
 21
98
  0
MTEXT
  5
C8
100
AcDbEntity
  8
dim
  6
CONTINUOUS
 62
    0
370
   -2
100
AcDbMText
 10
122.290159
 20
98.9375
 30
0
 40
0.875
 41
0.6234861111111112
 71
    5
 72
    1
  1
5
  7
cursive
210
0
220
0
230
1
 50
0
 73
    2
 44
1
  0
SOLID
  5
C9
100
AcDbEntity
  8
dim
  6
ByBlock
 62
    0
370
   -2
100
AcDbTrace
 10
119.790159
 20
98
 30
0
 11
120.665159
 21
98.14569963022049
 31
0
 12
120.665159
 22
97.85430036977951
 32
0
 13
120.665159
 23
97.85430036977951
 33
0
  0
SOLID
  5
CA
100
AcDbEntity
  8
dim
  6
ByBlock
 62
    0
370
   -2
100
AcDbTrace
 10
124.790159
 20
98
 30
0
 11
123.915159
 21
97.85430036977951
 31
0
 12
123.915159
 22
98.14569963022049
 32
0
 13
123.915159
 23
98.14569963022049
 33
0
  0
LINE
  5
CB
100
AcDbEntity
  8
dim
  6
ByBlock
 62
    0
370
   -2
100
AcDbLine
 10
119.790159
 20
102.54016
 11
119.790159
 21
96.375
  0
LINE
  5
CC
100
AcDbEntity
  8
dim
  6
ByBlock
 62
    0
370
   -2
100
AcDbLine
 10
124.790159
 20
100.2058021391289
 11
124.790159
 21
96.375
  0
ENDBLK
  5
72
330
70
100
AcDbEntity
  8
0
100
AcDbBlockEnd
  0
BLOCK
  5
74
330
73
100
AcDbEntity
  8
0
100
AcDbBlockBegin
  2
*D12
 70
    1
 10
0
 20
0
  3
*D12
  1

  0
LINE
  5
CD
100
AcDbEntity
  8
dim
  6
ByBlock
 62
    0
370
   -2
100
AcDbLine
 10
135.790159
 20
98
 11
139.285159
 21
98
  0
MTEXT
  5
CE
100
AcDbEntity
  8
dim
  6
CONTINUOUS
 62
    0
370
   -2
100
AcDbMText
 10
137.537659
 20
98.9375
 30
0
 40
0.875
 41
1.797383093039595
 71
    5
 72
    1
  1
3.5
  7
cursive
210
0
220
0
230
1
 50
0
 73
    2
 44
1
  0
SOLID
  5
CF
100
AcDbEntity
  8
dim
  6
ByBlock
 62
    0
370
   -2
100
AcDbTrace
 10
135.790159
 20
98
 30
0
 11
136.665159
 21
98.14569963022049
 31
0
 12
136.665159
 22
97.85430036977951
 32
0
 13
136.665159
 23
97.85430036977951
 33
0
  0
SOLID
  5
D0
100
AcDbEntity
  8
dim
  6
ByBlock
 62
    0
370
   -2
100
AcDbTrace
 10
139.285159
 20
98
 30
0
 11
138.410159
 21
97.85430036977951
 31
0
 12
138.410159
 22
98.14569963022049
 32
0
 13
138.410159
 23
98.14569963022049
 33
0
  0
LINE
  5
D1
100
AcDbEntity
  8
dim
  6
ByBlock
 62
    0
370
   -2
100
AcDbLine
 10
135.790159
 20
102.54016
 11
135.790159
 21
96.375
  0
LINE
  5
D2
100
AcDbEntity
  8
dim
  6
ByBlock
 62
    0
370
   -2
100
AcDbLine
 10
139.285159
 20
102.69016
 11
139.285159
 21
96.375
  0
ENDBLK
  5
75
330
73
100
AcDbEntity
  8
0
100
AcDbBlockEnd
  0
BLOCK
  5
77
330
76
100
AcDbEntity
  8
0
100
AcDbBlockBegin
  2
*D13
 70
    1
 10
0
 20
0
  3
*D13
  1

  0
LINE
  5
D3
100
AcDbEntity
  8
dim
  6
ByBlock
 62
    0
370
   -2
100
AcDbLine
 10
148.038159
 20
114
 11
155.038159
 21
114
  0
MTEXT
  5
D4
100
AcDbEntity
  8
dim
  6
CONTINUOUS
 62
    0
370
   -2
100
AcDbMText
 10
151.538159
 20
114.9375
 30
0
 40
0.875
 41
0.4289006944444445
 71
    5
 72
    1
  1
7
  7
cursive
210
0
220
0
230
1
 50
0
 73
    2
 44
1
  0
SOLID
  5
D5
100
AcDbEntity
  8
dim
  6
ByBlock
 62
    0
370
   -2
100
AcDbTrace
 10
148.038159
 20
114
 30
0
 11
148.913159
 21
114.1456996302205
 31
0
 12
148.913159
 22
113.8543003697795
 32
0
 13
148.913159
 23
113.8543003697795
 33
0
  0
SOLID
  5
D6
100
AcDbEntity
  8
dim
  6
ByBlock
 62
    0
370
   -2
100
AcDbTrace
 10
155.038159
 20
114
 30
0
 11
154.163159
 21
113.8543003697795
 31
0
 12
154.163159
 22
114.1456996302205
 32
0
 13
154.163159
 23
114.1456996302205
 33
0
  0
LINE
  5
D7
100
AcDbEntity
  8
dim
  6
ByBlock
 62
    0
370
   -2
100
AcDbLine
 10
148.038159
 20
112.04016
 11
148.038159
 21
115.625
  0
LINE
  5
D8
100
AcDbEntity
  8
dim
  6
ByBlock
 62
    0
370
   -2
100
AcDbLine
 10
155.038159
 20
112.04016
 11
155.038159
 21
115.625
  0
ENDBLK
  5
78
330
76
100
AcDbEntity
  8
0
100
AcDbBlockEnd
  0
BLOCK
  5
7A
330
79
100
AcDbEntity
  8
0
100
AcDbBlockBegin
  2
*D6
 70
    1
 10
0
 20
0
  3
*D6
  1

  0
LINE
  5
D9
100
AcDbEntity
  8
dim
  6
ByBlock
 62
    0
370
   -2
100
AcDbLine
 10
119
 20
107.44016
 11
119
 21
103.19016
  0
MTEXT
  5
DA
100
AcDbEntity
  8
dim
  6
CONTINUOUS
 62
    0
370
   -2
100
AcDbMText
 10
118.0625
 20
105.31516
 30
0
 40
0.875
 41
1.660008093039595
 71
    5
 72
    1
  1
4.3
  7
cursive
210
0
220
0
230
1
 50
90
 73
    2
 44
1
  0
SOLID
  5
DB
100
AcDbEntity
  8
dim
  6
ByBlock
 62
    0
370
   -2
100
AcDbTrace
 10
119
 20
107.44016
 30
0
 11
119.1456996302205
 21
106.56516
 31
0
 12
118.8543003697795
 22
106.56516
 32
0
 13
118.8543003697795
 23
106.56516
 33
0
  0
SOLID
  5
DC
100
AcDbEntity
  8
dim
  6
ByBlock
 62
    0
370
   -2
100
AcDbTrace
 10
119
 20
103.19016
 30
0
 11
118.8543003697795
 21
104.06516
 31
0
 12
119.1456996302205
 22
104.06516
 32
0
 13
119.1456996302205
 23
104.06516
 33
0
  0
LINE
  5
DD
100
AcDbEntity
  8
dim
  6
ByBlock
 62
    0
370
   -2
100
AcDbLine
 10
120.790159
 20
107.44016
 11
117.375
 21
107.44016
  0
LINE
  5
DE
100
AcDbEntity
  8
dim
  6
ByBlock
 62
    0
370
   -2
100
AcDbLine
 10
120.790159
 20
103.19016
 11
117.375
 21
103.19016
  0
ENDBLK
  5
7B
330
79
100
AcDbEntity
  8
0
100
AcDbBlockEnd
  0
BLOCK
  5
7D
330
7C
100
AcDbEntity
  8
0
100
AcDbBlockBegin
  2
*D3
 70
    1
 10
0
 20
0
  3
*D3
  1

  0
LINE
  5
DF
100
AcDbEntity
  8
dim
  6
ByBlock
 62
    0
370
   -2
100
AcDbLine
 10
119.790159
 20
117
 11
124.790159
 21
117
  0
MTEXT
  5
E0
100
AcDbEntity
  8
dim
  6
CONTINUOUS
 62
    0
370
   -2
100
AcDbMText
 10
122.290159
 20
117.9375
 30
0
 40
0.875
 41
0.6234861111111112
 71
    5
 72
    1
  1
5
  7
cursive
210
0
220
0
230
1
 50
0
 73
    2
 44
1
  0
SOLID
  5
E1
100
AcDbEntity
  8
dim
  6
ByBlock
 62
    0
370
   -2
100
AcDbTrace
 10
119.790159
 20
117
 30
0
 11
120.665159
 21
117.1456996302205
 31
0
 12
120.665159
 22
116.8543003697795
 32
0
 13
120.665159
 23
116.8543003697795
 33
0
  0
SOLID
  5
E2
100
AcDbEntity
  8
dim
  6
ByBlock
 62
    0
370
   -2
100
AcDbTrace
 10
124.790159
 20
117
 30
0
 11
123.915159
 21
116.8543003697795
 31
0
 12
123.915159
 22
117.1456996302205
 32
0
 13
123.915159
 23
117.1456996302205
 33
0
  0
LINE
  5
E3
100
AcDbEntity
  8
dim
  6
ByBlock
 62
    0
370
   -2
100
AcDbLine
 10
119.790159
 20
113.54016
 11
119.790159
 21
118.625
  0
LINE
  5
E4
100
AcDbEntity
  8
dim
  6
ByBlock
 62
    0
370
   -2
100
AcDbLine
 10
124.790159
 20
116.0326634100131
 11
124.790159
 21
118.625
  0
ENDBLK
  5
7E
330
7C
100
AcDbEntity
  8
0
100
AcDbBlockEnd
  0
BLOCK
  5
80
330
7F
100
AcDbEntity
  8
0
100
AcDbBlockBegin
  2
*D8
 70
    1
 10
0
 20
0
  3
*D8
  1

  0
LINE
  5
E5
100
AcDbEntity
  8
dim
  6
ByBlock
 62
    0
370
   -2
100
AcDbLine
 10
141
 20
103.04016
 11
141
 21
105.31516
  0
MTEXT
  5
E6
100
AcDbEntity
  8
dim
  6
CONTINUOUS
 62
    0
370
   -2
100
AcDbMText
 10
140.0625
 20
104.17766
 30
0
 40
0.875
 41
1.7530585299083
 71
    5
 72
    1
  1
2.3
  7
cursive
210
0
220
0
230
1
 50
90
 73
    2
 44
1
  0
SOLID
  5
E7
100
AcDbEntity
  8
dim
  6
ByBlock
 62
    0
370
   -2
100
AcDbTrace
 10
141
 20
103.04016
 30
0
 11
140.8543003697795
 21
103.91516
 31
0
 12
141.1456996302205
 22
103.91516
 32
0
 13
141.1456996302205
 23
103.91516
 33
0
  0
SOLID
  5
E8
100
AcDbEntity
  8
dim
  6
ByBlock
 62
    0
370
   -2
100
AcDbTrace
 10
141
 20
105.31516
 30
0
 11
141.1456996302205
 21
104.44016
 31
0
 12
140.8543003697795
 22
104.44016
 32
0
 13
140.8543003697795
 23
104.44016
 33
0
  0
LINE
  5
E9
100
AcDbEntity
  8
dim
  6
ByBlock
 62
    0
370
   -2
100
AcDbLine
 10
136.890159
 20
103.04016
 11
142.625
 21
103.04016
  0
LINE
  5
EA
100
AcDbEntity
  8
dim
  6
ByBlock
 62
    0
370
   -2
100
AcDbLine
 10
139.785159
 20
105.31516
 11
142.625
 21
105.31516
  0
ENDBLK
  5
81
330
7F
100
AcDbEntity
  8
0
100
AcDbBlockEnd
  0
BLOCK
  5
83
330
82
100
AcDbEntity
  8
0
100
AcDbBlockBegin
  2
*D10
 70
    1
 10
0
 20
0
  3
*D10
  1

  0
LINE
  5
EB
100
AcDbEntity
  8
dim
  6
ByBlock
 62
    0
370
   -2
100
AcDbLine
 10
136.390159
 20
101
 11
139.285159
 21
101
  0
MTEXT
  5
EC
100
AcDbEntity
  8
dim
  6
CONTINUOUS
 62
    0
370
   -2
100
AcDbMText
 10
137.837659
 20
101.9375
 30
0
 40
0.875
 41
1.646688588909285
 71
    5
 72
    1
  1
2.9
  7
cursive
210
0
220
0
230
1
 50
0
 73
    2
 44
1
  0
SOLID
  5
ED
100
AcDbEntity
  8
dim
  6
ByBlock
 62
    0
370
   -2
100
AcDbTrace
 10
136.390159
 20
101
 30
0
 11
137.265159
 21
101.1456996302205
 31
0
 12
137.265159
 22
100.8543003697795
 32
0
 13
137.265159
 23
100.8543003697795
 33
0
  0
SOLID
  5
EE
100
AcDbEntity
  8
dim
  6
ByBlock
 62
    0
370
   -2
100
AcDbTrace
 10
139.285159
 20
101
 30
0
 11
138.410159
 21
100.8543003697795
 31
0
 12
138.410159
 22
101.1456996302205
 32
0
 13
138.410159
 23
101.1456996302205
 33
0
  0
LINE
  5
EF
100
AcDbEntity
  8
dim
  6
ByBlock
 62
    0
370
   -2
100
AcDbLine
 10
136.390159
 20
102.54016
 11
136.390159
 21
99.375
  0
LINE
  5
F0
100
AcDbEntity
  8
dim
  6
ByBlock
 62
    0
370
   -2
100
AcDbLine
 10
139.285159
 20
102.69016
 11
139.285159
 21
99.375
  0
ENDBLK
  5
84
330
82
100
AcDbEntity
  8
0
100
AcDbBlockEnd
  0
BLOCK
  5
86
330
85
100
AcDbEntity
  8
0
100
AcDbBlockBegin
  2
*D5
 70
    1
 10
0
 20
0
  3
*D5
  1

  0
LINE
  5
F1
100
AcDbEntity
  8
dim
  6
ByBlock
 62
    0
370
   -2
100
AcDbLine
 10
119
 20
111.84016
 11
119
 21
108.64016
  0
MTEXT
  5
F2
100
AcDbEntity
  8
dim
  6
CONTINUOUS
 62
    0
370
   -2
100
AcDbMText
 10
118.0625
 20
110.24016
 30
0
 40
0.875
 41
1.753058529908299
 71
    5
 72
    1
  1
3.2
  7
cursive
210
0
220
0
230
1
 50
90
 73
    2
 44
1
  0
SOLID
  5
F3
100
AcDbEntity
  8
dim
  6
ByBlock
 62
    0
370
   -2
100
AcDbTrace
 10
119
 20
111.84016
 30
0
 11
119.1456996302205
 21
110.96516
 31
0
 12
118.8543003697795
 22
110.96516
 32
0
 13
118.8543003697795
 23
110.96516
 33
0
  0
SOLID
  5
F4
100
AcDbEntity
  8
dim
  6
ByBlock
 62
    0
370
   -2
100
AcDbTrace
 10
119
 20
108.64016
 30
0
 11
118.8543003697795
 21
109.51516
 31
0
 12
119.1456996302205
 22
109.51516
 32
0
 13
119.1456996302205
 23
109.51516
 33
0
  0
LINE
  5
F5
100
AcDbEntity
  8
dim
  6
ByBlock
 62
    0
370
   -2
100
AcDbLine
 10
122.190159
 20
111.84016
 11
117.375
 21
111.84016
  0
LINE
  5
F6
100
AcDbEntity
  8
dim
  6
ByBlock
 62
    0
370
   -2
100
AcDbLine
 10
122.190159
 20
108.64016
 11
117.375
 21
108.64016
  0
ENDBLK
  5
87
330
85
100
AcDbEntity
  8
0
100
AcDbBlockEnd
  0
BLOCK
  5
89
330
88
100
AcDbEntity
  8
0
100
AcDbBlockBegin
  2
Wireling_Accelerometer_AST1001_REV1-DETAILED_DRAWING-DXF
 70
    0
 10
0
 20
0
  3
Wireling_Accelerometer_AST1001_REV1-DETAILED_DRAWING-DXF
  1

  0
ENDBLK
  5
8A
330
88
100
AcDbEntity
  8
0
100
AcDbBlockEnd
  0
BLOCK
  5
8C
330
8B
100
AcDbEntity
  8
0
100
AcDbBlockBegin
  2
Wireling_BUTTON_AST1015_REV1-DETAILED_DRAWING-DXF
 70
    0
 10
0
 20
0
  3
Wireling_BUTTON_AST1015_REV1-DETAILED_DRAWING-DXF
  1

  0
LINE
  5
F7
100
AcDbEntity
  8
ProjItem
  6
ByLayer
 62
  256
370
   -1
100
AcDbLine
 10
122.6
 20
111.75
 11
123.34
 21
111.75
  0
LINE
  5
F8
100
AcDbEntity
  8
ProjItem
  6
ByLayer
 62
  256
370
   -1
100
AcDbLine
 10
126.06
 20
111.75
 11
126.8
 21
111.75
  0
LINE
  5
F9
100
AcDbEntity
  8
ProjItem
  6
ByLayer
 62
  256
370
   -1
100
AcDbLine
 10
126.8
 20
111.75
 11
126.8
 21
111.01
  0
LINE
  5
FA
100
AcDbEntity
  8
ProjItem
  6
ByLayer
 62
  256
370
   -1
100
AcDbLine
 10
126.8
 20
109.29
 11
126.8
 21
108.55
  0
LINE
  5
FB
100
AcDbEntity
  8
ProjItem
  6
ByLayer
 62
  256
370
   -1
100
AcDbLine
 10
122.6
 20
111.01
 11
122.6
 21
111.75
  0
LINE
  5
FC
100
AcDbEntity
  8
ProjItem
  6
ByLayer
 62
  256
370
   -1
100
AcDbLine
 10
123.34
 20
111.75
 11
126.06
 21
111.75
  0
LINE
  5
FD
100
AcDbEntity
  8
ProjItem
  6
ByLayer
 62
  256
370
   -1
100
AcDbLine
 10
122.6
 20
108.55
 11
122.6
 21
109.29
  0
LINE
  5
FE
100
AcDbEntity
  8
ProjItem
  6
ByLayer
 62
  256
370
   -1
100
AcDbLine
 10
126.8
 20
108.55
 11
126.06
 21
108.55
  0
LINE
  5
FF
100
AcDbEntity
  8
ProjItem
  6
ByLayer
 62
  256
370
   -1
100
AcDbLine
 10
123.34
 20
108.55
 11
122.6
 21
108.55
  0
LINE
  5
100
100
AcDbEntity
  8
ProjItem
  6
ByLayer
 62
  256
370
   -1
100
AcDbLine
 10
126.8
 20
111.01
 11
126.8
 21
109.29
  0
LINE
  5
101
100
AcDbEntity
  8
ProjItem
  6
ByLayer
 62
  256
370
   -1
100
AcDbLine
 10
126.8
 20
109.35
 11
126.849
 21
109.35
  0
LINE
  5
102
100
AcDbEntity
  8
ProjItem
  6
ByLayer
 62
  256
370
   -1
100
AcDbLine
 10
126.849
 20
109.35
 11
126.948
 21
109.35
  0
LINE
  5
103
100
AcDbEntity
  8
ProjItem
  6
ByLayer
 62
  256
370
   -1
100
AcDbLine
 10
126.8
 20
108.8
 11
126.849
 21
108.8
  0
LINE
  5
104
100
AcDbEntity
  8
ProjItem
  6
ByLayer
 62
  256
370
   -1
100
AcDbLine
 10
126.849
 20
109.35
 11
126.849
 21
108.8
  0
LINE
  5
105
100
AcDbEntity
  8
ProjItem
  6
ByLayer
 62
  256
370
   -1
100
AcDbLine
 10
126.849
 20
108.8
 11
126.948
 21
108.8
  0
LINE
  5
106
100
AcDbEntity
  8
ProjItem
  6
ByLayer
 62
  256
370
   -1
100
AcDbLine
 10
126.8
 20
111.5
 11
126.849
 21
111.5
  0
LINE
  5
107
100
AcDbEntity
  8
ProjItem
  6
ByLayer
 62
  256
370
   -1
100
AcDbLine
 10
126.849
 20
111.5
 11
126.948
 21
111.5
  0
LINE
  5
108
100
AcDbEntity
  8
ProjItem
  6
ByLayer
 62
  256
370
   -1
100
AcDbLine
 10
126.8
 20
110.95
 11
126.849
 21
110.95
  0
LINE
  5
109
100
AcDbEntity
  8
ProjItem
  6
ByLayer
 62
  256
370
   -1
100
AcDbLine
 10
126.849
 20
111.5
 11
126.849
 21
110.95
  0
LINE
  5
10A
100
AcDbEntity
  8
ProjItem
  6
ByLayer
 62
  256
370
   -1
100
AcDbLine
 10
126.849
 20
110.95
 11
126.948
 21
110.95
  0
LINE
  5
10B
100
AcDbEntity
  8
ProjItem
  6
ByLayer
 62
  256
370
   -1
100
AcDbLine
 10
122.6
 20
111.01
 11
122.65
 21
111.01
  0
LINE
  5
10C
100
AcDbEntity
  8
ProjItem
  6
ByLayer
 62
  256
370
   -1
100
AcDbLine
 10
122.65
 20
111.523
 11
122.65
 21
110.893
  0
LINE
  5
10D
100
AcDbEntity
  8
ProjItem
  6
ByLayer
 62
  256
370
   -1
100
AcDbLine
 10
122.827
 20
111.7
 11
122.65
 21
111.523
  0
LINE
  5
10E
100
AcDbEntity
  8
ProjItem
  6
ByLayer
 62
  256
370
   -1
100
AcDbLine
 10
123.457
 20
111.7
 11
122.827
 21
111.7
  0
LINE
  5
10F
100
AcDbEntity
  8
ProjItem
  6
ByLayer
 62
  256
370
   -1
100
AcDbLine
 10
123.34
 20
111.75
 11
123.34
 21
111.7
  0
LINE
  5
110
100
AcDbEntity
  8
ProjItem
  6
ByLayer
 62
  256
370
   -1
100
AcDbLine
 10
126.06
 20
111.75
 11
126.06
 21
111.7
  0
LINE
  5
111
100
AcDbEntity
  8
ProjItem
  6
ByLayer
 62
  256
370
   -1
100
AcDbLine
 10
122.6
 20
109.29
 11
122.65
 21
109.29
  0
LINE
  5
112
100
AcDbEntity
  8
ProjItem
  6
ByLayer
 62
  256
370
   -1
100
AcDbLine
 10
122.6
 20
109.29
 11
122.6
 21
111.01
  0
LINE
  5
113
100
AcDbEntity
  8
ProjItem
  6
ByLayer
 62
  256
370
   -1
100
AcDbLine
 10
126.75
 20
111.01
 11
126.8
 21
111.01
  0
LINE
  5
114
100
AcDbEntity
  8
ProjItem
  6
ByLayer
 62
  256
370
   -1
100
AcDbLine
 10
126.75
 20
109.29
 11
126.8
 21
109.29
  0
LINE
  5
115
100
AcDbEntity
  8
ProjItem
  6
ByLayer
 62
  256
370
   -1
100
AcDbLine
 10
126.06
 20
108.55
 11
126.06
 21
108.6
  0
LINE
  5
116
100
AcDbEntity
  8
ProjItem
  6
ByLayer
 62
  256
370
   -1
100
AcDbLine
 10
126.06
 20
108.55
 11
123.34
 21
108.55
  0
LINE
  5
117
100
AcDbEntity
  8
ProjItem
  6
ByLayer
 62
  256
370
   -1
100
AcDbLine
 10
123.34
 20
108.55
 11
123.34
 21
108.6
  0
LINE
  5
118
100
AcDbEntity
  8
ProjItem
  6
ByLayer
 62
  256
370
   -1
100
AcDbLine
 10
126.75
 20
110.893
 11
126.75
 21
111.523
  0
LINE
  5
119
100
AcDbEntity
  8
ProjItem
  6
ByLayer
 62
  256
370
   -1
100
AcDbLine
 10
126.75
 20
111.523
 11
126.573
 21
111.7
  0
LINE
  5
11A
100
AcDbEntity
  8
ProjItem
  6
ByLayer
 62
  256
370
   -1
100
AcDbLine
 10
126.573
 20
111.7
 11
125.943
 21
111.7
  0
LINE
  5
11B
100
AcDbEntity
  8
ProjItem
  6
ByLayer
 62
  256
370
   -1
100
AcDbLine
 10
122.6
 20
109.35
 11
122.551
 21
109.35
  0
LINE
  5
11C
100
AcDbEntity
  8
ProjItem
  6
ByLayer
 62
  256
370
   -1
100
AcDbLine
 10
122.551
 20
109.35
 11
122.452
 21
109.35
  0
LINE
  5
11D
100
AcDbEntity
  8
ProjItem
  6
ByLayer
 62
  256
370
   -1
100
AcDbLine
 10
122.6
 20
108.8
 11
122.551
 21
108.8
  0
LINE
  5
11E
100
AcDbEntity
  8
ProjItem
  6
ByLayer
 62
  256
370
   -1
100
AcDbLine
 10
122.551
 20
108.8
 11
122.452
 21
108.8
  0
LINE
  5
11F
100
AcDbEntity
  8
ProjItem
  6
ByLayer
 62
  256
370
   -1
100
AcDbLine
 10
122.551
 20
109.35
 11
122.551
 21
108.8
  0
LINE
  5
120
100
AcDbEntity
  8
ProjItem
  6
ByLayer
 62
  256
370
   -1
100
AcDbLine
 10
122.6
 20
110.95
 11
122.551
 21
110.95
  0
LINE
  5
121
100
AcDbEntity
  8
ProjItem
  6
ByLayer
 62
  256
370
   -1
100
AcDbLine
 10
122.551
 20
110.95
 11
122.452
 21
110.95
  0
LINE
  5
122
100
AcDbEntity
  8
ProjItem
  6
ByLayer
 62
  256
370
   -1
100
AcDbLine
 10
122.551
 20
111.5
 11
122.551
 21
110.95
  0
LINE
  5
123
100
AcDbEntity
  8
ProjItem
  6
ByLayer
 62
  256
370
   -1
100
AcDbLine
 10
122.6
 20
111.5
 11
122.551
 21
111.5
  0
LINE
  5
124
100
AcDbEntity
  8
ProjItem
  6
ByLayer
 62
  256
370
   -1
100
AcDbLine
 10
122.551
 20
111.5
 11
122.452
 21
111.5
  0
LINE
  5
125
100
AcDbEntity
  8
ProjItem
  6
ByLayer
 62
  256
370
   -1
100
AcDbLine
 10
126.75
 20
108.777
 11
126.75
 21
109.407
  0
LINE
  5
126
100
AcDbEntity
  8
ProjItem
  6
ByLayer
 62
  256
370
   -1
100
AcDbLine
 10
126.573
 20
108.6
 11
126.75
 21
108.777
  0
LINE
  5
127
100
AcDbEntity
  8
ProjItem
  6
ByLayer
 62
  256
370
   -1
100
AcDbLine
 10
125.943
 20
108.6
 11
126.573
 21
108.6
  0
LINE
  5
128
100
AcDbEntity
  8
ProjItem
  6
ByLayer
 62
  256
370
   -1
100
AcDbLine
 10
126.948
 20
109.35
 11
126.948
 21
108.8
  0
LINE
  5
129
100
AcDbEntity
  8
ProjItem
  6
ByLayer
 62
  256
370
   -1
100
AcDbLine
 10
126.948
 20
111.5
 11
126.948
 21
110.95
  0
LINE
  5
12A
100
AcDbEntity
  8
ProjItem
  6
ByLayer
 62
  256
370
   -1
100
AcDbLine
 10
122.65
 20
110.893
 11
122.9
 21
110.893
  0
LINE
  5
12B
100
AcDbEntity
  8
ProjItem
  6
ByLayer
 62
  256
370
   -1
100
AcDbLine
 10
123.457
 20
111.7
 11
123.457
 21
111.45
  0
LINE
  5
12C
100
AcDbEntity
  8
ProjItem
  6
ByLayer
 62
  256
370
   -1
100
AcDbLine
 10
122.9
 20
110.893
 11
123.457
 21
111.45
  0
LINE
  5
12D
100
AcDbEntity
  8
ProjItem
  6
ByLayer
 62
  256
370
   -1
100
AcDbLine
 10
122.65
 20
109.407
 11
122.65
 21
108.777
  0
LINE
  5
12E
100
AcDbEntity
  8
ProjItem
  6
ByLayer
 62
  256
370
   -1
100
AcDbLine
 10
122.65
 20
109.407
 11
122.9
 21
109.407
  0
LINE
  5
12F
100
AcDbEntity
  8
ProjItem
  6
ByLayer
 62
  256
370
   -1
100
AcDbLine
 10
122.9
 20
109.407
 11
123.457
 21
108.85
  0
LINE
  5
130
100
AcDbEntity
  8
ProjItem
  6
ByLayer
 62
  256
370
   -1
100
AcDbLine
 10
123.457
 20
108.6
 11
123.457
 21
108.85
  0
LINE
  5
131
100
AcDbEntity
  8
ProjItem
  6
ByLayer
 62
  256
370
   -1
100
AcDbLine
 10
122.827
 20
108.6
 11
123.457
 21
108.6
  0
LINE
  5
132
100
AcDbEntity
  8
ProjItem
  6
ByLayer
 62
  256
370
   -1
100
AcDbLine
 10
125.943
 20
108.6
 11
125.943
 21
108.85
  0
LINE
  5
133
100
AcDbEntity
  8
ProjItem
  6
ByLayer
 62
  256
370
   -1
100
AcDbLine
 10
125.943
 20
108.85
 11
126.5
 21
109.407
  0
LINE
  5
134
100
AcDbEntity
  8
ProjItem
  6
ByLayer
 62
  256
370
   -1
100
AcDbLine
 10
126.5
 20
109.407
 11
126.75
 21
109.407
  0
LINE
  5
135
100
AcDbEntity
  8
ProjItem
  6
ByLayer
 62
  256
370
   -1
100
AcDbLine
 10
126.5
 20
110.893
 11
126.75
 21
110.893
  0
LINE
  5
136
100
AcDbEntity
  8
ProjItem
  6
ByLayer
 62
  256
370
   -1
100
AcDbLine
 10
125.943
 20
111.45
 11
126.5
 21
110.893
  0
LINE
  5
137
100
AcDbEntity
  8
ProjItem
  6
ByLayer
 62
  256
370
   -1
100
AcDbLine
 10
125.943
 20
111.7
 11
125.943
 21
111.45
  0
LINE
  5
138
100
AcDbEntity
  8
ProjItem
  6
ByLayer
 62
  256
370
   -1
100
AcDbLine
 10
124.3
 20
111.25
 11
125.1
 21
111.25
  0
ARC
  5
139
100
AcDbEntity
  8
ProjItem
  6
ByLayer
 62
  256
370
   -1
100
AcDbCircle
 10
124.3
 20
110.15
 40
1.1
100
AcDbArc
 50
90
 51
-90
  0
ARC
  5
13A
100
AcDbEntity
  8
ProjItem
  6
ByLayer
 62
  256
370
   -1
100
AcDbCircle
 10
125.1
 20
110.15
 40
1.1
100
AcDbArc
 50
-90
 51
90
  0
LINE
  5
13B
100
AcDbEntity
  8
ProjItem
  6
ByLayer
 62
  256
370
   -1
100
AcDbLine
 10
124.3
 20
109.05
 11
125.1
 21
109.05
  0
LINE
  5
13C
100
AcDbEntity
  8
ProjItem
  6
ByLayer
 62
  256
370
   -1
100
AcDbLine
 10
122.65
 20
108.777
 11
122.827
 21
108.6
  0
LINE
  5
13D
100
AcDbEntity
  8
ProjItem
  6
ByLayer
 62
  256
370
   -1
100
AcDbLine
 10
122.452
 20
109.35
 11
122.452
 21
108.8
  0
LINE
  5
13E
100
AcDbEntity
  8
ProjItem
  6
ByLayer
 62
  256
370
   -1
100
AcDbLine
 10
122.452
 20
111.5
 11
122.452
 21
110.95
  0
LINE
  5
13F
100
AcDbEntity
  8
ProjItem
  6
ByLayer
 62
  256
370
   -1
100
AcDbLine
 10
129.05
 20
106.55
 11
128.55
 21
106.55
  0
LINE
  5
140
100
AcDbEntity
  8
ProjItem
  6
ByLayer
 62
  256
370
   -1
100
AcDbLine
 10
128.55
 20
106.55
 11
128.55
 21
106.35
  0
LINE
  5
141
100
AcDbEntity
  8
ProjItem
  6
ByLayer
 62
  256
370
   -1
100
AcDbLine
 10
129.05
 20
106.35
 11
128.55
 21
106.35
  0
LINE
  5
142
100
AcDbEntity
  8
ProjItem
  6
ByLayer
 62
  256
370
   -1
100
AcDbLine
 10
129.05
 20
106.55
 11
129.05
 21
106.35
  0
LINE
  5
143
100
AcDbEntity
  8
ProjItem
  6
ByLayer
 62
  256
370
   -1
100
AcDbLine
 10
129.05
 20
107.15
 11
128.55
 21
107.15
  0
LINE
  5
144
100
AcDbEntity
  8
ProjItem
  6
ByLayer
 62
  256
370
   -1
100
AcDbLine
 10
128.55
 20
107.15
 11
128.55
 21
107.35
  0
LINE
  5
145
100
AcDbEntity
  8
ProjItem
  6
ByLayer
 62
  256
370
   -1
100
AcDbLine
 10
129.05
 20
107.35
 11
128.55
 21
107.35
  0
LINE
  5
146
100
AcDbEntity
  8
ProjItem
  6
ByLayer
 62
  256
370
   -1
100
AcDbLine
 10
129.05
 20
107.15
 11
129.05
 21
107.35
  0
LINE
  5
147
100
AcDbEntity
  8
ProjItem
  6
ByLayer
 62
  256
370
   -1
100
AcDbLine
 10
129.05
 20
107.15
 11
128.55
 21
107.15
  0
LINE
  5
148
100
AcDbEntity
  8
ProjItem
  6
ByLayer
 62
  256
370
   -1
100
AcDbLine
 10
128.55
 20
107.15
 11
128.55
 21
106.55
  0
LINE
  5
149
100
AcDbEntity
  8
ProjItem
  6
ByLayer
 62
  256
370
   -1
100
AcDbLine
 10
129.05
 20
106.55
 11
128.55
 21
106.55
  0
LINE
  5
14A
100
AcDbEntity
  8
ProjItem
  6
ByLayer
 62
  256
370
   -1
100
AcDbLine
 10
129.05
 20
107.15
 11
129.05
 21
106.55
  0
LINE
  5
14B
100
AcDbEntity
  8
ProjItem
  6
ByLayer
 62
  256
370
   -1
100
AcDbLine
 10
124
 20
107.35
 11
124
 21
108.25
  0
LINE
  5
14C
100
AcDbEntity
  8
ProjItem
  6
ByLayer
 62
  256
370
   -1
100
AcDbLine
 10
124
 20
108.25
 11
123.4
 21
108.25
  0
LINE
  5
14D
100
AcDbEntity
  8
ProjItem
  6
ByLayer
 62
  256
370
   -1
100
AcDbLine
 10
123.4
 20
108.25
 11
123.4
 21
107.35
  0
LINE
  5
14E
100
AcDbEntity
  8
ProjItem
  6
ByLayer
 62
  256
370
   -1
100
AcDbLine
 10
121.2
 20
104.55
 11
121.004
 21
104.55
  0
CIRCLE
  5
14F
100
AcDbEntity
  8
ProjItem
  6
ByLayer
 62
  256
370
   -1
100
AcDbCircle
 10
121.004
 20
104.546
 40
0.004
  0
LINE
  5
150
100
AcDbEntity
  8
ProjItem
  6
ByLayer
 62
  256
370
   -1
100
AcDbLine
 10
121
 20
104.546
 11
121
 21
103.154
  0
CIRCLE
  5
151
100
AcDbEntity
  8
ProjItem
  6
ByLayer
 62
  256
370
   -1
100
AcDbCircle
 10
121.004
 20
103.154
 40
0.004
  0
LINE
  5
152
100
AcDbEntity
  8
ProjItem
  6
ByLayer
 62
  256
370
   -1
100
AcDbLine
 10
121.004
 20
103.15
 11
121.2
 21
103.15
  0
LINE
  5
153
100
AcDbEntity
  8
ProjItem
  6
ByLayer
 62
  256
370
   -1
100
AcDbLine
 10
128.4
 20
103.15
 11
128.4
 21
104.55
  0
LINE
  5
154
100
AcDbEntity
  8
ProjItem
  6
ByLayer
 62
  256
370
   -1
100
AcDbLine
 10
128.4
 20
104.55
 11
128.2
 21
104.55
  0
LINE
  5
155
100
AcDbEntity
  8
ProjItem
  6
ByLayer
 62
  256
370
   -1
100
AcDbLine
 10
128.2
 20
103.15
 11
128.4
 21
103.15
  0
LINE
  5
156
100
AcDbEntity
  8
ProjItem
  6
ByLayer
 62
  256
370
   -1
100
AcDbLine
 10
125
 20
107.35
 11
125
 21
108.25
  0
LINE
  5
157
100
AcDbEntity
  8
ProjItem
  6
ByLayer
 62
  256
370
   -1
100
AcDbLine
 10
125
 20
108.25
 11
124.4
 21
108.25
  0
LINE
  5
158
100
AcDbEntity
  8
ProjItem
  6
ByLayer
 62
  256
370
   -1
100
AcDbLine
 10
124.4
 20
108.25
 11
124.4
 21
107.35
  0
LINE
  5
159
100
AcDbEntity
  8
ProjItem
  6
ByLayer
 62
  256
370
   -1
100
AcDbLine
 10
126
 20
107.35
 11
126
 21
108.25
  0
LINE
  5
15A
100
AcDbEntity
  8
ProjItem
  6
ByLayer
 62
  256
370
   -1
100
AcDbLine
 10
126
 20
108.25
 11
125.4
 21
108.25
  0
LINE
  5
15B
100
AcDbEntity
  8
ProjItem
  6
ByLayer
 62
  256
370
   -1
100
AcDbLine
 10
125.4
 20
108.25
 11
125.4
 21
107.35
  0
LINE
  5
15C
100
AcDbEntity
  8
ProjItem
  6
ByLayer
 62
  256
370
   -1
100
AcDbLine
 10
127
 20
107.35
 11
127
 21
108.25
  0
LINE
  5
15D
100
AcDbEntity
  8
ProjItem
  6
ByLayer
 62
  256
370
   -1
100
AcDbLine
 10
127
 20
108.25
 11
126.4
 21
108.25
  0
LINE
  5
15E
100
AcDbEntity
  8
ProjItem
  6
ByLayer
 62
  256
370
   -1
100
AcDbLine
 10
126.4
 20
108.25
 11
126.4
 21
107.35
  0
LINE
  5
15F
100
AcDbEntity
  8
ProjItem
  6
ByLayer
 62
  256
370
   -1
100
AcDbLine
 10
123
 20
107.35
 11
123
 21
108.25
  0
LINE
  5
160
100
AcDbEntity
  8
ProjItem
  6
ByLayer
 62
  256
370
   -1
100
AcDbLine
 10
123
 20
108.25
 11
122.4
 21
108.25
  0
LINE
  5
161
100
AcDbEntity
  8
ProjItem
  6
ByLayer
 62
  256
370
   -1
100
AcDbLine
 10
122.4
 20
108.25
 11
122.4
 21
107.35
  0
LINE
  5
162
100
AcDbEntity
  8
ProjItem
  6
ByLayer
 62
  256
370
   -1
100
AcDbLine
 10
128.525
 20
107.775
 11
128.525
 21
107.125
  0
LINE
  5
163
100
AcDbEntity
  8
ProjItem
  6
ByLayer
 62
  256
370
   -1
100
AcDbLine
 10
128.525
 20
107.125
 11
128.55
 21
107.125
  0
LINE
  5
164
100
AcDbEntity
  8
ProjItem
  6
ByLayer
 62
  256
370
   -1
100
AcDbLine
 10
129.05
 20
107.125
 11
129.075
 21
107.125
  0
LINE
  5
165
100
AcDbEntity
  8
ProjItem
  6
ByLayer
 62
  256
370
   -1
100
AcDbLine
 10
129.075
 20
107.125
 11
129.075
 21
107.775
  0
LINE
  5
166
100
AcDbEntity
  8
ProjItem
  6
ByLayer
 62
  256
370
   -1
100
AcDbLine
 10
129.075
 20
107.775
 11
128.525
 21
107.775
  0
LINE
  5
167
100
AcDbEntity
  8
ProjItem
  6
ByLayer
 62
  256
370
   -1
100
AcDbLine
 10
128.525
 20
106.575
 11
128.525
 21
105.925
  0
LINE
  5
168
100
AcDbEntity
  8
ProjItem
  6
ByLayer
 62
  256
370
   -1
100
AcDbLine
 10
128.525
 20
105.925
 11
129.075
 21
105.925
  0
LINE
  5
169
100
AcDbEntity
  8
ProjItem
  6
ByLayer
 62
  256
370
   -1
100
AcDbLine
 10
129.075
 20
105.925
 11
129.075
 21
106.575
  0
LINE
  5
16A
100
AcDbEntity
  8
ProjItem
  6
ByLayer
 62
  256
370
   -1
100
AcDbLine
 10
129.075
 20
106.575
 11
129.05
 21
106.575
  0
LINE
  5
16B
100
AcDbEntity
  8
ProjItem
  6
ByLayer
 62
  256
370
   -1
100
AcDbLine
 10
128.55
 20
106.575
 11
128.525
 21
106.575
  0
LINE
  5
16C
100
AcDbEntity
  8
ProjItem
  6
ByLayer
 62
  256
370
   -1
100
AcDbLine
 10
122.2
 20
108.7
 11
122.6
 21
108.7
  0
LINE
  5
16D
100
AcDbEntity
  8
ProjItem
  6
ByLayer
 62
  256
370
   -1
100
AcDbLine
 10
122.6
 20
109.4
 11
122.2
 21
109.4
  0
LINE
  5
16E
100
AcDbEntity
  8
ProjItem
  6
ByLayer
 62
  256
370
   -1
100
AcDbLine
 10
122.2
 20
109.4
 11
122.2
 21
108.7
  0
LINE
  5
16F
100
AcDbEntity
  8
ProjItem
  6
ByLayer
 62
  256
370
   -1
100
AcDbLine
 10
122.2
 20
110.9
 11
122.6
 21
110.9
  0
LINE
  5
170
100
AcDbEntity
  8
ProjItem
  6
ByLayer
 62
  256
370
   -1
100
AcDbLine
 10
122.6
 20
111.6
 11
122.2
 21
111.6
  0
LINE
  5
171
100
AcDbEntity
  8
ProjItem
  6
ByLayer
 62
  256
370
   -1
100
AcDbLine
 10
122.2
 20
111.6
 11
122.2
 21
110.9
  0
LINE
  5
172
100
AcDbEntity
  8
ProjItem
  6
ByLayer
 62
  256
370
   -1
100
AcDbLine
 10
126.8
 20
108.7
 11
127.2
 21
108.7
  0
LINE
  5
173
100
AcDbEntity
  8
ProjItem
  6
ByLayer
 62
  256
370
   -1
100
AcDbLine
 10
127.2
 20
108.7
 11
127.2
 21
109.4
  0
LINE
  5
174
100
AcDbEntity
  8
ProjItem
  6
ByLayer
 62
  256
370
   -1
100
AcDbLine
 10
127.2
 20
109.4
 11
126.8
 21
109.4
  0
LINE
  5
175
100
AcDbEntity
  8
ProjItem
  6
ByLayer
 62
  256
370
   -1
100
AcDbLine
 10
126.8
 20
110.9
 11
127.2
 21
110.9
  0
LINE
  5
176
100
AcDbEntity
  8
ProjItem
  6
ByLayer
 62
  256
370
   -1
100
AcDbLine
 10
127.2
 20
110.9
 11
127.2
 21
111.6
  0
LINE
  5
177
100
AcDbEntity
  8
ProjItem
  6
ByLayer
 62
  256
370
   -1
100
AcDbLine
 10
127.2
 20
111.6
 11
126.8
 21
111.6
  0
LINE
  5
178
100
AcDbEntity
  8
ProjItem
  6
ByLayer
 62
  256
370
   -1
100
AcDbLine
 10
124
 20
107.35
 11
124
 21
108.25
  0
LINE
  5
179
100
AcDbEntity
  8
ProjItem
  6
ByLayer
 62
  256
370
   -1
100
AcDbLine
 10
124
 20
108.25
 11
123.4
 21
108.25
  0
LINE
  5
17A
100
AcDbEntity
  8
ProjItem
  6
ByLayer
 62
  256
370
   -1
100
AcDbLine
 10
123.4
 20
108.25
 11
123.4
 21
107.35
  0
LINE
  5
17B
100
AcDbEntity
  8
ProjItem
  6
ByLayer
 62
  256
370
   -1
100
AcDbLine
 10
121.2
 20
104.55
 11
121.004
 21
104.55
  0
CIRCLE
  5
17C
100
AcDbEntity
  8
ProjItem
  6
ByLayer
 62
  256
370
   -1
100
AcDbCircle
 10
121.004
 20
104.546
 40
0.004
  0
LINE
  5
17D
100
AcDbEntity
  8
ProjItem
  6
ByLayer
 62
  256
370
   -1
100
AcDbLine
 10
121
 20
104.546
 11
121
 21
103.154
  0
CIRCLE
  5
17E
100
AcDbEntity
  8
ProjItem
  6
ByLayer
 62
  256
370
   -1
100
AcDbCircle
 10
121.004
 20
103.154
 40
0.004
  0
LINE
  5
17F
100
AcDbEntity
  8
ProjItem
  6
ByLayer
 62
  256
370
   -1
100
AcDbLine
 10
121.004
 20
103.15
 11
121.2
 21
103.15
  0
LINE
  5
180
100
AcDbEntity
  8
ProjItem
  6
ByLayer
 62
  256
370
   -1
100
AcDbLine
 10
128.4
 20
103.15
 11
128.4
 21
104.55
  0
LINE
  5
181
100
AcDbEntity
  8
ProjItem
  6
ByLayer
 62
  256
370
   -1
100
AcDbLine
 10
128.4
 20
104.55
 11
128.2
 21
104.55
  0
LINE
  5
182
100
AcDbEntity
  8
ProjItem
  6
ByLayer
 62
  256
370
   -1
100
AcDbLine
 10
128.2
 20
103.15
 11
128.4
 21
103.15
  0
LINE
  5
183
100
AcDbEntity
  8
ProjItem
  6
ByLayer
 62
  256
370
   -1
100
AcDbLine
 10
125
 20
107.35
 11
125
 21
108.25
  0
LINE
  5
184
100
AcDbEntity
  8
ProjItem
  6
ByLayer
 62
  256
370
   -1
100
AcDbLine
 10
125
 20
108.25
 11
124.4
 21
108.25
  0
LINE
  5
185
100
AcDbEntity
  8
ProjItem
  6
ByLayer
 62
  256
370
   -1
100
AcDbLine
 10
124.4
 20
108.25
 11
124.4
 21
107.35
  0
LINE
  5
186
100
AcDbEntity
  8
ProjItem
  6
ByLayer
 62
  256
370
   -1
100
AcDbLine
 10
126
 20
107.35
 11
126
 21
108.25
  0
LINE
  5
187
100
AcDbEntity
  8
ProjItem
  6
ByLayer
 62
  256
370
   -1
100
AcDbLine
 10
126
 20
108.25
 11
125.4
 21
108.25
  0
LINE
  5
188
100
AcDbEntity
  8
ProjItem
  6
ByLayer
 62
  256
370
   -1
100
AcDbLine
 10
125.4
 20
108.25
 11
125.4
 21
107.35
  0
LINE
  5
189
100
AcDbEntity
  8
ProjItem
  6
ByLayer
 62
  256
370
   -1
100
AcDbLine
 10
127
 20
107.35
 11
127
 21
108.25
  0
LINE
  5
18A
100
AcDbEntity
  8
ProjItem
  6
ByLayer
 62
  256
370
   -1
100
AcDbLine
 10
127
 20
108.25
 11
126.4
 21
108.25
  0
LINE
  5
18B
100
AcDbEntity
  8
ProjItem
  6
ByLayer
 62
  256
370
   -1
100
AcDbLine
 10
126.4
 20
108.25
 11
126.4
 21
107.35
  0
LINE
  5
18C
100
AcDbEntity
  8
ProjItem
  6
ByLayer
 62
  256
370
   -1
100
AcDbLine
 10
123
 20
107.35
 11
123
 21
108.25
  0
LINE
  5
18D
100
AcDbEntity
  8
ProjItem
  6
ByLayer
 62
  256
370
   -1
100
AcDbLine
 10
123
 20
108.25
 11
122.4
 21
108.25
  0
LINE
  5
18E
100
AcDbEntity
  8
ProjItem
  6
ByLayer
 62
  256
370
   -1
100
AcDbLine
 10
122.4
 20
108.25
 11
122.4
 21
107.35
  0
LINE
  5
18F
100
AcDbEntity
  8
ProjItem
  6
ByLayer
 62
  256
370
   -1
100
AcDbLine
 10
128.525
 20
107.775
 11
128.525
 21
107.125
  0
LINE
  5
190
100
AcDbEntity
  8
ProjItem
  6
ByLayer
 62
  256
370
   -1
100
AcDbLine
 10
128.525
 20
107.125
 11
128.55
 21
107.125
  0
LINE
  5
191
100
AcDbEntity
  8
ProjItem
  6
ByLayer
 62
  256
370
   -1
100
AcDbLine
 10
129.05
 20
107.125
 11
129.075
 21
107.125
  0
LINE
  5
192
100
AcDbEntity
  8
ProjItem
  6
ByLayer
 62
  256
370
   -1
100
AcDbLine
 10
129.075
 20
107.125
 11
129.075
 21
107.775
  0
LINE
  5
193
100
AcDbEntity
  8
ProjItem
  6
ByLayer
 62
  256
370
   -1
100
AcDbLine
 10
129.075
 20
107.775
 11
128.525
 21
107.775
  0
LINE
  5
194
100
AcDbEntity
  8
ProjItem
  6
ByLayer
 62
  256
370
   -1
100
AcDbLine
 10
128.525
 20
106.575
 11
128.525
 21
105.925
  0
LINE
  5
195
100
AcDbEntity
  8
ProjItem
  6
ByLayer
 62
  256
370
   -1
100
AcDbLine
 10
128.525
 20
105.925
 11
129.075
 21
105.925
  0
LINE
  5
196
100
AcDbEntity
  8
ProjItem
  6
ByLayer
 62
  256
370
   -1
100
AcDbLine
 10
129.075
 20
105.925
 11
129.075
 21
106.575
  0
LINE
  5
197
100
AcDbEntity
  8
ProjItem
  6
ByLayer
 62
  256
370
   -1
100
AcDbLine
 10
129.075
 20
106.575
 11
129.05
 21
106.575
  0
LINE
  5
198
100
AcDbEntity
  8
ProjItem
  6
ByLayer
 62
  256
370
   -1
100
AcDbLine
 10
128.55
 20
106.575
 11
128.525
 21
106.575
  0
LINE
  5
199
100
AcDbEntity
  8
ProjItem
  6
ByLayer
 62
  256
370
   -1
100
AcDbLine
 10
122.2
 20
108.7
 11
122.6
 21
108.7
  0
LINE
  5
19A
100
AcDbEntity
  8
ProjItem
  6
ByLayer
 62
  256
370
   -1
100
AcDbLine
 10
122.6
 20
109.4
 11
122.2
 21
109.4
  0
LINE
  5
19B
100
AcDbEntity
  8
ProjItem
  6
ByLayer
 62
  256
370
   -1
100
AcDbLine
 10
122.2
 20
109.4
 11
122.2
 21
108.7
  0
LINE
  5
19C
100
AcDbEntity
  8
ProjItem
  6
ByLayer
 62
  256
370
   -1
100
AcDbLine
 10
122.2
 20
110.9
 11
122.6
 21
110.9
  0
LINE
  5
19D
100
AcDbEntity
  8
ProjItem
  6
ByLayer
 62
  256
370
   -1
100
AcDbLine
 10
122.6
 20
111.6
 11
122.2
 21
111.6
  0
LINE
  5
19E
100
AcDbEntity
  8
ProjItem
  6
ByLayer
 62
  256
370
   -1
100
AcDbLine
 10
122.2
 20
111.6
 11
122.2
 21
110.9
  0
LINE
  5
19F
100
AcDbEntity
  8
ProjItem
  6
ByLayer
 62
  256
370
   -1
100
AcDbLine
 10
126.8
 20
108.7
 11
127.2
 21
108.7
  0
LINE
  5
1A0
100
AcDbEntity
  8
ProjItem
  6
ByLayer
 62
  256
370
   -1
100
AcDbLine
 10
127.2
 20
108.7
 11
127.2
 21
109.4
  0
LINE
  5
1A1
100
AcDbEntity
  8
ProjItem
  6
ByLayer
 62
  256
370
   -1
100
AcDbLine
 10
127.2
 20
109.4
 11
126.8
 21
109.4
  0
LINE
  5
1A2
100
AcDbEntity
  8
ProjItem
  6
ByLayer
 62
  256
370
   -1
100
AcDbLine
 10
126.8
 20
110.9
 11
127.2
 21
110.9
  0
LINE
  5
1A3
100
AcDbEntity
  8
ProjItem
  6
ByLayer
 62
  256
370
   -1
100
AcDbLine
 10
127.2
 20
110.9
 11
127.2
 21
111.6
  0
LINE
  5
1A4
100
AcDbEntity
  8
ProjItem
  6
ByLayer
 62
  256
370
   -1
100
AcDbLine
 10
127.2
 20
111.6
 11
126.8
 21
111.6
  0
LINE
  5
1A5
100
AcDbEntity
  8
ProjItem
  6
ByLayer
 62
  256
370
   -1
100
AcDbLine
 10
119.7
 20
102.95
 11
129.7
 21
102.95
  0
LINE
  5
1A6
100
AcDbEntity
  8
ProjItem
  6
ByLayer
 62
  256
370
   -1
100
AcDbLine
 10
119.7
 20
112.95
 11
119.7
 21
102.95
  0
LINE
  5
1A7
100
AcDbEntity
  8
ProjItem
  6
ByLayer
 62
  256
370
   -1
100
AcDbLine
 10
129.7
 20
102.95
 11
129.7
 21
112.95
  0
LINE
  5
1A8
100
AcDbEntity
  8
ProjItem
  6
ByLayer
 62
  256
370
   -1
100
AcDbLine
 10
129.7
 20
112.95
 11
119.7
 21
112.95
  0
CIRCLE
  5
1A9
100
AcDbEntity
  8
ProjItem
  6
ByLayer
 62
  256
370
   -1
100
AcDbCircle
 10
121.2
 20
111.45
 40
0.751
  0
CIRCLE
  5
1AA
100
AcDbEntity
  8
ProjItem
  6
ByLayer
 62
  256
370
   -1
100
AcDbCircle
 10
128.2
 20
111.45
 40
0.751
  0
LINE
  5
1AB
100
AcDbEntity
  8
ProjItem
  6
ByLayer
 62
  256
370
   -1
100
AcDbLine
 10
119.7
 20
102.95
 11
129.7
 21
102.95
  0
LINE
  5
1AC
100
AcDbEntity
  8
ProjItem
  6
ByLayer
 62
  256
370
   -1
100
AcDbLine
 10
119.7
 20
112.95
 11
119.7
 21
102.95
  0
LINE
  5
1AD
100
AcDbEntity
  8
ProjItem
  6
ByLayer
 62
  256
370
   -1
100
AcDbLine
 10
129.7
 20
102.95
 11
129.7
 21
112.95
  0
LINE
  5
1AE
100
AcDbEntity
  8
ProjItem
  6
ByLayer
 62
  256
370
   -1
100
AcDbLine
 10
129.7
 20
112.95
 11
119.7
 21
112.95
  0
CIRCLE
  5
1AF
100
AcDbEntity
  8
ProjItem
  6
ByLayer
 62
  256
370
   -1
100
AcDbCircle
 10
121.2
 20
111.45
 40
0.751
  0
CIRCLE
  5
1B0
100
AcDbEntity
  8
ProjItem
  6
ByLayer
 62
  256
370
   -1
100
AcDbCircle
 10
128.2
 20
111.45
 40
0.751
  0
LINE
  5
1B1
100
AcDbEntity
  8
ProjItem
  6
ByLayer
 62
  256
370
   -1
100
AcDbLine
 10
128.2
 20
103.1
 11
121.2
 21
103.1
  0
LINE
  5
1B2
100
AcDbEntity
  8
ProjItem
  6
ByLayer
 62
  256
370
   -1
100
AcDbLine
 10
121.2
 20
106.151
 11
121.2
 21
103.1
  0
LINE
  5
1B3
100
AcDbEntity
  8
ProjItem
  6
ByLayer
 62
  256
370
   -1
100
AcDbLine
 10
121.7
 20
106.151
 11
121.2
 21
106.151
  0
LINE
  5
1B4
100
AcDbEntity
  8
ProjItem
  6
ByLayer
 62
  256
370
   -1
100
AcDbLine
 10
121.7
 20
106.151
 11
121.7
 21
106.8
  0
LINE
  5
1B5
100
AcDbEntity
  8
ProjItem
  6
ByLayer
 62
  256
370
   -1
100
AcDbLine
 10
127.7
 20
106.8
 11
121.7
 21
106.8
  0
LINE
  5
1B6
100
AcDbEntity
  8
ProjItem
  6
ByLayer
 62
  256
370
   -1
100
AcDbLine
 10
127.7
 20
106.151
 11
127.7
 21
106.8
  0
LINE
  5
1B7
100
AcDbEntity
  8
ProjItem
  6
ByLayer
 62
  256
370
   -1
100
AcDbLine
 10
128.2
 20
106.151
 11
127.7
 21
106.151
  0
LINE
  5
1B8
100
AcDbEntity
  8
ProjItem
  6
ByLayer
 62
  256
370
   -1
100
AcDbLine
 10
128.2
 20
103.1
 11
128.2
 21
106.151
  0
LINE
  5
1B9
100
AcDbEntity
  8
ProjItem
  6
ByLayer
 62
  256
370
   -1
100
AcDbLine
 10
128.2
 20
106.151
 11
128.2
 21
106.8
  0
LINE
  5
1BA
100
AcDbEntity
  8
ProjItem
  6
ByLayer
 62
  256
370
   -1
100
AcDbLine
 10
128.2
 20
106.8
 11
128.2
 21
107.35
  0
LINE
  5
1BB
100
AcDbEntity
  8
ProjItem
  6
ByLayer
 62
  256
370
   -1
100
AcDbLine
 10
121.2
 20
106.8
 11
121.2
 21
107.35
  0
LINE
  5
1BC
100
AcDbEntity
  8
ProjItem
  6
ByLayer
 62
  256
370
   -1
100
AcDbLine
 10
121.2
 20
106.151
 11
121.2
 21
106.8
  0
LINE
  5
1BD
100
AcDbEntity
  8
ProjItem
  6
ByLayer
 62
  256
370
   -1
100
AcDbLine
 10
127.7
 20
106.8
 11
128.2
 21
106.8
  0
LINE
  5
1BE
100
AcDbEntity
  8
ProjItem
  6
ByLayer
 62
  256
370
   -1
100
AcDbLine
 10
127.7
 20
107.35
 11
128.2
 21
107.35
  0
LINE
  5
1BF
100
AcDbEntity
  8
ProjItem
  6
ByLayer
 62
  256
370
   -1
100
AcDbLine
 10
121.7
 20
107.35
 11
127.7
 21
107.35
  0
LINE
  5
1C0
100
AcDbEntity
  8
ProjItem
  6
ByLayer
 62
  256
370
   -1
100
AcDbLine
 10
121.7
 20
107.35
 11
121.2
 21
107.35
  0
LINE
  5
1C1
100
AcDbEntity
  8
ProjItem
  6
ByLayer
 62
  256
370
   -1
100
AcDbLine
 10
121.7
 20
106.8
 11
121.2
 21
106.8
  0
LINE
  5
1C2
100
AcDbEntity
  8
ProjItem
  6
ByLayer
 62
  256
370
   -1
100
AcDbLine
 10
121.7
 20
107.35
 11
121.7
 21
106.8
  0
LINE
  5
1C3
100
AcDbEntity
  8
ProjItem
  6
ByLayer
 62
  256
370
   -1
100
AcDbLine
 10
127.7
 20
107.35
 11
127.7
 21
106.8
  0
LINE
  5
1C4
100
AcDbEntity
  8
ProjItem
  6
ByLayer
 62
  256
370
   -1
100
AcDbLine
 10
122.8
 20
107.35
 11
122.8
 21
108.05
  0
LINE
  5
1C5
100
AcDbEntity
  8
ProjItem
  6
ByLayer
 62
  256
370
   -1
100
AcDbLine
 10
122.6
 20
108.05
 11
122.8
 21
108.05
  0
LINE
  5
1C6
100
AcDbEntity
  8
ProjItem
  6
ByLayer
 62
  256
370
   -1
100
AcDbLine
 10
122.6
 20
107.35
 11
122.6
 21
108.05
  0
LINE
  5
1C7
100
AcDbEntity
  8
ProjItem
  6
ByLayer
 62
  256
370
   -1
100
AcDbLine
 10
126.8
 20
107.35
 11
126.8
 21
108.05
  0
LINE
  5
1C8
100
AcDbEntity
  8
ProjItem
  6
ByLayer
 62
  256
370
   -1
100
AcDbLine
 10
126.6
 20
108.05
 11
126.8
 21
108.05
  0
LINE
  5
1C9
100
AcDbEntity
  8
ProjItem
  6
ByLayer
 62
  256
370
   -1
100
AcDbLine
 10
126.6
 20
107.35
 11
126.6
 21
108.05
  0
LINE
  5
1CA
100
AcDbEntity
  8
ProjItem
  6
ByLayer
 62
  256
370
   -1
100
AcDbLine
 10
125.8
 20
107.35
 11
125.8
 21
108.05
  0
LINE
  5
1CB
100
AcDbEntity
  8
ProjItem
  6
ByLayer
 62
  256
370
   -1
100
AcDbLine
 10
125.8
 20
108.05
 11
125.6
 21
108.05
  0
LINE
  5
1CC
100
AcDbEntity
  8
ProjItem
  6
ByLayer
 62
  256
370
   -1
100
AcDbLine
 10
125.6
 20
108.05
 11
125.6
 21
107.35
  0
LINE
  5
1CD
100
AcDbEntity
  8
ProjItem
  6
ByLayer
 62
  256
370
   -1
100
AcDbLine
 10
124.8
 20
107.35
 11
124.8
 21
108.05
  0
LINE
  5
1CE
100
AcDbEntity
  8
ProjItem
  6
ByLayer
 62
  256
370
   -1
100
AcDbLine
 10
124.8
 20
108.05
 11
124.6
 21
108.05
  0
LINE
  5
1CF
100
AcDbEntity
  8
ProjItem
  6
ByLayer
 62
  256
370
   -1
100
AcDbLine
 10
124.6
 20
108.05
 11
124.6
 21
107.35
  0
LINE
  5
1D0
100
AcDbEntity
  8
ProjItem
  6
ByLayer
 62
  256
370
   -1
100
AcDbLine
 10
123.8
 20
107.35
 11
123.8
 21
108.05
  0
LINE
  5
1D1
100
AcDbEntity
  8
ProjItem
  6
ByLayer
 62
  256
370
   -1
100
AcDbLine
 10
123.8
 20
108.05
 11
123.6
 21
108.05
  0
LINE
  5
1D2
100
AcDbEntity
  8
ProjItem
  6
ByLayer
 62
  256
370
   -1
100
AcDbLine
 10
123.6
 20
108.05
 11
123.6
 21
107.35
  0
LINE
  5
1D3
100
AcDbEntity
  8
ProjItem
  6
ByLayer
 62
  256
370
   -1
100
AcDbLine
 10
128.2
 20
103.1
 11
121.2
 21
103.1
  0
LINE
  5
1D4
100
AcDbEntity
  8
ProjItem
  6
ByLayer
 62
  256
370
   -1
100
AcDbLine
 10
121.2
 20
106.151
 11
121.2
 21
103.1
  0
LINE
  5
1D5
100
AcDbEntity
  8
ProjItem
  6
ByLayer
 62
  256
370
   -1
100
AcDbLine
 10
121.7
 20
106.151
 11
121.2
 21
106.151
  0
LINE
  5
1D6
100
AcDbEntity
  8
ProjItem
  6
ByLayer
 62
  256
370
   -1
100
AcDbLine
 10
121.7
 20
106.151
 11
121.7
 21
106.8
  0
LINE
  5
1D7
100
AcDbEntity
  8
ProjItem
  6
ByLayer
 62
  256
370
   -1
100
AcDbLine
 10
127.7
 20
106.8
 11
121.7
 21
106.8
  0
LINE
  5
1D8
100
AcDbEntity
  8
ProjItem
  6
ByLayer
 62
  256
370
   -1
100
AcDbLine
 10
127.7
 20
106.151
 11
127.7
 21
106.8
  0
LINE
  5
1D9
100
AcDbEntity
  8
ProjItem
  6
ByLayer
 62
  256
370
   -1
100
AcDbLine
 10
128.2
 20
106.151
 11
127.7
 21
106.151
  0
LINE
  5
1DA
100
AcDbEntity
  8
ProjItem
  6
ByLayer
 62
  256
370
   -1
100
AcDbLine
 10
128.2
 20
103.1
 11
128.2
 21
106.151
  0
LINE
  5
1DB
100
AcDbEntity
  8
ProjItem
  6
ByLayer
 62
  256
370
   -1
100
AcDbLine
 10
128.2
 20
106.151
 11
128.2
 21
106.8
  0
LINE
  5
1DC
100
AcDbEntity
  8
ProjItem
  6
ByLayer
 62
  256
370
   -1
100
AcDbLine
 10
128.2
 20
106.8
 11
128.2
 21
107.35
  0
LINE
  5
1DD
100
AcDbEntity
  8
ProjItem
  6
ByLayer
 62
  256
370
   -1
100
AcDbLine
 10
121.2
 20
106.8
 11
121.2
 21
107.35
  0
LINE
  5
1DE
100
AcDbEntity
  8
ProjItem
  6
ByLayer
 62
  256
370
   -1
100
AcDbLine
 10
121.2
 20
106.151
 11
121.2
 21
106.8
  0
LINE
  5
1DF
100
AcDbEntity
  8
ProjItem
  6
ByLayer
 62
  256
370
   -1
100
AcDbLine
 10
127.7
 20
106.8
 11
128.2
 21
106.8
  0
LINE
  5
1E0
100
AcDbEntity
  8
ProjItem
  6
ByLayer
 62
  256
370
   -1
100
AcDbLine
 10
127.7
 20
107.35
 11
128.2
 21
107.35
  0
LINE
  5
1E1
100
AcDbEntity
  8
ProjItem
  6
ByLayer
 62
  256
370
   -1
100
AcDbLine
 10
121.7
 20
107.35
 11
127.7
 21
107.35
  0
LINE
  5
1E2
100
AcDbEntity
  8
ProjItem
  6
ByLayer
 62
  256
370
   -1
100
AcDbLine
 10
121.7
 20
107.35
 11
121.2
 21
107.35
  0
LINE
  5
1E3
100
AcDbEntity
  8
ProjItem
  6
ByLayer
 62
  256
370
   -1
100
AcDbLine
 10
121.7
 20
106.8
 11
121.2
 21
106.8
  0
LINE
  5
1E4
100
AcDbEntity
  8
ProjItem
  6
ByLayer
 62
  256
370
   -1
100
AcDbLine
 10
121.7
 20
107.35
 11
121.7
 21
106.8
  0
LINE
  5
1E5
100
AcDbEntity
  8
ProjItem
  6
ByLayer
 62
  256
370
   -1
100
AcDbLine
 10
127.7
 20
107.35
 11
127.7
 21
106.8
  0
LINE
  5
1E6
100
AcDbEntity
  8
ProjItem
  6
ByLayer
 62
  256
370
   -1
100
AcDbLine
 10
122.8
 20
107.35
 11
122.8
 21
108.05
  0
LINE
  5
1E7
100
AcDbEntity
  8
ProjItem
  6
ByLayer
 62
  256
370
   -1
100
AcDbLine
 10
122.6
 20
108.05
 11
122.8
 21
108.05
  0
LINE
  5
1E8
100
AcDbEntity
  8
ProjItem
  6
ByLayer
 62
  256
370
   -1
100
AcDbLine
 10
122.6
 20
107.35
 11
122.6
 21
108.05
  0
LINE
  5
1E9
100
AcDbEntity
  8
ProjItem
  6
ByLayer
 62
  256
370
   -1
100
AcDbLine
 10
126.8
 20
107.35
 11
126.8
 21
108.05
  0
LINE
  5
1EA
100
AcDbEntity
  8
ProjItem
  6
ByLayer
 62
  256
370
   -1
100
AcDbLine
 10
126.6
 20
108.05
 11
126.8
 21
108.05
  0
LINE
  5
1EB
100
AcDbEntity
  8
ProjItem
  6
ByLayer
 62
  256
370
   -1
100
AcDbLine
 10
126.6
 20
107.35
 11
126.6
 21
108.05
  0
LINE
  5
1EC
100
AcDbEntity
  8
ProjItem
  6
ByLayer
 62
  256
370
   -1
100
AcDbLine
 10
125.8
 20
107.35
 11
125.8
 21
108.05
  0
LINE
  5
1ED
100
AcDbEntity
  8
ProjItem
  6
ByLayer
 62
  256
370
   -1
100
AcDbLine
 10
125.8
 20
108.05
 11
125.6
 21
108.05
  0
LINE
  5
1EE
100
AcDbEntity
  8
ProjItem
  6
ByLayer
 62
  256
370
   -1
100
AcDbLine
 10
125.6
 20
108.05
 11
125.6
 21
107.35
  0
LINE
  5
1EF
100
AcDbEntity
  8
ProjItem
  6
ByLayer
 62
  256
370
   -1
100
AcDbLine
 10
124.8
 20
107.35
 11
124.8
 21
108.05
  0
LINE
  5
1F0
100
AcDbEntity
  8
ProjItem
  6
ByLayer
 62
  256
370
   -1
100
AcDbLine
 10
124.8
 20
108.05
 11
124.6
 21
108.05
  0
LINE
  5
1F1
100
AcDbEntity
  8
ProjItem
  6
ByLayer
 62
  256
370
   -1
100
AcDbLine
 10
124.6
 20
108.05
 11
124.6
 21
107.35
  0
LINE
  5
1F2
100
AcDbEntity
  8
ProjItem
  6
ByLayer
 62
  256
370
   -1
100
AcDbLine
 10
123.8
 20
107.35
 11
123.8
 21
108.05
  0
LINE
  5
1F3
100
AcDbEntity
  8
ProjItem
  6
ByLayer
 62
  256
370
   -1
100
AcDbLine
 10
123.8
 20
108.05
 11
123.6
 21
108.05
  0
LINE
  5
1F4
100
AcDbEntity
  8
ProjItem
  6
ByLayer
 62
  256
370
   -1
100
AcDbLine
 10
123.6
 20
108.05
 11
123.6
 21
107.35
  0
LINE
  5
1F5
100
AcDbEntity
  8
ProjItem001
  6
ByLayer
 62
  256
370
   -1
100
AcDbLine
 10
135.3
 20
111.75
 11
136.75
 21
111.75
  0
LINE
  5
1F6
100
AcDbEntity
  8
ProjItem001
  6
ByLayer
 62
  256
370
   -1
100
AcDbLine
 10
135.37
 20
109.35
 11
135.37
 21
108.8
  0
LINE
  5
1F7
100
AcDbEntity
  8
ProjItem001
  6
ByLayer
 62
  256
370
   -1
100
AcDbLine
 10
135.37
 20
111.5
 11
135.37
 21
110.95
  0
LINE
  5
1F8
100
AcDbEntity
  8
ProjItem001
  6
ByLayer
 62
  256
370
   -1
100
AcDbLine
 10
136.75
 20
111.01
 11
136.75
 21
111.75
  0
LINE
  5
1F9
100
AcDbEntity
  8
ProjItem001
  6
ByLayer
 62
  256
370
   -1
100
AcDbLine
 10
136.85
 20
111.75
 11
136.75
 21
111.75
  0
LINE
  5
1FA
100
AcDbEntity
  8
ProjItem001
  6
ByLayer
 62
  256
370
   -1
100
AcDbLine
 10
135.3
 20
108.55
 11
136.75
 21
108.55
  0
LINE
  5
1FB
100
AcDbEntity
  8
ProjItem001
  6
ByLayer
 62
  256
370
   -1
100
AcDbLine
 10
136.75
 20
108.55
 11
136.75
 21
109.29
  0
LINE
  5
1FC
100
AcDbEntity
  8
ProjItem001
  6
ByLayer
 62
  256
370
   -1
100
AcDbLine
 10
135.37
 20
109.35
 11
135.37
 21
108.8
  0
LINE
  5
1FD
100
AcDbEntity
  8
ProjItem001
  6
ByLayer
 62
  256
370
   -1
100
AcDbLine
 10
135.37
 20
111.5
 11
135.37
 21
110.95
  0
LINE
  5
1FE
100
AcDbEntity
  8
ProjItem001
  6
ByLayer
 62
  256
370
   -1
100
AcDbLine
 10
136.85
 20
111.01
 11
136.75
 21
111.01
  0
LINE
  5
1FF
100
AcDbEntity
  8
ProjItem001
  6
ByLayer
 62
  256
370
   -1
100
AcDbLine
 10
136.85
 20
110.893
 11
137.15
 21
110.893
  0
LINE
  5
200
100
AcDbEntity
  8
ProjItem001
  6
ByLayer
 62
  256
370
   -1
100
AcDbLine
 10
137.15
 20
111.523
 11
137.15
 21
110.893
  0
LINE
  5
201
100
AcDbEntity
  8
ProjItem001
  6
ByLayer
 62
  256
370
   -1
100
AcDbLine
 10
137.15
 20
111.523
 11
136.75
 21
111.523
  0
LINE
  5
202
100
AcDbEntity
  8
ProjItem001
  6
ByLayer
 62
  256
370
   -1
100
AcDbLine
 10
137.15
 20
111.7
 11
137.15
 21
111.523
  0
LINE
  5
203
100
AcDbEntity
  8
ProjItem001
  6
ByLayer
 62
  256
370
   -1
100
AcDbLine
 10
137.15
 20
111.7
 11
136.75
 21
111.7
  0
LINE
  5
204
100
AcDbEntity
  8
ProjItem001
  6
ByLayer
 62
  256
370
   -1
100
AcDbLine
 10
136.85
 20
111.75
 11
136.85
 21
111.7
  0
LINE
  5
205
100
AcDbEntity
  8
ProjItem001
  6
ByLayer
 62
  256
370
   -1
100
AcDbLine
 10
136.85
 20
109.29
 11
136.85
 21
111.01
  0
LINE
  5
206
100
AcDbEntity
  8
ProjItem001
  6
ByLayer
 62
  256
370
   -1
100
AcDbLine
 10
136.85
 20
108.55
 11
136.85
 21
108.6
  0
LINE
  5
207
100
AcDbEntity
  8
ProjItem001
  6
ByLayer
 62
  256
370
   -1
100
AcDbLine
 10
136.85
 20
109.29
 11
136.75
 21
109.29
  0
SPLINE
  5
208
100
AcDbEntity
  8
ProjItem001
  6
ByLayer
 62
  256
370
   -1
100
AcDbSpline
210
0
220
0
230
0
 70
    8
 71
    3
 72
    8
 73
    4
 74
    0
 42
1e-07
 43
1e-07
 40
3.26726
 40
3.26726
 40
3.26726
 40
3.26726
 40
4.71239
 40
4.71239
 40
4.71239
 40
4.71239
 10
135.457
 20
109.35
 30
0
 10
135.409
 20
109.35
 30
0
 10
135.369
 20
109.35
 30
0
 10
135.37
 20
109.35
 30
0
  0
SPLINE
  5
209
100
AcDbEntity
  8
ProjItem001
  6
ByLayer
 62
  256
370
   -1
100
AcDbSpline
210
0
220
0
230
0
 70
    8
 71
    3
 72
    8
 73
    4
 74
    0
 42
1e-07
 43
1e-07
 40
3.26726
 40
3.26726
 40
3.26726
 40
3.26726
 40
4.71239
 40
4.71239
 40
4.71239
 40
4.71239
 10
135.457
 20
108.8
 30
0
 10
135.409
 20
108.8
 30
0
 10
135.369
 20
108.8
 30
0
 10
135.37
 20
108.8
 30
0
  0
LINE
  5
20A
100
AcDbEntity
  8
ProjItem001
  6
ByLayer
 62
  256
370
   -1
100
AcDbLine
 10
135.857
 20
109.35
 11
135.844
 21
109.35
  0
LINE
  5
20B
100
AcDbEntity
  8
ProjItem001
  6
ByLayer
 62
  256
370
   -1
100
AcDbLine
 10
135.844
 20
109.35
 11
135.457
 21
109.35
  0
LINE
  5
20C
100
AcDbEntity
  8
ProjItem001
  6
ByLayer
 62
  256
370
   -1
100
AcDbLine
 10
135.857
 20
108.8
 11
135.844
 21
108.8
  0
LINE
  5
20D
100
AcDbEntity
  8
ProjItem001
  6
ByLayer
 62
  256
370
   -1
100
AcDbLine
 10
135.844
 20
108.8
 11
135.457
 21
108.8
  0
LINE
  5
20E
100
AcDbEntity
  8
ProjItem001
  6
ByLayer
 62
  256
370
   -1
100
AcDbLine
 10
135.857
 20
109.35
 11
135.857
 21
108.8
  0
SPLINE
  5
20F
100
AcDbEntity
  8
ProjItem001
  6
ByLayer
 62
  256
370
   -1
100
AcDbSpline
210
0
220
0
230
0
 70
    8
 71
    3
 72
    8
 73
    4
 74
    0
 42
1e-07
 43
1e-07
 40
3.26726
 40
3.26726
 40
3.26726
 40
3.26726
 40
4.71239
 40
4.71239
 40
4.71239
 40
4.71239
 10
135.457
 20
111.5
 30
0
 10
135.409
 20
111.5
 30
0
 10
135.369
 20
111.5
 30
0
 10
135.37
 20
111.5
 30
0
  0
SPLINE
  5
210
100
AcDbEntity
  8
ProjItem001
  6
ByLayer
 62
  256
370
   -1
100
AcDbSpline
210
0
220
0
230
0
 70
    8
 71
    3
 72
    8
 73
    4
 74
    0
 42
1e-07
 43
1e-07
 40
3.26726
 40
3.26726
 40
3.26726
 40
3.26726
 40
4.71239
 40
4.71239
 40
4.71239
 40
4.71239
 10
135.457
 20
110.95
 30
0
 10
135.409
 20
110.95
 30
0
 10
135.369
 20
110.95
 30
0
 10
135.37
 20
110.95
 30
0
  0
LINE
  5
211
100
AcDbEntity
  8
ProjItem001
  6
ByLayer
 62
  256
370
   -1
100
AcDbLine
 10
135.857
 20
110.95
 11
135.844
 21
110.95
  0
LINE
  5
212
100
AcDbEntity
  8
ProjItem001
  6
ByLayer
 62
  256
370
   -1
100
AcDbLine
 10
135.844
 20
110.95
 11
135.457
 21
110.95
  0
LINE
  5
213
100
AcDbEntity
  8
ProjItem001
  6
ByLayer
 62
  256
370
   -1
100
AcDbLine
 10
135.857
 20
111.5
 11
135.857
 21
110.95
  0
LINE
  5
214
100
AcDbEntity
  8
ProjItem001
  6
ByLayer
 62
  256
370
   -1
100
AcDbLine
 10
135.857
 20
111.5
 11
135.844
 21
111.5
  0
LINE
  5
215
100
AcDbEntity
  8
ProjItem001
  6
ByLayer
 62
  256
370
   -1
100
AcDbLine
 10
135.844
 20
111.5
 11
135.457
 21
111.5
  0
LINE
  5
216
100
AcDbEntity
  8
ProjItem001
  6
ByLayer
 62
  256
370
   -1
100
AcDbLine
 10
136.85
 20
108.55
 11
136.75
 21
108.55
  0
LINE
  5
217
100
AcDbEntity
  8
ProjItem001
  6
ByLayer
 62
  256
370
   -1
100
AcDbLine
 10
136.85
 20
109.407
 11
137.15
 21
109.407
  0
LINE
  5
218
100
AcDbEntity
  8
ProjItem001
  6
ByLayer
 62
  256
370
   -1
100
AcDbLine
 10
137.15
 20
109.407
 11
137.15
 21
108.777
  0
LINE
  5
219
100
AcDbEntity
  8
ProjItem001
  6
ByLayer
 62
  256
370
   -1
100
AcDbLine
 10
136.75
 20
108.777
 11
137.15
 21
108.777
  0
LINE
  5
21A
100
AcDbEntity
  8
ProjItem001
  6
ByLayer
 62
  256
370
   -1
100
AcDbLine
 10
137.15
 20
108.6
 11
136.75
 21
108.6
  0
LINE
  5
21B
100
AcDbEntity
  8
ProjItem001
  6
ByLayer
 62
  256
370
   -1
100
AcDbLine
 10
137.15
 20
111.25
 11
137.8
 21
111.25
  0
LINE
  5
21C
100
AcDbEntity
  8
ProjItem001
  6
ByLayer
 62
  256
370
   -1
100
AcDbLine
 10
137.15
 20
111.25
 11
137.8
 21
111.25
  0
LINE
  5
21D
100
AcDbEntity
  8
ProjItem001
  6
ByLayer
 62
  256
370
   -1
100
AcDbLine
 10
137.15
 20
109.05
 11
137.8
 21
109.05
  0
SPLINE
  5
21E
100
AcDbEntity
  8
ProjItem001
  6
ByLayer
 62
  256
370
   -1
100
AcDbSpline
210
0
220
0
230
0
 70
    8
 71
    1
 72
   17
 73
   15
 74
    0
 42
1e-07
 43
1e-07
 40
1.5708
 40
1.5708
 40
1.7952
 40
2.0196
 40
2.24399
 40
2.46839
 40
2.69279
 40
2.91719
 40
3.14159
 40
3.36599
 40
3.59039
 40
3.81479
 40
4.03919
 40
4.26359
 40
4.48799
 40
4.71239
 40
4.71239
 10
137.8
 20
111.25
 30
0
 10
137.8
 20
111.222
 30
0
 10
137.8
 20
111.141
 30
0
 10
137.8
 20
111.01
 30
0
 10
137.8
 20
110.836
 30
0
 10
137.8
 20
110.627
 30
0
 10
137.8
 20
110.395
 30
0
 10
137.8
 20
110.15
 30
0
 10
137.8
 20
109.905
 30
0
 10
137.8
 20
109.673
 30
0
 10
137.8
 20
109.464
 30
0
 10
137.8
 20
109.29
 30
0
 10
137.8
 20
109.159
 30
0
 10
137.8
 20
109.078
 30
0
 10
137.8
 20
109.05
 30
0
  0
LINE
  5
21F
100
AcDbEntity
  8
ProjItem001
  6
ByLayer
 62
  256
370
   -1
100
AcDbLine
 10
137.15
 20
108.777
 11
137.15
 21
108.6
  0
LINE
  5
220
100
AcDbEntity
  8
ProjItem001
  6
ByLayer
 62
  256
370
   -1
100
AcDbLine
 10
135.844
 20
109.35
 11
135.844
 21
108.8
  0
LINE
  5
221
100
AcDbEntity
  8
ProjItem001
  6
ByLayer
 62
  256
370
   -1
100
AcDbLine
 10
135.844
 20
111.5
 11
135.844
 21
110.95
  0
LINE
  5
222
100
AcDbEntity
  8
ProjItem001
  6
ByLayer
 62
  256
370
   -1
100
AcDbLine
 10
135.3
 20
104.55
 11
135.3
 21
104.55
  0
SPLINE
  5
223
100
AcDbEntity
  8
ProjItem001
  6
ByLayer
 62
  256
370
   -1
100
AcDbSpline
210
0
220
0
230
0
 70
    8
 71
    1
 72
    4
 73
    2
 74
    0
 42
1e-07
 43
1e-07
 40
0
 40
0
 40
1.5708
 40
1.5708
 10
135.3
 20
104.55
 30
0
 10
135.3
 20
104.546
 30
0
  0
SPLINE
  5
224
100
AcDbEntity
  8
ProjItem001
  6
ByLayer
 62
  256
370
   -1
100
AcDbSpline
210
0
220
0
230
0
 70
    8
 71
    1
 72
    4
 73
    2
 74
    0
 42
1e-07
 43
1e-07
 40
0
 40
0
 40
1.5708
 40
1.5708
 10
135.3
 20
104.55
 30
0
 10
135.3
 20
104.546
 30
0
  0
LINE
  5
225
100
AcDbEntity
  8
ProjItem001
  6
ByLayer
 62
  256
370
   -1
100
AcDbLine
 10
135.3
 20
104.546
 11
135.3
 21
103.154
  0
LINE
  5
226
100
AcDbEntity
  8
ProjItem001
  6
ByLayer
 62
  256
370
   -1
100
AcDbLine
 10
135.3
 20
104.546
 11
135.3
 21
103.154
  0
SPLINE
  5
227
100
AcDbEntity
  8
ProjItem001
  6
ByLayer
 62
  256
370
   -1
100
AcDbSpline
210
0
220
0
230
0
 70
    8
 71
    1
 72
    4
 73
    2
 74
    0
 42
1e-07
 43
1e-07
 40
0
 40
0
 40
1.5708
 40
1.5708
 10
135.3
 20
103.154
 30
0
 10
135.3
 20
103.15
 30
0
  0
LINE
  5
228
100
AcDbEntity
  8
ProjItem001
  6
ByLayer
 62
  256
370
   -1
100
AcDbLine
 10
135.3
 20
103.15
 11
135.3
 21
103.15
  0
SPLINE
  5
229
100
AcDbEntity
  8
ProjItem001
  6
ByLayer
 62
  256
370
   -1
100
AcDbSpline
210
0
220
0
230
0
 70
    8
 71
    1
 72
    4
 73
    2
 74
    0
 42
1e-07
 43
1e-07
 40
0
 40
0
 40
1.5708
 40
1.5708
 10
135.3
 20
103.154
 30
0
 10
135.3
 20
103.15
 30
0
  0
LINE
  5
22A
100
AcDbEntity
  8
ProjItem001
  6
ByLayer
 62
  256
370
   -1
100
AcDbLine
 10
135.3
 20
108.25
 11
135.3
 21
108.25
  0
LINE
  5
22B
100
AcDbEntity
  8
ProjItem001
  6
ByLayer
 62
  256
370
   -1
100
AcDbLine
 10
135.3
 20
108.25
 11
135.3
 21
107.35
  0
LINE
  5
22C
100
AcDbEntity
  8
ProjItem001
  6
ByLayer
 62
  256
370
   -1
100
AcDbLine
 10
135.3
 20
108.25
 11
135.3
 21
107.35
  0
LINE
  5
22D
100
AcDbEntity
  8
ProjItem001
  6
ByLayer
 62
  256
370
   -1
100
AcDbLine
 10
135.3
 20
108.7
 11
135.3
 21
108.7
  0
LINE
  5
22E
100
AcDbEntity
  8
ProjItem001
  6
ByLayer
 62
  256
370
   -1
100
AcDbLine
 10
135.3
 20
109.4
 11
135.3
 21
109.4
  0
LINE
  5
22F
100
AcDbEntity
  8
ProjItem001
  6
ByLayer
 62
  256
370
   -1
100
AcDbLine
 10
135.3
 20
109.4
 11
135.3
 21
108.7
  0
LINE
  5
230
100
AcDbEntity
  8
ProjItem001
  6
ByLayer
 62
  256
370
   -1
100
AcDbLine
 10
135.3
 20
109.4
 11
135.3
 21
108.7
  0
LINE
  5
231
100
AcDbEntity
  8
ProjItem001
  6
ByLayer
 62
  256
370
   -1
100
AcDbLine
 10
135.3
 20
110.9
 11
135.3
 21
110.9
  0
LINE
  5
232
100
AcDbEntity
  8
ProjItem001
  6
ByLayer
 62
  256
370
   -1
100
AcDbLine
 10
135.3
 20
111.6
 11
135.3
 21
111.6
  0
LINE
  5
233
100
AcDbEntity
  8
ProjItem001
  6
ByLayer
 62
  256
370
   -1
100
AcDbLine
 10
135.3
 20
111.6
 11
135.3
 21
110.9
  0
LINE
  5
234
100
AcDbEntity
  8
ProjItem001
  6
ByLayer
 62
  256
370
   -1
100
AcDbLine
 10
135.3
 20
111.6
 11
135.3
 21
110.9
  0
LINE
  5
235
100
AcDbEntity
  8
ProjItem001
  6
ByLayer
 62
  256
370
   -1
100
AcDbLine
 10
135.3
 20
104.55
 11
135.3
 21
104.55
  0
SPLINE
  5
236
100
AcDbEntity
  8
ProjItem001
  6
ByLayer
 62
  256
370
   -1
100
AcDbSpline
210
0
220
0
230
0
 70
    8
 71
    1
 72
    4
 73
    2
 74
    0
 42
1e-07
 43
1e-07
 40
0
 40
0
 40
1.5708
 40
1.5708
 10
135.3
 20
104.55
 30
0
 10
135.3
 20
104.546
 30
0
  0
SPLINE
  5
237
100
AcDbEntity
  8
ProjItem001
  6
ByLayer
 62
  256
370
   -1
100
AcDbSpline
210
0
220
0
230
0
 70
    8
 71
    1
 72
    4
 73
    2
 74
    0
 42
1e-07
 43
1e-07
 40
0
 40
0
 40
1.5708
 40
1.5708
 10
135.3
 20
104.55
 30
0
 10
135.3
 20
104.546
 30
0
  0
LINE
  5
238
100
AcDbEntity
  8
ProjItem001
  6
ByLayer
 62
  256
370
   -1
100
AcDbLine
 10
135.3
 20
104.546
 11
135.3
 21
103.154
  0
LINE
  5
239
100
AcDbEntity
  8
ProjItem001
  6
ByLayer
 62
  256
370
   -1
100
AcDbLine
 10
135.3
 20
104.546
 11
135.3
 21
103.154
  0
SPLINE
  5
23A
100
AcDbEntity
  8
ProjItem001
  6
ByLayer
 62
  256
370
   -1
100
AcDbSpline
210
0
220
0
230
0
 70
    8
 71
    1
 72
    4
 73
    2
 74
    0
 42
1e-07
 43
1e-07
 40
0
 40
0
 40
1.5708
 40
1.5708
 10
135.3
 20
103.154
 30
0
 10
135.3
 20
103.15
 30
0
  0
LINE
  5
23B
100
AcDbEntity
  8
ProjItem001
  6
ByLayer
 62
  256
370
   -1
100
AcDbLine
 10
135.3
 20
103.15
 11
135.3
 21
103.15
  0
SPLINE
  5
23C
100
AcDbEntity
  8
ProjItem001
  6
ByLayer
 62
  256
370
   -1
100
AcDbSpline
210
0
220
0
230
0
 70
    8
 71
    1
 72
    4
 73
    2
 74
    0
 42
1e-07
 43
1e-07
 40
0
 40
0
 40
1.5708
 40
1.5708
 10
135.3
 20
103.154
 30
0
 10
135.3
 20
103.15
 30
0
  0
LINE
  5
23D
100
AcDbEntity
  8
ProjItem001
  6
ByLayer
 62
  256
370
   -1
100
AcDbLine
 10
135.3
 20
108.25
 11
135.3
 21
108.25
  0
LINE
  5
23E
100
AcDbEntity
  8
ProjItem001
  6
ByLayer
 62
  256
370
   -1
100
AcDbLine
 10
135.3
 20
108.25
 11
135.3
 21
107.35
  0
LINE
  5
23F
100
AcDbEntity
  8
ProjItem001
  6
ByLayer
 62
  256
370
   -1
100
AcDbLine
 10
135.3
 20
108.25
 11
135.3
 21
107.35
  0
LINE
  5
240
100
AcDbEntity
  8
ProjItem001
  6
ByLayer
 62
  256
370
   -1
100
AcDbLine
 10
135.3
 20
108.7
 11
135.3
 21
108.7
  0
LINE
  5
241
100
AcDbEntity
  8
ProjItem001
  6
ByLayer
 62
  256
370
   -1
100
AcDbLine
 10
135.3
 20
109.4
 11
135.3
 21
109.4
  0
LINE
  5
242
100
AcDbEntity
  8
ProjItem001
  6
ByLayer
 62
  256
370
   -1
100
AcDbLine
 10
135.3
 20
109.4
 11
135.3
 21
108.7
  0
LINE
  5
243
100
AcDbEntity
  8
ProjItem001
  6
ByLayer
 62
  256
370
   -1
100
AcDbLine
 10
135.3
 20
109.4
 11
135.3
 21
108.7
  0
LINE
  5
244
100
AcDbEntity
  8
ProjItem001
  6
ByLayer
 62
  256
370
   -1
100
AcDbLine
 10
135.3
 20
110.9
 11
135.3
 21
110.9
  0
LINE
  5
245
100
AcDbEntity
  8
ProjItem001
  6
ByLayer
 62
  256
370
   -1
100
AcDbLine
 10
135.3
 20
111.6
 11
135.3
 21
111.6
  0
LINE
  5
246
100
AcDbEntity
  8
ProjItem001
  6
ByLayer
 62
  256
370
   -1
100
AcDbLine
 10
135.3
 20
111.6
 11
135.3
 21
110.9
  0
LINE
  5
247
100
AcDbEntity
  8
ProjItem001
  6
ByLayer
 62
  256
370
   -1
100
AcDbLine
 10
135.3
 20
111.6
 11
135.3
 21
110.9
  0
LINE
  5
248
100
AcDbEntity
  8
ProjItem001
  6
ByLayer
 62
  256
370
   -1
100
AcDbLine
 10
134.7
 20
102.95
 11
135.3
 21
102.95
  0
LINE
  5
249
100
AcDbEntity
  8
ProjItem001
  6
ByLayer
 62
  256
370
   -1
100
AcDbLine
 10
134.7
 20
112.95
 11
135.3
 21
112.95
  0
LINE
  5
24A
100
AcDbEntity
  8
ProjItem001
  6
ByLayer
 62
  256
370
   -1
100
AcDbLine
 10
135.3
 20
112.95
 11
135.3
 21
102.95
  0
LINE
  5
24B
100
AcDbEntity
  8
ProjItem001
  6
ByLayer
 62
  256
370
   -1
100
AcDbLine
 10
134.7
 20
112.95
 11
134.7
 21
102.95
  0
LINE
  5
24C
100
AcDbEntity
  8
ProjItem001
  6
ByLayer
 62
  256
370
   -1
100
AcDbLine
 10
134.7
 20
102.95
 11
135.3
 21
102.95
  0
LINE
  5
24D
100
AcDbEntity
  8
ProjItem001
  6
ByLayer
 62
  256
370
   -1
100
AcDbLine
 10
134.7
 20
112.95
 11
135.3
 21
112.95
  0
LINE
  5
24E
100
AcDbEntity
  8
ProjItem001
  6
ByLayer
 62
  256
370
   -1
100
AcDbLine
 10
135.3
 20
112.95
 11
135.3
 21
102.95
  0
LINE
  5
24F
100
AcDbEntity
  8
ProjItem001
  6
ByLayer
 62
  256
370
   -1
100
AcDbLine
 10
134.7
 20
112.95
 11
134.7
 21
102.95
  0
LINE
  5
250
100
AcDbEntity
  8
ProjItem001
  6
ByLayer
 62
  256
370
   -1
100
AcDbLine
 10
136.555
 20
103.1
 11
138.195
 21
103.1
  0
LINE
  5
251
100
AcDbEntity
  8
ProjItem001
  6
ByLayer
 62
  256
370
   -1
100
AcDbLine
 10
138.195
 20
106.151
 11
138.195
 21
103.1
  0
LINE
  5
252
100
AcDbEntity
  8
ProjItem001
  6
ByLayer
 62
  256
370
   -1
100
AcDbLine
 10
138.195
 20
106.151
 11
138.195
 21
106.8
  0
LINE
  5
253
100
AcDbEntity
  8
ProjItem001
  6
ByLayer
 62
  256
370
   -1
100
AcDbLine
 10
136.555
 20
103.1
 11
135.305
 21
103.1
  0
LINE
  5
254
100
AcDbEntity
  8
ProjItem001
  6
ByLayer
 62
  256
370
   -1
100
AcDbLine
 10
135.305
 20
103.1
 11
135.3
 21
103.1
  0
LINE
  5
255
100
AcDbEntity
  8
ProjItem001
  6
ByLayer
 62
  256
370
   -1
100
AcDbLine
 10
136.555
 20
103.6
 11
136.555
 21
103.1
  0
LINE
  5
256
100
AcDbEntity
  8
ProjItem001
  6
ByLayer
 62
  256
370
   -1
100
AcDbLine
 10
135.905
 20
103.6
 11
136.555
 21
103.6
  0
LINE
  5
257
100
AcDbEntity
  8
ProjItem001
  6
ByLayer
 62
  256
370
   -1
100
AcDbLine
 10
135.905
 20
104.6
 11
135.905
 21
103.6
  0
LINE
  5
258
100
AcDbEntity
  8
ProjItem001
  6
ByLayer
 62
  256
370
   -1
100
AcDbLine
 10
135.3
 20
104.6
 11
135.905
 21
104.6
  0
LINE
  5
259
100
AcDbEntity
  8
ProjItem001
  6
ByLayer
 62
  256
370
   -1
100
AcDbLine
 10
136.755
 20
107.35
 11
135.3
 21
107.35
  0
LINE
  5
25A
100
AcDbEntity
  8
ProjItem001
  6
ByLayer
 62
  256
370
   -1
100
AcDbLine
 10
136.755
 20
106.8
 11
136.755
 21
107.35
  0
LINE
  5
25B
100
AcDbEntity
  8
ProjItem001
  6
ByLayer
 62
  256
370
   -1
100
AcDbLine
 10
137.755
 20
106.8
 11
136.755
 21
106.8
  0
LINE
  5
25C
100
AcDbEntity
  8
ProjItem001
  6
ByLayer
 62
  256
370
   -1
100
AcDbLine
 10
137.755
 20
106.151
 11
137.755
 21
106.8
  0
LINE
  5
25D
100
AcDbEntity
  8
ProjItem001
  6
ByLayer
 62
  256
370
   -1
100
AcDbLine
 10
138.195
 20
106.151
 11
137.755
 21
106.151
  0
LINE
  5
25E
100
AcDbEntity
  8
ProjItem001
  6
ByLayer
 62
  256
370
   -1
100
AcDbLine
 10
137.755
 20
106.8
 11
138.195
 21
106.8
  0
LINE
  5
25F
100
AcDbEntity
  8
ProjItem001
  6
ByLayer
 62
  256
370
   -1
100
AcDbLine
 10
137.755
 20
107.35
 11
136.755
 21
107.35
  0
LINE
  5
260
100
AcDbEntity
  8
ProjItem001
  6
ByLayer
 62
  256
370
   -1
100
AcDbLine
 10
137.755
 20
107.35
 11
137.755
 21
106.8
  0
LINE
  5
261
100
AcDbEntity
  8
ProjItem001
  6
ByLayer
 62
  256
370
   -1
100
AcDbLine
 10
135.495
 20
107.35
 11
135.495
 21
108.05
  0
LINE
  5
262
100
AcDbEntity
  8
ProjItem001
  6
ByLayer
 62
  256
370
   -1
100
AcDbLine
 10
135.495
 20
108.05
 11
135.3
 21
108.05
  0
LINE
  5
263
100
AcDbEntity
  8
ProjItem001
  6
ByLayer
 62
  256
370
   -1
100
AcDbLine
 10
135.3
 20
108.05
 11
135.3
 21
108.05
  0
LINE
  5
264
100
AcDbEntity
  8
ProjItem001
  6
ByLayer
 62
  256
370
   -1
100
AcDbLine
 10
136.555
 20
103.1
 11
138.195
 21
103.1
  0
LINE
  5
265
100
AcDbEntity
  8
ProjItem001
  6
ByLayer
 62
  256
370
   -1
100
AcDbLine
 10
138.195
 20
106.151
 11
138.195
 21
103.1
  0
LINE
  5
266
100
AcDbEntity
  8
ProjItem001
  6
ByLayer
 62
  256
370
   -1
100
AcDbLine
 10
138.195
 20
106.151
 11
138.195
 21
106.8
  0
LINE
  5
267
100
AcDbEntity
  8
ProjItem001
  6
ByLayer
 62
  256
370
   -1
100
AcDbLine
 10
136.555
 20
103.1
 11
135.305
 21
103.1
  0
LINE
  5
268
100
AcDbEntity
  8
ProjItem001
  6
ByLayer
 62
  256
370
   -1
100
AcDbLine
 10
135.305
 20
103.1
 11
135.3
 21
103.1
  0
LINE
  5
269
100
AcDbEntity
  8
ProjItem001
  6
ByLayer
 62
  256
370
   -1
100
AcDbLine
 10
136.555
 20
103.6
 11
136.555
 21
103.1
  0
LINE
  5
26A
100
AcDbEntity
  8
ProjItem001
  6
ByLayer
 62
  256
370
   -1
100
AcDbLine
 10
135.905
 20
103.6
 11
136.555
 21
103.6
  0
LINE
  5
26B
100
AcDbEntity
  8
ProjItem001
  6
ByLayer
 62
  256
370
   -1
100
AcDbLine
 10
135.905
 20
104.6
 11
135.905
 21
103.6
  0
LINE
  5
26C
100
AcDbEntity
  8
ProjItem001
  6
ByLayer
 62
  256
370
   -1
100
AcDbLine
 10
135.3
 20
104.6
 11
135.905
 21
104.6
  0
LINE
  5
26D
100
AcDbEntity
  8
ProjItem001
  6
ByLayer
 62
  256
370
   -1
100
AcDbLine
 10
136.755
 20
107.35
 11
135.3
 21
107.35
  0
LINE
  5
26E
100
AcDbEntity
  8
ProjItem001
  6
ByLayer
 62
  256
370
   -1
100
AcDbLine
 10
136.755
 20
106.8
 11
136.755
 21
107.35
  0
LINE
  5
26F
100
AcDbEntity
  8
ProjItem001
  6
ByLayer
 62
  256
370
   -1
100
AcDbLine
 10
137.755
 20
106.8
 11
136.755
 21
106.8
  0
LINE
  5
270
100
AcDbEntity
  8
ProjItem001
  6
ByLayer
 62
  256
370
   -1
100
AcDbLine
 10
137.755
 20
106.151
 11
137.755
 21
106.8
  0
LINE
  5
271
100
AcDbEntity
  8
ProjItem001
  6
ByLayer
 62
  256
370
   -1
100
AcDbLine
 10
138.195
 20
106.151
 11
137.755
 21
106.151
  0
LINE
  5
272
100
AcDbEntity
  8
ProjItem001
  6
ByLayer
 62
  256
370
   -1
100
AcDbLine
 10
137.755
 20
106.8
 11
138.195
 21
106.8
  0
LINE
  5
273
100
AcDbEntity
  8
ProjItem001
  6
ByLayer
 62
  256
370
   -1
100
AcDbLine
 10
137.755
 20
107.35
 11
136.755
 21
107.35
  0
LINE
  5
274
100
AcDbEntity
  8
ProjItem001
  6
ByLayer
 62
  256
370
   -1
100
AcDbLine
 10
137.755
 20
107.35
 11
137.755
 21
106.8
  0
LINE
  5
275
100
AcDbEntity
  8
ProjItem001
  6
ByLayer
 62
  256
370
   -1
100
AcDbLine
 10
135.495
 20
107.35
 11
135.495
 21
108.05
  0
LINE
  5
276
100
AcDbEntity
  8
ProjItem001
  6
ByLayer
 62
  256
370
   -1
100
AcDbLine
 10
135.495
 20
108.05
 11
135.3
 21
108.05
  0
LINE
  5
277
100
AcDbEntity
  8
ProjItem001
  6
ByLayer
 62
  256
370
   -1
100
AcDbLine
 10
135.3
 20
108.05
 11
135.3
 21
108.05
  0
LINE
  5
278
100
AcDbEntity
  8
ProjItem001
  6
ByLayer
 62
  256
370
   -1
100
AcDbLine
 10
135.457
 20
109.35
 11
135.457
 21
108.8
  0
LINE
  5
279
100
AcDbEntity
  8
ProjItem001
  6
ByLayer
 62
  256
370
   -1
100
AcDbLine
 10
135.457
 20
111.5
 11
135.457
 21
110.95
  0
LINE
  5
27A
100
AcDbEntity
  8
ProjItem001
  6
ByLayer
 62
  256
370
   -1
100
AcDbLine
 10
135.3
 20
104.546
 11
135.3
 21
104.546
  0
LINE
  5
27B
100
AcDbEntity
  8
ProjItem001
  6
ByLayer
 62
  256
370
   -1
100
AcDbLine
 10
135.3
 20
103.154
 11
135.3
 21
103.154
  0
LINE
  5
27C
100
AcDbEntity
  8
ProjItem001
  6
ByLayer
 62
  256
370
   -1
100
AcDbLine
 10
135.3
 20
104.546
 11
135.3
 21
104.546
  0
LINE
  5
27D
100
AcDbEntity
  8
ProjItem001
  6
ByLayer
 62
  256
370
   -1
100
AcDbLine
 10
135.3
 20
103.154
 11
135.3
 21
103.154
  0
LINE
  5
27E
100
AcDbEntity
  8
ProjItem001
  6
ByLayer
 62
  256
370
   -1
100
AcDbLine
 10
136.75
 20
109.29
 11
136.75
 21
111.01
  0
LINE
  5
27F
100
AcDbEntity
  8
ProjItem002
  6
ByLayer
 62
  256
370
   -1
100
AcDbLine
 10
156.448
 20
102.95
 11
146.448
 21
102.95
  0
LINE
  5
280
100
AcDbEntity
  8
ProjItem002
  6
ByLayer
 62
  256
370
   -1
100
AcDbLine
 10
156.448
 20
112.95
 11
156.448
 21
102.95
  0
LINE
  5
281
100
AcDbEntity
  8
ProjItem002
  6
ByLayer
 62
  256
370
   -1
100
AcDbLine
 10
146.448
 20
102.95
 11
146.448
 21
112.95
  0
LINE
  5
282
100
AcDbEntity
  8
ProjItem002
  6
ByLayer
 62
  256
370
   -1
100
AcDbLine
 10
146.448
 20
112.95
 11
156.448
 21
112.95
  0
CIRCLE
  5
283
100
AcDbEntity
  8
ProjItem002
  6
ByLayer
 62
  256
370
   -1
100
AcDbCircle
 10
154.948
 20
111.45
 40
0.751
  0
CIRCLE
  5
284
100
AcDbEntity
  8
ProjItem002
  6
ByLayer
 62
  256
370
   -1
100
AcDbCircle
 10
147.948
 20
111.45
 40
0.751
  0
LINE
  5
285
100
AcDbEntity
  8
ProjItem002
  6
ByLayer
 62
  256
370
   -1
100
AcDbLine
 10
156.448
 20
102.95
 11
146.448
 21
102.95
  0
LINE
  5
286
100
AcDbEntity
  8
ProjItem002
  6
ByLayer
 62
  256
370
   -1
100
AcDbLine
 10
156.448
 20
112.95
 11
156.448
 21
102.95
  0
LINE
  5
287
100
AcDbEntity
  8
ProjItem002
  6
ByLayer
 62
  256
370
   -1
100
AcDbLine
 10
146.448
 20
102.95
 11
146.448
 21
112.95
  0
LINE
  5
288
100
AcDbEntity
  8
ProjItem002
  6
ByLayer
 62
  256
370
   -1
100
AcDbLine
 10
146.448
 20
112.95
 11
156.448
 21
112.95
  0
CIRCLE
  5
289
100
AcDbEntity
  8
ProjItem002
  6
ByLayer
 62
  256
370
   -1
100
AcDbCircle
 10
154.948
 20
111.45
 40
0.751
  0
CIRCLE
  5
28A
100
AcDbEntity
  8
ProjItem002
  6
ByLayer
 62
  256
370
   -1
100
AcDbCircle
 10
147.948
 20
111.45
 40
0.751
  0
ENDBLK
  5
8D
330
8B
100
AcDbEntity
  8
0
100
AcDbBlockEnd
  0
ENDSEC
  0
SECTION
  2
ENTITIES
  0
LWPOLYLINE
  5
28B
100
AcDbEntity
  8
0
  6
ByLayer
 62
    7
370
   -1
100
AcDbPolyline
 90
    2
 70
    0
 43
0
 10
0.140079
 20
107.394775
 10
3.277269
 20
107.394775
  0
LWPOLYLINE
  5
28C
100
AcDbEntity
  8
0
  6
ByLayer
 62
    7
370
   -1
100
AcDbPolyline
 90
    2
 70
    0
 43
0
 10
138.983326
 20
213.302216
 10
138.983326
 20
215.90002
  0
LWPOLYLINE
  5
28D
100
AcDbEntity
  8
0
  6
ByLayer
 62
    7
370
   -1
100
AcDbPolyline
 90
    2
 70
    0
 43
0
 10
273.511583
 20
107.394775
 10
276.706053
 20
107.394775
  0
LWPOLYLINE
  5
28E
100
AcDbEntity
  8
0
  6
ByLayer
 62
    7
370
   -1
100
AcDbPolyline
 90
    4
 70
    1
 43
0
 10
0.090159
 20
215.80482
 10
276.706052
 20
215.80482
 10
276.706052
 20
0.09016
 10
0.090159
 20
0.09016
  0
LWPOLYLINE
  5
28F
100
AcDbEntity
  8
0
  6
ByLayer
 62
    7
370
   -1
100
AcDbPolyline
 90
    4
 70
    1
 43
0
 10
3.283779
 20
213.314325
 10
273.512431
 20
213.314325
 10
273.512431
 20
2.580656
 10
3.283779
 20
2.580656
  0
SPLINE
  5
290
100
AcDbEntity
  8
0
  6
ByLayer
 62
    7
370
   -1
100
AcDbSpline
210
0
220
0
230
0
 70
    8
 71
    3
 72
    8
 73
    4
 74
    0
 42
1e-07
 43
1e-07
 40
0
 40
0
 40
0
 40
0
 40
1
 40
1
 40
1
 40
1
 10
195.113259
 20
40.583992
 30
0
 10
265.921022
 20
40.583992
 30
0
 10
265.921022
 20
40.806662
 30
0
 10
265.921022
 20
40.806662
 30
0
  0
LWPOLYLINE
  5
291
100
AcDbEntity
  8
0
  6
ByLayer
 62
    7
370
   -1
100
AcDbPolyline
 90
    2
 70
    0
 43
0
 10
138.983326
 20
0.09016
 10
138.983326
 20
2.68797
  0
LWPOLYLINE
  5
292
100
AcDbEntity
  8
0
  6
ByLayer
 62
    7
370
   -1
100
AcDbPolyline
 90
    4
 70
    1
 43
0
 10
191.654079
 20
60.356283
 10
269.539611
 20
60.356283
 10
269.539611
 20
6.548934
 10
191.654079
 20
6.548934
  0
SPLINE
  5
293
100
AcDbEntity
  8
0
  6
ByLayer
 62
    7
370
   -1
100
AcDbSpline
210
0
220
0
230
0
 70
    8
 71
    3
 72
    8
 73
    4
 74
    0
 42
1e-07
 43
1e-07
 40
0
 40
0
 40
0
 40
0
 40
1
 40
1
 40
1
 40
1
 10
195.113259
 20
15.13960281206198
 30
0
 10
265.921022
 20
15.13960281206198
 30
0
 10
265.921022
 20
15.36226281206198
 30
0
 10
265.921022
 20
15.36226281206198
 30
0
  0
MTEXT
  5
294
100
AcDbEntity
  8
0
  6
ByLayer
 62
  256
370
   -1
100
AcDbMText
 10
193.5315491999793
 20
12.30264751102634
 30
0
 40
3
 41
72.06666539465414
 71
    1
 72
    1
  1
*NOTE: DIMENSIONS UNTOLERANCED\P
  7
standard
210
0
220
0
230
1
 50
0
 73
    2
 44
1
  0
MTEXT
  5
295
100
AcDbEntity
  8
0
  6
ByLayer
 62
  256
370
   -1
100
AcDbMText
 10
240.2022845263945
 20
27.80828678588498
 30
0
 40
2
 41
19.4999995759957
 71
    4
 72
    1
  1
SCALE: 1:1\P\PUNIT: mm\P\PREVISION: Rev1
  7
standard
210
0
220
0
230
1
 50
0
 73
    2
 44
1
  0
MTEXT
  5
296
100
AcDbEntity
  8
0
  6
ByLayer
 62
  256
370
   -1
100
AcDbMText
 10
121.6966379512368
 20
94
 30
0
 40
1
 41
6.416666666666666
 71
    1
 72
    1
  1
TOP VIEW
  7
standard
210
0
220
0
230
1
 50
0
 73
    2
 44
1
  0
MTEXT
  5
297
100
AcDbEntity
  8
0
  6
ByLayer
 62
  256
370
   -1
100
AcDbMText
 10
146.9299455833061
 20
94
 30
0
 40
1
 41
9.194444444444445
 71
    1
 72
    1
  1
BOTTOM VIEW
  7
standard
210
0
220
0
230
1
 50
0
 73
    2
 44
1
  0
MTEXT
  5
298
100
AcDbEntity
  8
0
  6
ByLayer
 62
  256
370
   -1
100
AcDbMText
 10
134.5389095665434
 20
94
 30
0
 40
1
 41
6.638888676886801
 71
    1
 72
    1
  1
SIDE VIEW
  7
standard
210
0
220
0
230
1
 50
0
 73
    2
 44
1
  0
MTEXT
  5
299
100
AcDbEntity
  8
0
  6
ByLayer
 62
  256
370
   -1
100
AcDbMText
 10
134.6513535055664
 20
119.9683830628848
 30
0
 40
1
 41
5.750000000000092
 71
    1
 72
    1
  1
UNIT: mm
  7
standard
210
0
220
0
230
1
 50
0
 73
    2
 44
1
  0
LINE
  5
29A
100
AcDbEntity
  8
ProjItem
  6
ByLayer
 62
  256
370
   -1
100
AcDbLine
 10
122.690159
 20
111.84016
 11
123.430159
 21
111.84016
  0
LINE
  5
29B
100
AcDbEntity
  8
ProjItem
  6
ByLayer
 62
  256
370
   -1
100
AcDbLine
 10
126.150159
 20
111.84016
 11
126.890159
 21
111.84016
  0
LINE
  5
29C
100
AcDbEntity
  8
ProjItem
  6
ByLayer
 62
  256
370
   -1
100
AcDbLine
 10
126.890159
 20
111.84016
 11
126.890159
 21
111.10016
  0
LINE
  5
29D
100
AcDbEntity
  8
ProjItem
  6
ByLayer
 62
  256
370
   -1
100
AcDbLine
 10
126.890159
 20
109.38016
 11
126.890159
 21
108.64016
  0
LINE
  5
29E
100
AcDbEntity
  8
ProjItem
  6
ByLayer
 62
  256
370
   -1
100
AcDbLine
 10
122.690159
 20
111.10016
 11
122.690159
 21
111.84016
  0
LINE
  5
29F
100
AcDbEntity
  8
ProjItem
  6
ByLayer
 62
  256
370
   -1
100
AcDbLine
 10
123.430159
 20
111.84016
 11
126.150159
 21
111.84016
  0
LINE
  5
2A0
100
AcDbEntity
  8
ProjItem
  6
ByLayer
 62
  256
370
   -1
100
AcDbLine
 10
122.690159
 20
108.64016
 11
122.690159
 21
109.38016
  0
LINE
  5
2A1
100
AcDbEntity
  8
ProjItem
  6
ByLayer
 62
  256
370
   -1
100
AcDbLine
 10
126.890159
 20
108.64016
 11
126.150159
 21
108.64016
  0
LINE
  5
2A2
100
AcDbEntity
  8
ProjItem
  6
ByLayer
 62
  256
370
   -1
100
AcDbLine
 10
123.430159
 20
108.64016
 11
122.690159
 21
108.64016
  0
LINE
  5
2A3
100
AcDbEntity
  8
ProjItem
  6
ByLayer
 62
  256
370
   -1
100
AcDbLine
 10
126.890159
 20
111.10016
 11
126.890159
 21
109.38016
  0
LINE
  5
2A4
100
AcDbEntity
  8
ProjItem
  6
ByLayer
 62
  256
370
   -1
100
AcDbLine
 10
126.890159
 20
109.44016
 11
126.939159
 21
109.44016
  0
LINE
  5
2A5
100
AcDbEntity
  8
ProjItem
  6
ByLayer
 62
  256
370
   -1
100
AcDbLine
 10
126.939159
 20
109.44016
 11
127.038159
 21
109.44016
  0
LINE
  5
2A6
100
AcDbEntity
  8
ProjItem
  6
ByLayer
 62
  256
370
   -1
100
AcDbLine
 10
126.890159
 20
108.89016
 11
126.939159
 21
108.89016
  0
LINE
  5
2A7
100
AcDbEntity
  8
ProjItem
  6
ByLayer
 62
  256
370
   -1
100
AcDbLine
 10
126.939159
 20
109.44016
 11
126.939159
 21
108.89016
  0
LINE
  5
2A8
100
AcDbEntity
  8
ProjItem
  6
ByLayer
 62
  256
370
   -1
100
AcDbLine
 10
126.939159
 20
108.89016
 11
127.038159
 21
108.89016
  0
LINE
  5
2A9
100
AcDbEntity
  8
ProjItem
  6
ByLayer
 62
  256
370
   -1
100
AcDbLine
 10
126.890159
 20
111.59016
 11
126.939159
 21
111.59016
  0
LINE
  5
2AA
100
AcDbEntity
  8
ProjItem
  6
ByLayer
 62
  256
370
   -1
100
AcDbLine
 10
126.939159
 20
111.59016
 11
127.038159
 21
111.59016
  0
LINE
  5
2AB
100
AcDbEntity
  8
ProjItem
  6
ByLayer
 62
  256
370
   -1
100
AcDbLine
 10
126.890159
 20
111.04016
 11
126.939159
 21
111.04016
  0
LINE
  5
2AC
100
AcDbEntity
  8
ProjItem
  6
ByLayer
 62
  256
370
   -1
100
AcDbLine
 10
126.939159
 20
111.59016
 11
126.939159
 21
111.04016
  0
LINE
  5
2AD
100
AcDbEntity
  8
ProjItem
  6
ByLayer
 62
  256
370
   -1
100
AcDbLine
 10
126.939159
 20
111.04016
 11
127.038159
 21
111.04016
  0
LINE
  5
2AE
100
AcDbEntity
  8
ProjItem
  6
ByLayer
 62
  256
370
   -1
100
AcDbLine
 10
122.690159
 20
111.10016
 11
122.740159
 21
111.10016
  0
LINE
  5
2AF
100
AcDbEntity
  8
ProjItem
  6
ByLayer
 62
  256
370
   -1
100
AcDbLine
 10
122.740159
 20
111.61316
 11
122.740159
 21
110.98316
  0
LINE
  5
2B0
100
AcDbEntity
  8
ProjItem
  6
ByLayer
 62
  256
370
   -1
100
AcDbLine
 10
122.917159
 20
111.79016
 11
122.740159
 21
111.61316
  0
LINE
  5
2B1
100
AcDbEntity
  8
ProjItem
  6
ByLayer
 62
  256
370
   -1
100
AcDbLine
 10
123.547159
 20
111.79016
 11
122.917159
 21
111.79016
  0
LINE
  5
2B2
100
AcDbEntity
  8
ProjItem
  6
ByLayer
 62
  256
370
   -1
100
AcDbLine
 10
123.430159
 20
111.84016
 11
123.430159
 21
111.79016
  0
LINE
  5
2B3
100
AcDbEntity
  8
ProjItem
  6
ByLayer
 62
  256
370
   -1
100
AcDbLine
 10
126.150159
 20
111.84016
 11
126.150159
 21
111.79016
  0
LINE
  5
2B4
100
AcDbEntity
  8
ProjItem
  6
ByLayer
 62
  256
370
   -1
100
AcDbLine
 10
122.690159
 20
109.38016
 11
122.740159
 21
109.38016
  0
LINE
  5
2B5
100
AcDbEntity
  8
ProjItem
  6
ByLayer
 62
  256
370
   -1
100
AcDbLine
 10
122.690159
 20
109.38016
 11
122.690159
 21
111.10016
  0
LINE
  5
2B6
100
AcDbEntity
  8
ProjItem
  6
ByLayer
 62
  256
370
   -1
100
AcDbLine
 10
126.840159
 20
111.10016
 11
126.890159
 21
111.10016
  0
LINE
  5
2B7
100
AcDbEntity
  8
ProjItem
  6
ByLayer
 62
  256
370
   -1
100
AcDbLine
 10
126.840159
 20
109.38016
 11
126.890159
 21
109.38016
  0
LINE
  5
2B8
100
AcDbEntity
  8
ProjItem
  6
ByLayer
 62
  256
370
   -1
100
AcDbLine
 10
126.150159
 20
108.64016
 11
126.150159
 21
108.69016
  0
LINE
  5
2B9
100
AcDbEntity
  8
ProjItem
  6
ByLayer
 62
  256
370
   -1
100
AcDbLine
 10
126.150159
 20
108.64016
 11
123.430159
 21
108.64016
  0
LINE
  5
2BA
100
AcDbEntity
  8
ProjItem
  6
ByLayer
 62
  256
370
   -1
100
AcDbLine
 10
123.430159
 20
108.64016
 11
123.430159
 21
108.69016
  0
LINE
  5
2BB
100
AcDbEntity
  8
ProjItem
  6
ByLayer
 62
  256
370
   -1
100
AcDbLine
 10
126.840159
 20
110.98316
 11
126.840159
 21
111.61316
  0
LINE
  5
2BC
100
AcDbEntity
  8
ProjItem
  6
ByLayer
 62
  256
370
   -1
100
AcDbLine
 10
126.840159
 20
111.61316
 11
126.663159
 21
111.79016
  0
LINE
  5
2BD
100
AcDbEntity
  8
ProjItem
  6
ByLayer
 62
  256
370
   -1
100
AcDbLine
 10
126.663159
 20
111.79016
 11
126.033159
 21
111.79016
  0
LINE
  5
2BE
100
AcDbEntity
  8
ProjItem
  6
ByLayer
 62
  256
370
   -1
100
AcDbLine
 10
122.690159
 20
109.44016
 11
122.641159
 21
109.44016
  0
LINE
  5
2BF
100
AcDbEntity
  8
ProjItem
  6
ByLayer
 62
  256
370
   -1
100
AcDbLine
 10
122.641159
 20
109.44016
 11
122.542159
 21
109.44016
  0
LINE
  5
2C0
100
AcDbEntity
  8
ProjItem
  6
ByLayer
 62
  256
370
   -1
100
AcDbLine
 10
122.690159
 20
108.89016
 11
122.641159
 21
108.89016
  0
LINE
  5
2C1
100
AcDbEntity
  8
ProjItem
  6
ByLayer
 62
  256
370
   -1
100
AcDbLine
 10
122.641159
 20
108.89016
 11
122.542159
 21
108.89016
  0
LINE
  5
2C2
100
AcDbEntity
  8
ProjItem
  6
ByLayer
 62
  256
370
   -1
100
AcDbLine
 10
122.641159
 20
109.44016
 11
122.641159
 21
108.89016
  0
LINE
  5
2C3
100
AcDbEntity
  8
ProjItem
  6
ByLayer
 62
  256
370
   -1
100
AcDbLine
 10
122.690159
 20
111.04016
 11
122.641159
 21
111.04016
  0
LINE
  5
2C4
100
AcDbEntity
  8
ProjItem
  6
ByLayer
 62
  256
370
   -1
100
AcDbLine
 10
122.641159
 20
111.04016
 11
122.542159
 21
111.04016
  0
LINE
  5
2C5
100
AcDbEntity
  8
ProjItem
  6
ByLayer
 62
  256
370
   -1
100
AcDbLine
 10
122.641159
 20
111.59016
 11
122.641159
 21
111.04016
  0
LINE
  5
2C6
100
AcDbEntity
  8
ProjItem
  6
ByLayer
 62
  256
370
   -1
100
AcDbLine
 10
122.690159
 20
111.59016
 11
122.641159
 21
111.59016
  0
LINE
  5
2C7
100
AcDbEntity
  8
ProjItem
  6
ByLayer
 62
  256
370
   -1
100
AcDbLine
 10
122.641159
 20
111.59016
 11
122.542159
 21
111.59016
  0
LINE
  5
2C8
100
AcDbEntity
  8
ProjItem
  6
ByLayer
 62
  256
370
   -1
100
AcDbLine
 10
126.840159
 20
108.86716
 11
126.840159
 21
109.49716
  0
LINE
  5
2C9
100
AcDbEntity
  8
ProjItem
  6
ByLayer
 62
  256
370
   -1
100
AcDbLine
 10
126.663159
 20
108.69016
 11
126.840159
 21
108.86716
  0
LINE
  5
2CA
100
AcDbEntity
  8
ProjItem
  6
ByLayer
 62
  256
370
   -1
100
AcDbLine
 10
126.033159
 20
108.69016
 11
126.663159
 21
108.69016
  0
LINE
  5
2CB
100
AcDbEntity
  8
ProjItem
  6
ByLayer
 62
  256
370
   -1
100
AcDbLine
 10
127.038159
 20
109.44016
 11
127.038159
 21
108.89016
  0
LINE
  5
2CC
100
AcDbEntity
  8
ProjItem
  6
ByLayer
 62
  256
370
   -1
100
AcDbLine
 10
127.038159
 20
111.59016
 11
127.038159
 21
111.04016
  0
LINE
  5
2CD
100
AcDbEntity
  8
ProjItem
  6
ByLayer
 62
  256
370
   -1
100
AcDbLine
 10
122.740159
 20
110.98316
 11
122.990159
 21
110.98316
  0
LINE
  5
2CE
100
AcDbEntity
  8
ProjItem
  6
ByLayer
 62
  256
370
   -1
100
AcDbLine
 10
123.547159
 20
111.79016
 11
123.547159
 21
111.54016
  0
LINE
  5
2CF
100
AcDbEntity
  8
ProjItem
  6
ByLayer
 62
  256
370
   -1
100
AcDbLine
 10
122.990159
 20
110.98316
 11
123.547159
 21
111.54016
  0
LINE
  5
2D0
100
AcDbEntity
  8
ProjItem
  6
ByLayer
 62
  256
370
   -1
100
AcDbLine
 10
122.740159
 20
109.49716
 11
122.740159
 21
108.86716
  0
LINE
  5
2D1
100
AcDbEntity
  8
ProjItem
  6
ByLayer
 62
  256
370
   -1
100
AcDbLine
 10
122.740159
 20
109.49716
 11
122.990159
 21
109.49716
  0
LINE
  5
2D2
100
AcDbEntity
  8
ProjItem
  6
ByLayer
 62
  256
370
   -1
100
AcDbLine
 10
122.990159
 20
109.49716
 11
123.547159
 21
108.94016
  0
LINE
  5
2D3
100
AcDbEntity
  8
ProjItem
  6
ByLayer
 62
  256
370
   -1
100
AcDbLine
 10
123.547159
 20
108.69016
 11
123.547159
 21
108.94016
  0
LINE
  5
2D4
100
AcDbEntity
  8
ProjItem
  6
ByLayer
 62
  256
370
   -1
100
AcDbLine
 10
122.917159
 20
108.69016
 11
123.547159
 21
108.69016
  0
LINE
  5
2D5
100
AcDbEntity
  8
ProjItem
  6
ByLayer
 62
  256
370
   -1
100
AcDbLine
 10
126.033159
 20
108.69016
 11
126.033159
 21
108.94016
  0
LINE
  5
2D6
100
AcDbEntity
  8
ProjItem
  6
ByLayer
 62
  256
370
   -1
100
AcDbLine
 10
126.033159
 20
108.94016
 11
126.590159
 21
109.49716
  0
LINE
  5
2D7
100
AcDbEntity
  8
ProjItem
  6
ByLayer
 62
  256
370
   -1
100
AcDbLine
 10
126.590159
 20
109.49716
 11
126.840159
 21
109.49716
  0
LINE
  5
2D8
100
AcDbEntity
  8
ProjItem
  6
ByLayer
 62
  256
370
   -1
100
AcDbLine
 10
126.590159
 20
110.98316
 11
126.840159
 21
110.98316
  0
LINE
  5
2D9
100
AcDbEntity
  8
ProjItem
  6
ByLayer
 62
  256
370
   -1
100
AcDbLine
 10
126.033159
 20
111.54016
 11
126.590159
 21
110.98316
  0
LINE
  5
2DA
100
AcDbEntity
  8
ProjItem
  6
ByLayer
 62
  256
370
   -1
100
AcDbLine
 10
126.033159
 20
111.79016
 11
126.033159
 21
111.54016
  0
LINE
  5
2DB
100
AcDbEntity
  8
ProjItem
  6
ByLayer
 62
  256
370
   -1
100
AcDbLine
 10
124.390159
 20
111.34016
 11
125.190159
 21
111.34016
  0
ARC
  5
2DC
100
AcDbEntity
  8
ProjItem
  6
ByLayer
 62
  256
370
   -1
100
AcDbCircle
 10
124.390159
 20
110.24016
 40
1.1
100
AcDbArc
 50
90
 51
270
  0
ARC
  5
2DD
100
AcDbEntity
  8
ProjItem
  6
ByLayer
 62
  256
370
   -1
100
AcDbCircle
 10
125.190159
 20
110.24016
 40
1.1
100
AcDbArc
 50
270
 51
90
  0
LINE
  5
2DE
100
AcDbEntity
  8
ProjItem
  6
ByLayer
 62
  256
370
   -1
100
AcDbLine
 10
124.390159
 20
109.14016
 11
125.190159
 21
109.14016
  0
LINE
  5
2DF
100
AcDbEntity
  8
ProjItem
  6
ByLayer
 62
  256
370
   -1
100
AcDbLine
 10
122.740159
 20
108.86716
 11
122.917159
 21
108.69016
  0
LINE
  5
2E0
100
AcDbEntity
  8
ProjItem
  6
ByLayer
 62
  256
370
   -1
100
AcDbLine
 10
122.542159
 20
109.44016
 11
122.542159
 21
108.89016
  0
LINE
  5
2E1
100
AcDbEntity
  8
ProjItem
  6
ByLayer
 62
  256
370
   -1
100
AcDbLine
 10
122.542159
 20
111.59016
 11
122.542159
 21
111.04016
  0
LINE
  5
2E2
100
AcDbEntity
  8
ProjItem
  6
ByLayer
 62
  256
370
   -1
100
AcDbLine
 10
129.140159
 20
106.64016
 11
128.640159
 21
106.64016
  0
LINE
  5
2E3
100
AcDbEntity
  8
ProjItem
  6
ByLayer
 62
  256
370
   -1
100
AcDbLine
 10
128.640159
 20
106.64016
 11
128.640159
 21
106.44016
  0
LINE
  5
2E4
100
AcDbEntity
  8
ProjItem
  6
ByLayer
 62
  256
370
   -1
100
AcDbLine
 10
129.140159
 20
106.44016
 11
128.640159
 21
106.44016
  0
LINE
  5
2E5
100
AcDbEntity
  8
ProjItem
  6
ByLayer
 62
  256
370
   -1
100
AcDbLine
 10
129.140159
 20
106.64016
 11
129.140159
 21
106.44016
  0
LINE
  5
2E6
100
AcDbEntity
  8
ProjItem
  6
ByLayer
 62
  256
370
   -1
100
AcDbLine
 10
129.140159
 20
107.24016
 11
128.640159
 21
107.24016
  0
LINE
  5
2E7
100
AcDbEntity
  8
ProjItem
  6
ByLayer
 62
  256
370
   -1
100
AcDbLine
 10
128.640159
 20
107.24016
 11
128.640159
 21
107.44016
  0
LINE
  5
2E8
100
AcDbEntity
  8
ProjItem
  6
ByLayer
 62
  256
370
   -1
100
AcDbLine
 10
129.140159
 20
107.44016
 11
128.640159
 21
107.44016
  0
LINE
  5
2E9
100
AcDbEntity
  8
ProjItem
  6
ByLayer
 62
  256
370
   -1
100
AcDbLine
 10
129.140159
 20
107.24016
 11
129.140159
 21
107.44016
  0
LINE
  5
2EA
100
AcDbEntity
  8
ProjItem
  6
ByLayer
 62
  256
370
   -1
100
AcDbLine
 10
129.140159
 20
107.24016
 11
128.640159
 21
107.24016
  0
LINE
  5
2EB
100
AcDbEntity
  8
ProjItem
  6
ByLayer
 62
  256
370
   -1
100
AcDbLine
 10
128.640159
 20
107.24016
 11
128.640159
 21
106.64016
  0
LINE
  5
2EC
100
AcDbEntity
  8
ProjItem
  6
ByLayer
 62
  256
370
   -1
100
AcDbLine
 10
129.140159
 20
106.64016
 11
128.640159
 21
106.64016
  0
LINE
  5
2ED
100
AcDbEntity
  8
ProjItem
  6
ByLayer
 62
  256
370
   -1
100
AcDbLine
 10
129.140159
 20
107.24016
 11
129.140159
 21
106.64016
  0
LINE
  5
2EE
100
AcDbEntity
  8
ProjItem
  6
ByLayer
 62
  256
370
   -1
100
AcDbLine
 10
124.090159
 20
107.44016
 11
124.090159
 21
108.34016
  0
LINE
  5
2EF
100
AcDbEntity
  8
ProjItem
  6
ByLayer
 62
  256
370
   -1
100
AcDbLine
 10
124.090159
 20
108.34016
 11
123.490159
 21
108.34016
  0
LINE
  5
2F0
100
AcDbEntity
  8
ProjItem
  6
ByLayer
 62
  256
370
   -1
100
AcDbLine
 10
123.490159
 20
108.34016
 11
123.490159
 21
107.44016
  0
LINE
  5
2F1
100
AcDbEntity
  8
ProjItem
  6
ByLayer
 62
  256
370
   -1
100
AcDbLine
 10
121.290159
 20
104.64016
 11
121.094159
 21
104.64016
  0
CIRCLE
  5
2F2
100
AcDbEntity
  8
ProjItem
  6
ByLayer
 62
  256
370
   -1
100
AcDbCircle
 10
121.094159
 20
104.63616
 40
0.004
  0
LINE
  5
2F3
100
AcDbEntity
  8
ProjItem
  6
ByLayer
 62
  256
370
   -1
100
AcDbLine
 10
121.090159
 20
104.63616
 11
121.090159
 21
103.24416
  0
CIRCLE
  5
2F4
100
AcDbEntity
  8
ProjItem
  6
ByLayer
 62
  256
370
   -1
100
AcDbCircle
 10
121.094159
 20
103.24416
 40
0.004
  0
LINE
  5
2F5
100
AcDbEntity
  8
ProjItem
  6
ByLayer
 62
  256
370
   -1
100
AcDbLine
 10
121.094159
 20
103.24016
 11
121.290159
 21
103.24016
  0
LINE
  5
2F6
100
AcDbEntity
  8
ProjItem
  6
ByLayer
 62
  256
370
   -1
100
AcDbLine
 10
128.490159
 20
103.24016
 11
128.490159
 21
104.64016
  0
LINE
  5
2F7
100
AcDbEntity
  8
ProjItem
  6
ByLayer
 62
  256
370
   -1
100
AcDbLine
 10
128.490159
 20
104.64016
 11
128.290159
 21
104.64016
  0
LINE
  5
2F8
100
AcDbEntity
  8
ProjItem
  6
ByLayer
 62
  256
370
   -1
100
AcDbLine
 10
128.290159
 20
103.24016
 11
128.490159
 21
103.24016
  0
LINE
  5
2F9
100
AcDbEntity
  8
ProjItem
  6
ByLayer
 62
  256
370
   -1
100
AcDbLine
 10
125.090159
 20
107.44016
 11
125.090159
 21
108.34016
  0
LINE
  5
2FA
100
AcDbEntity
  8
ProjItem
  6
ByLayer
 62
  256
370
   -1
100
AcDbLine
 10
125.090159
 20
108.34016
 11
124.490159
 21
108.34016
  0
LINE
  5
2FB
100
AcDbEntity
  8
ProjItem
  6
ByLayer
 62
  256
370
   -1
100
AcDbLine
 10
124.490159
 20
108.34016
 11
124.490159
 21
107.44016
  0
LINE
  5
2FC
100
AcDbEntity
  8
ProjItem
  6
ByLayer
 62
  256
370
   -1
100
AcDbLine
 10
126.090159
 20
107.44016
 11
126.090159
 21
108.34016
  0
LINE
  5
2FD
100
AcDbEntity
  8
ProjItem
  6
ByLayer
 62
  256
370
   -1
100
AcDbLine
 10
126.090159
 20
108.34016
 11
125.490159
 21
108.34016
  0
LINE
  5
2FE
100
AcDbEntity
  8
ProjItem
  6
ByLayer
 62
  256
370
   -1
100
AcDbLine
 10
125.490159
 20
108.34016
 11
125.490159
 21
107.44016
  0
LINE
  5
2FF
100
AcDbEntity
  8
ProjItem
  6
ByLayer
 62
  256
370
   -1
100
AcDbLine
 10
127.090159
 20
107.44016
 11
127.090159
 21
108.34016
  0
LINE
  5
300
100
AcDbEntity
  8
ProjItem
  6
ByLayer
 62
  256
370
   -1
100
AcDbLine
 10
127.090159
 20
108.34016
 11
126.490159
 21
108.34016
  0
LINE
  5
301
100
AcDbEntity
  8
ProjItem
  6
ByLayer
 62
  256
370
   -1
100
AcDbLine
 10
126.490159
 20
108.34016
 11
126.490159
 21
107.44016
  0
LINE
  5
302
100
AcDbEntity
  8
ProjItem
  6
ByLayer
 62
  256
370
   -1
100
AcDbLine
 10
123.090159
 20
107.44016
 11
123.090159
 21
108.34016
  0
LINE
  5
303
100
AcDbEntity
  8
ProjItem
  6
ByLayer
 62
  256
370
   -1
100
AcDbLine
 10
123.090159
 20
108.34016
 11
122.490159
 21
108.34016
  0
LINE
  5
304
100
AcDbEntity
  8
ProjItem
  6
ByLayer
 62
  256
370
   -1
100
AcDbLine
 10
122.490159
 20
108.34016
 11
122.490159
 21
107.44016
  0
LINE
  5
305
100
AcDbEntity
  8
ProjItem
  6
ByLayer
 62
  256
370
   -1
100
AcDbLine
 10
128.615159
 20
107.86516
 11
128.615159
 21
107.21516
  0
LINE
  5
306
100
AcDbEntity
  8
ProjItem
  6
ByLayer
 62
  256
370
   -1
100
AcDbLine
 10
128.615159
 20
107.21516
 11
128.640159
 21
107.21516
  0
LINE
  5
307
100
AcDbEntity
  8
ProjItem
  6
ByLayer
 62
  256
370
   -1
100
AcDbLine
 10
129.140159
 20
107.21516
 11
129.165159
 21
107.21516
  0
LINE
  5
308
100
AcDbEntity
  8
ProjItem
  6
ByLayer
 62
  256
370
   -1
100
AcDbLine
 10
129.165159
 20
107.21516
 11
129.165159
 21
107.86516
  0
LINE
  5
309
100
AcDbEntity
  8
ProjItem
  6
ByLayer
 62
  256
370
   -1
100
AcDbLine
 10
129.165159
 20
107.86516
 11
128.615159
 21
107.86516
  0
LINE
  5
30A
100
AcDbEntity
  8
ProjItem
  6
ByLayer
 62
  256
370
   -1
100
AcDbLine
 10
128.615159
 20
106.66516
 11
128.615159
 21
106.01516
  0
LINE
  5
30B
100
AcDbEntity
  8
ProjItem
  6
ByLayer
 62
  256
370
   -1
100
AcDbLine
 10
128.615159
 20
106.01516
 11
129.165159
 21
106.01516
  0
LINE
  5
30C
100
AcDbEntity
  8
ProjItem
  6
ByLayer
 62
  256
370
   -1
100
AcDbLine
 10
129.165159
 20
106.01516
 11
129.165159
 21
106.66516
  0
LINE
  5
30D
100
AcDbEntity
  8
ProjItem
  6
ByLayer
 62
  256
370
   -1
100
AcDbLine
 10
129.165159
 20
106.66516
 11
129.140159
 21
106.66516
  0
LINE
  5
30E
100
AcDbEntity
  8
ProjItem
  6
ByLayer
 62
  256
370
   -1
100
AcDbLine
 10
128.640159
 20
106.66516
 11
128.615159
 21
106.66516
  0
LINE
  5
30F
100
AcDbEntity
  8
ProjItem
  6
ByLayer
 62
  256
370
   -1
100
AcDbLine
 10
122.290159
 20
108.79016
 11
122.690159
 21
108.79016
  0
LINE
  5
310
100
AcDbEntity
  8
ProjItem
  6
ByLayer
 62
  256
370
   -1
100
AcDbLine
 10
122.690159
 20
109.49016
 11
122.290159
 21
109.49016
  0
LINE
  5
311
100
AcDbEntity
  8
ProjItem
  6
ByLayer
 62
  256
370
   -1
100
AcDbLine
 10
122.290159
 20
109.49016
 11
122.290159
 21
108.79016
  0
LINE
  5
312
100
AcDbEntity
  8
ProjItem
  6
ByLayer
 62
  256
370
   -1
100
AcDbLine
 10
122.290159
 20
110.99016
 11
122.690159
 21
110.99016
  0
LINE
  5
313
100
AcDbEntity
  8
ProjItem
  6
ByLayer
 62
  256
370
   -1
100
AcDbLine
 10
122.690159
 20
111.69016
 11
122.290159
 21
111.69016
  0
LINE
  5
314
100
AcDbEntity
  8
ProjItem
  6
ByLayer
 62
  256
370
   -1
100
AcDbLine
 10
122.290159
 20
111.69016
 11
122.290159
 21
110.99016
  0
LINE
  5
315
100
AcDbEntity
  8
ProjItem
  6
ByLayer
 62
  256
370
   -1
100
AcDbLine
 10
126.890159
 20
108.79016
 11
127.290159
 21
108.79016
  0
LINE
  5
316
100
AcDbEntity
  8
ProjItem
  6
ByLayer
 62
  256
370
   -1
100
AcDbLine
 10
127.290159
 20
108.79016
 11
127.290159
 21
109.49016
  0
LINE
  5
317
100
AcDbEntity
  8
ProjItem
  6
ByLayer
 62
  256
370
   -1
100
AcDbLine
 10
127.290159
 20
109.49016
 11
126.890159
 21
109.49016
  0
LINE
  5
318
100
AcDbEntity
  8
ProjItem
  6
ByLayer
 62
  256
370
   -1
100
AcDbLine
 10
126.890159
 20
110.99016
 11
127.290159
 21
110.99016
  0
LINE
  5
319
100
AcDbEntity
  8
ProjItem
  6
ByLayer
 62
  256
370
   -1
100
AcDbLine
 10
127.290159
 20
110.99016
 11
127.290159
 21
111.69016
  0
LINE
  5
31A
100
AcDbEntity
  8
ProjItem
  6
ByLayer
 62
  256
370
   -1
100
AcDbLine
 10
127.290159
 20
111.69016
 11
126.890159
 21
111.69016
  0
LINE
  5
31B
100
AcDbEntity
  8
ProjItem
  6
ByLayer
 62
  256
370
   -1
100
AcDbLine
 10
124.090159
 20
107.44016
 11
124.090159
 21
108.34016
  0
LINE
  5
31C
100
AcDbEntity
  8
ProjItem
  6
ByLayer
 62
  256
370
   -1
100
AcDbLine
 10
124.090159
 20
108.34016
 11
123.490159
 21
108.34016
  0
LINE
  5
31D
100
AcDbEntity
  8
ProjItem
  6
ByLayer
 62
  256
370
   -1
100
AcDbLine
 10
123.490159
 20
108.34016
 11
123.490159
 21
107.44016
  0
LINE
  5
31E
100
AcDbEntity
  8
ProjItem
  6
ByLayer
 62
  256
370
   -1
100
AcDbLine
 10
121.290159
 20
104.64016
 11
121.094159
 21
104.64016
  0
CIRCLE
  5
31F
100
AcDbEntity
  8
ProjItem
  6
ByLayer
 62
  256
370
   -1
100
AcDbCircle
 10
121.094159
 20
104.63616
 40
0.004
  0
LINE
  5
320
100
AcDbEntity
  8
ProjItem
  6
ByLayer
 62
  256
370
   -1
100
AcDbLine
 10
121.090159
 20
104.63616
 11
121.090159
 21
103.24416
  0
CIRCLE
  5
321
100
AcDbEntity
  8
ProjItem
  6
ByLayer
 62
  256
370
   -1
100
AcDbCircle
 10
121.094159
 20
103.24416
 40
0.004
  0
LINE
  5
322
100
AcDbEntity
  8
ProjItem
  6
ByLayer
 62
  256
370
   -1
100
AcDbLine
 10
121.094159
 20
103.24016
 11
121.290159
 21
103.24016
  0
LINE
  5
323
100
AcDbEntity
  8
ProjItem
  6
ByLayer
 62
  256
370
   -1
100
AcDbLine
 10
128.490159
 20
103.24016
 11
128.490159
 21
104.64016
  0
LINE
  5
324
100
AcDbEntity
  8
ProjItem
  6
ByLayer
 62
  256
370
   -1
100
AcDbLine
 10
128.490159
 20
104.64016
 11
128.290159
 21
104.64016
  0
LINE
  5
325
100
AcDbEntity
  8
ProjItem
  6
ByLayer
 62
  256
370
   -1
100
AcDbLine
 10
128.290159
 20
103.24016
 11
128.490159
 21
103.24016
  0
LINE
  5
326
100
AcDbEntity
  8
ProjItem
  6
ByLayer
 62
  256
370
   -1
100
AcDbLine
 10
125.090159
 20
107.44016
 11
125.090159
 21
108.34016
  0
LINE
  5
327
100
AcDbEntity
  8
ProjItem
  6
ByLayer
 62
  256
370
   -1
100
AcDbLine
 10
125.090159
 20
108.34016
 11
124.490159
 21
108.34016
  0
LINE
  5
328
100
AcDbEntity
  8
ProjItem
  6
ByLayer
 62
  256
370
   -1
100
AcDbLine
 10
124.490159
 20
108.34016
 11
124.490159
 21
107.44016
  0
LINE
  5
329
100
AcDbEntity
  8
ProjItem
  6
ByLayer
 62
  256
370
   -1
100
AcDbLine
 10
126.090159
 20
107.44016
 11
126.090159
 21
108.34016
  0
LINE
  5
32A
100
AcDbEntity
  8
ProjItem
  6
ByLayer
 62
  256
370
   -1
100
AcDbLine
 10
126.090159
 20
108.34016
 11
125.490159
 21
108.34016
  0
LINE
  5
32B
100
AcDbEntity
  8
ProjItem
  6
ByLayer
 62
  256
370
   -1
100
AcDbLine
 10
125.490159
 20
108.34016
 11
125.490159
 21
107.44016
  0
LINE
  5
32C
100
AcDbEntity
  8
ProjItem
  6
ByLayer
 62
  256
370
   -1
100
AcDbLine
 10
127.090159
 20
107.44016
 11
127.090159
 21
108.34016
  0
LINE
  5
32D
100
AcDbEntity
  8
ProjItem
  6
ByLayer
 62
  256
370
   -1
100
AcDbLine
 10
127.090159
 20
108.34016
 11
126.490159
 21
108.34016
  0
LINE
  5
32E
100
AcDbEntity
  8
ProjItem
  6
ByLayer
 62
  256
370
   -1
100
AcDbLine
 10
126.490159
 20
108.34016
 11
126.490159
 21
107.44016
  0
LINE
  5
32F
100
AcDbEntity
  8
ProjItem
  6
ByLayer
 62
  256
370
   -1
100
AcDbLine
 10
123.090159
 20
107.44016
 11
123.090159
 21
108.34016
  0
LINE
  5
330
100
AcDbEntity
  8
ProjItem
  6
ByLayer
 62
  256
370
   -1
100
AcDbLine
 10
123.090159
 20
108.34016
 11
122.490159
 21
108.34016
  0
LINE
  5
331
100
AcDbEntity
  8
ProjItem
  6
ByLayer
 62
  256
370
   -1
100
AcDbLine
 10
122.490159
 20
108.34016
 11
122.490159
 21
107.44016
  0
LINE
  5
332
100
AcDbEntity
  8
ProjItem
  6
ByLayer
 62
  256
370
   -1
100
AcDbLine
 10
128.615159
 20
107.86516
 11
128.615159
 21
107.21516
  0
LINE
  5
333
100
AcDbEntity
  8
ProjItem
  6
ByLayer
 62
  256
370
   -1
100
AcDbLine
 10
128.615159
 20
107.21516
 11
128.640159
 21
107.21516
  0
LINE
  5
334
100
AcDbEntity
  8
ProjItem
  6
ByLayer
 62
  256
370
   -1
100
AcDbLine
 10
129.140159
 20
107.21516
 11
129.165159
 21
107.21516
  0
LINE
  5
335
100
AcDbEntity
  8
ProjItem
  6
ByLayer
 62
  256
370
   -1
100
AcDbLine
 10
129.165159
 20
107.21516
 11
129.165159
 21
107.86516
  0
LINE
  5
336
100
AcDbEntity
  8
ProjItem
  6
ByLayer
 62
  256
370
   -1
100
AcDbLine
 10
129.165159
 20
107.86516
 11
128.615159
 21
107.86516
  0
LINE
  5
337
100
AcDbEntity
  8
ProjItem
  6
ByLayer
 62
  256
370
   -1
100
AcDbLine
 10
128.615159
 20
106.66516
 11
128.615159
 21
106.01516
  0
LINE
  5
338
100
AcDbEntity
  8
ProjItem
  6
ByLayer
 62
  256
370
   -1
100
AcDbLine
 10
128.615159
 20
106.01516
 11
129.165159
 21
106.01516
  0
LINE
  5
339
100
AcDbEntity
  8
ProjItem
  6
ByLayer
 62
  256
370
   -1
100
AcDbLine
 10
129.165159
 20
106.01516
 11
129.165159
 21
106.66516
  0
LINE
  5
33A
100
AcDbEntity
  8
ProjItem
  6
ByLayer
 62
  256
370
   -1
100
AcDbLine
 10
129.165159
 20
106.66516
 11
129.140159
 21
106.66516
  0
LINE
  5
33B
100
AcDbEntity
  8
ProjItem
  6
ByLayer
 62
  256
370
   -1
100
AcDbLine
 10
128.640159
 20
106.66516
 11
128.615159
 21
106.66516
  0
LINE
  5
33C
100
AcDbEntity
  8
ProjItem
  6
ByLayer
 62
  256
370
   -1
100
AcDbLine
 10
122.290159
 20
108.79016
 11
122.690159
 21
108.79016
  0
LINE
  5
33D
100
AcDbEntity
  8
ProjItem
  6
ByLayer
 62
  256
370
   -1
100
AcDbLine
 10
122.690159
 20
109.49016
 11
122.290159
 21
109.49016
  0
LINE
  5
33E
100
AcDbEntity
  8
ProjItem
  6
ByLayer
 62
  256
370
   -1
100
AcDbLine
 10
122.290159
 20
109.49016
 11
122.290159
 21
108.79016
  0
LINE
  5
33F
100
AcDbEntity
  8
ProjItem
  6
ByLayer
 62
  256
370
   -1
100
AcDbLine
 10
122.290159
 20
110.99016
 11
122.690159
 21
110.99016
  0
LINE
  5
340
100
AcDbEntity
  8
ProjItem
  6
ByLayer
 62
  256
370
   -1
100
AcDbLine
 10
122.690159
 20
111.69016
 11
122.290159
 21
111.69016
  0
LINE
  5
341
100
AcDbEntity
  8
ProjItem
  6
ByLayer
 62
  256
370
   -1
100
AcDbLine
 10
122.290159
 20
111.69016
 11
122.290159
 21
110.99016
  0
LINE
  5
342
100
AcDbEntity
  8
ProjItem
  6
ByLayer
 62
  256
370
   -1
100
AcDbLine
 10
126.890159
 20
108.79016
 11
127.290159
 21
108.79016
  0
LINE
  5
343
100
AcDbEntity
  8
ProjItem
  6
ByLayer
 62
  256
370
   -1
100
AcDbLine
 10
127.290159
 20
108.79016
 11
127.290159
 21
109.49016
  0
LINE
  5
344
100
AcDbEntity
  8
ProjItem
  6
ByLayer
 62
  256
370
   -1
100
AcDbLine
 10
127.290159
 20
109.49016
 11
126.890159
 21
109.49016
  0
LINE
  5
345
100
AcDbEntity
  8
ProjItem
  6
ByLayer
 62
  256
370
   -1
100
AcDbLine
 10
126.890159
 20
110.99016
 11
127.290159
 21
110.99016
  0
LINE
  5
346
100
AcDbEntity
  8
ProjItem
  6
ByLayer
 62
  256
370
   -1
100
AcDbLine
 10
127.290159
 20
110.99016
 11
127.290159
 21
111.69016
  0
LINE
  5
347
100
AcDbEntity
  8
ProjItem
  6
ByLayer
 62
  256
370
   -1
100
AcDbLine
 10
127.290159
 20
111.69016
 11
126.890159
 21
111.69016
  0
LINE
  5
348
100
AcDbEntity
  8
ProjItem
  6
ByLayer
 62
  256
370
   -1
100
AcDbLine
 10
119.790159
 20
103.04016
 11
129.790159
 21
103.04016
  0
LINE
  5
349
100
AcDbEntity
  8
ProjItem
  6
ByLayer
 62
  256
370
   -1
100
AcDbLine
 10
119.790159
 20
113.04016
 11
119.790159
 21
103.04016
  0
LINE
  5
34A
100
AcDbEntity
  8
ProjItem
  6
ByLayer
 62
  256
370
   -1
100
AcDbLine
 10
129.790159
 20
103.04016
 11
129.790159
 21
113.04016
  0
LINE
  5
34B
100
AcDbEntity
  8
ProjItem
  6
ByLayer
 62
  256
370
   -1
100
AcDbLine
 10
129.790159
 20
113.04016
 11
119.790159
 21
113.04016
  0
CIRCLE
  5
34C
100
AcDbEntity
  8
ProjItem
  6
ByLayer
 62
  256
370
   -1
100
AcDbCircle
 10
121.290159
 20
111.54016
 40
0.751
  0
CIRCLE
  5
34D
100
AcDbEntity
  8
ProjItem
  6
ByLayer
 62
  256
370
   -1
100
AcDbCircle
 10
128.290159
 20
111.54016
 40
0.751
  0
LINE
  5
34E
100
AcDbEntity
  8
ProjItem
  6
ByLayer
 62
  256
370
   -1
100
AcDbLine
 10
119.790159
 20
103.04016
 11
129.790159
 21
103.04016
  0
LINE
  5
34F
100
AcDbEntity
  8
ProjItem
  6
ByLayer
 62
  256
370
   -1
100
AcDbLine
 10
119.790159
 20
113.04016
 11
119.790159
 21
103.04016
  0
LINE
  5
350
100
AcDbEntity
  8
ProjItem
  6
ByLayer
 62
  256
370
   -1
100
AcDbLine
 10
129.790159
 20
103.04016
 11
129.790159
 21
113.04016
  0
LINE
  5
351
100
AcDbEntity
  8
ProjItem
  6
ByLayer
 62
  256
370
   -1
100
AcDbLine
 10
129.790159
 20
113.04016
 11
119.790159
 21
113.04016
  0
CIRCLE
  5
352
100
AcDbEntity
  8
ProjItem
  6
ByLayer
 62
  256
370
   -1
100
AcDbCircle
 10
121.290159
 20
111.54016
 40
0.751
  0
CIRCLE
  5
353
100
AcDbEntity
  8
ProjItem
  6
ByLayer
 62
  256
370
   -1
100
AcDbCircle
 10
128.290159
 20
111.54016
 40
0.751
  0
LINE
  5
354
100
AcDbEntity
  8
ProjItem
  6
ByLayer
 62
  256
370
   -1
100
AcDbLine
 10
128.290159
 20
103.19016
 11
121.290159
 21
103.19016
  0
LINE
  5
355
100
AcDbEntity
  8
ProjItem
  6
ByLayer
 62
  256
370
   -1
100
AcDbLine
 10
121.290159
 20
106.24116
 11
121.290159
 21
103.19016
  0
LINE
  5
356
100
AcDbEntity
  8
ProjItem
  6
ByLayer
 62
  256
370
   -1
100
AcDbLine
 10
121.790159
 20
106.24116
 11
121.290159
 21
106.24116
  0
LINE
  5
357
100
AcDbEntity
  8
ProjItem
  6
ByLayer
 62
  256
370
   -1
100
AcDbLine
 10
121.790159
 20
106.24116
 11
121.790159
 21
106.89016
  0
LINE
  5
358
100
AcDbEntity
  8
ProjItem
  6
ByLayer
 62
  256
370
   -1
100
AcDbLine
 10
127.790159
 20
106.89016
 11
121.790159
 21
106.89016
  0
LINE
  5
359
100
AcDbEntity
  8
ProjItem
  6
ByLayer
 62
  256
370
   -1
100
AcDbLine
 10
127.790159
 20
106.24116
 11
127.790159
 21
106.89016
  0
LINE
  5
35A
100
AcDbEntity
  8
ProjItem
  6
ByLayer
 62
  256
370
   -1
100
AcDbLine
 10
128.290159
 20
106.24116
 11
127.790159
 21
106.24116
  0
LINE
  5
35B
100
AcDbEntity
  8
ProjItem
  6
ByLayer
 62
  256
370
   -1
100
AcDbLine
 10
128.290159
 20
103.19016
 11
128.290159
 21
106.24116
  0
LINE
  5
35C
100
AcDbEntity
  8
ProjItem
  6
ByLayer
 62
  256
370
   -1
100
AcDbLine
 10
128.290159
 20
106.24116
 11
128.290159
 21
106.89016
  0
LINE
  5
35D
100
AcDbEntity
  8
ProjItem
  6
ByLayer
 62
  256
370
   -1
100
AcDbLine
 10
128.290159
 20
106.89016
 11
128.290159
 21
107.44016
  0
LINE
  5
35E
100
AcDbEntity
  8
ProjItem
  6
ByLayer
 62
  256
370
   -1
100
AcDbLine
 10
121.290159
 20
106.89016
 11
121.290159
 21
107.44016
  0
LINE
  5
35F
100
AcDbEntity
  8
ProjItem
  6
ByLayer
 62
  256
370
   -1
100
AcDbLine
 10
121.290159
 20
106.24116
 11
121.290159
 21
106.89016
  0
LINE
  5
360
100
AcDbEntity
  8
ProjItem
  6
ByLayer
 62
  256
370
   -1
100
AcDbLine
 10
127.790159
 20
106.89016
 11
128.290159
 21
106.89016
  0
LINE
  5
361
100
AcDbEntity
  8
ProjItem
  6
ByLayer
 62
  256
370
   -1
100
AcDbLine
 10
127.790159
 20
107.44016
 11
128.290159
 21
107.44016
  0
LINE
  5
362
100
AcDbEntity
  8
ProjItem
  6
ByLayer
 62
  256
370
   -1
100
AcDbLine
 10
121.790159
 20
107.44016
 11
127.790159
 21
107.44016
  0
LINE
  5
363
100
AcDbEntity
  8
ProjItem
  6
ByLayer
 62
  256
370
   -1
100
AcDbLine
 10
121.790159
 20
107.44016
 11
121.290159
 21
107.44016
  0
LINE
  5
364
100
AcDbEntity
  8
ProjItem
  6
ByLayer
 62
  256
370
   -1
100
AcDbLine
 10
121.790159
 20
106.89016
 11
121.290159
 21
106.89016
  0
LINE
  5
365
100
AcDbEntity
  8
ProjItem
  6
ByLayer
 62
  256
370
   -1
100
AcDbLine
 10
121.790159
 20
107.44016
 11
121.790159
 21
106.89016
  0
LINE
  5
366
100
AcDbEntity
  8
ProjItem
  6
ByLayer
 62
  256
370
   -1
100
AcDbLine
 10
127.790159
 20
107.44016
 11
127.790159
 21
106.89016
  0
LINE
  5
367
100
AcDbEntity
  8
ProjItem
  6
ByLayer
 62
  256
370
   -1
100
AcDbLine
 10
122.890159
 20
107.44016
 11
122.890159
 21
108.14016
  0
LINE
  5
368
100
AcDbEntity
  8
ProjItem
  6
ByLayer
 62
  256
370
   -1
100
AcDbLine
 10
122.690159
 20
108.14016
 11
122.890159
 21
108.14016
  0
LINE
  5
369
100
AcDbEntity
  8
ProjItem
  6
ByLayer
 62
  256
370
   -1
100
AcDbLine
 10
122.690159
 20
107.44016
 11
122.690159
 21
108.14016
  0
LINE
  5
36A
100
AcDbEntity
  8
ProjItem
  6
ByLayer
 62
  256
370
   -1
100
AcDbLine
 10
126.890159
 20
107.44016
 11
126.890159
 21
108.14016
  0
LINE
  5
36B
100
AcDbEntity
  8
ProjItem
  6
ByLayer
 62
  256
370
   -1
100
AcDbLine
 10
126.690159
 20
108.14016
 11
126.890159
 21
108.14016
  0
LINE
  5
36C
100
AcDbEntity
  8
ProjItem
  6
ByLayer
 62
  256
370
   -1
100
AcDbLine
 10
126.690159
 20
107.44016
 11
126.690159
 21
108.14016
  0
LINE
  5
36D
100
AcDbEntity
  8
ProjItem
  6
ByLayer
 62
  256
370
   -1
100
AcDbLine
 10
125.890159
 20
107.44016
 11
125.890159
 21
108.14016
  0
LINE
  5
36E
100
AcDbEntity
  8
ProjItem
  6
ByLayer
 62
  256
370
   -1
100
AcDbLine
 10
125.890159
 20
108.14016
 11
125.690159
 21
108.14016
  0
LINE
  5
36F
100
AcDbEntity
  8
ProjItem
  6
ByLayer
 62
  256
370
   -1
100
AcDbLine
 10
125.690159
 20
108.14016
 11
125.690159
 21
107.44016
  0
LINE
  5
370
100
AcDbEntity
  8
ProjItem
  6
ByLayer
 62
  256
370
   -1
100
AcDbLine
 10
124.890159
 20
107.44016
 11
124.890159
 21
108.14016
  0
LINE
  5
371
100
AcDbEntity
  8
ProjItem
  6
ByLayer
 62
  256
370
   -1
100
AcDbLine
 10
124.890159
 20
108.14016
 11
124.690159
 21
108.14016
  0
LINE
  5
372
100
AcDbEntity
  8
ProjItem
  6
ByLayer
 62
  256
370
   -1
100
AcDbLine
 10
124.690159
 20
108.14016
 11
124.690159
 21
107.44016
  0
LINE
  5
373
100
AcDbEntity
  8
ProjItem
  6
ByLayer
 62
  256
370
   -1
100
AcDbLine
 10
123.890159
 20
107.44016
 11
123.890159
 21
108.14016
  0
LINE
  5
374
100
AcDbEntity
  8
ProjItem
  6
ByLayer
 62
  256
370
   -1
100
AcDbLine
 10
123.890159
 20
108.14016
 11
123.690159
 21
108.14016
  0
LINE
  5
375
100
AcDbEntity
  8
ProjItem
  6
ByLayer
 62
  256
370
   -1
100
AcDbLine
 10
123.690159
 20
108.14016
 11
123.690159
 21
107.44016
  0
LINE
  5
376
100
AcDbEntity
  8
ProjItem
  6
ByLayer
 62
  256
370
   -1
100
AcDbLine
 10
128.290159
 20
103.19016
 11
121.290159
 21
103.19016
  0
LINE
  5
377
100
AcDbEntity
  8
ProjItem
  6
ByLayer
 62
  256
370
   -1
100
AcDbLine
 10
121.290159
 20
106.24116
 11
121.290159
 21
103.19016
  0
LINE
  5
378
100
AcDbEntity
  8
ProjItem
  6
ByLayer
 62
  256
370
   -1
100
AcDbLine
 10
121.790159
 20
106.24116
 11
121.290159
 21
106.24116
  0
LINE
  5
379
100
AcDbEntity
  8
ProjItem
  6
ByLayer
 62
  256
370
   -1
100
AcDbLine
 10
121.790159
 20
106.24116
 11
121.790159
 21
106.89016
  0
LINE
  5
37A
100
AcDbEntity
  8
ProjItem
  6
ByLayer
 62
  256
370
   -1
100
AcDbLine
 10
127.790159
 20
106.89016
 11
121.790159
 21
106.89016
  0
LINE
  5
37B
100
AcDbEntity
  8
ProjItem
  6
ByLayer
 62
  256
370
   -1
100
AcDbLine
 10
127.790159
 20
106.24116
 11
127.790159
 21
106.89016
  0
LINE
  5
37C
100
AcDbEntity
  8
ProjItem
  6
ByLayer
 62
  256
370
   -1
100
AcDbLine
 10
128.290159
 20
106.24116
 11
127.790159
 21
106.24116
  0
LINE
  5
37D
100
AcDbEntity
  8
ProjItem
  6
ByLayer
 62
  256
370
   -1
100
AcDbLine
 10
128.290159
 20
103.19016
 11
128.290159
 21
106.24116
  0
LINE
  5
37E
100
AcDbEntity
  8
ProjItem
  6
ByLayer
 62
  256
370
   -1
100
AcDbLine
 10
128.290159
 20
106.24116
 11
128.290159
 21
106.89016
  0
LINE
  5
37F
100
AcDbEntity
  8
ProjItem
  6
ByLayer
 62
  256
370
   -1
100
AcDbLine
 10
128.290159
 20
106.89016
 11
128.290159
 21
107.44016
  0
LINE
  5
380
100
AcDbEntity
  8
ProjItem
  6
ByLayer
 62
  256
370
   -1
100
AcDbLine
 10
121.290159
 20
106.89016
 11
121.290159
 21
107.44016
  0
LINE
  5
381
100
AcDbEntity
  8
ProjItem
  6
ByLayer
 62
  256
370
   -1
100
AcDbLine
 10
121.290159
 20
106.24116
 11
121.290159
 21
106.89016
  0
LINE
  5
382
100
AcDbEntity
  8
ProjItem
  6
ByLayer
 62
  256
370
   -1
100
AcDbLine
 10
127.790159
 20
106.89016
 11
128.290159
 21
106.89016
  0
LINE
  5
383
100
AcDbEntity
  8
ProjItem
  6
ByLayer
 62
  256
370
   -1
100
AcDbLine
 10
127.790159
 20
107.44016
 11
128.290159
 21
107.44016
  0
LINE
  5
384
100
AcDbEntity
  8
ProjItem
  6
ByLayer
 62
  256
370
   -1
100
AcDbLine
 10
121.790159
 20
107.44016
 11
127.790159
 21
107.44016
  0
LINE
  5
385
100
AcDbEntity
  8
ProjItem
  6
ByLayer
 62
  256
370
   -1
100
AcDbLine
 10
121.790159
 20
107.44016
 11
121.290159
 21
107.44016
  0
LINE
  5
386
100
AcDbEntity
  8
ProjItem
  6
ByLayer
 62
  256
370
   -1
100
AcDbLine
 10
121.790159
 20
106.89016
 11
121.290159
 21
106.89016
  0
LINE
  5
387
100
AcDbEntity
  8
ProjItem
  6
ByLayer
 62
  256
370
   -1
100
AcDbLine
 10
121.790159
 20
107.44016
 11
121.790159
 21
106.89016
  0
LINE
  5
388
100
AcDbEntity
  8
ProjItem
  6
ByLayer
 62
  256
370
   -1
100
AcDbLine
 10
127.790159
 20
107.44016
 11
127.790159
 21
106.89016
  0
LINE
  5
389
100
AcDbEntity
  8
ProjItem
  6
ByLayer
 62
  256
370
   -1
100
AcDbLine
 10
122.890159
 20
107.44016
 11
122.890159
 21
108.14016
  0
LINE
  5
38A
100
AcDbEntity
  8
ProjItem
  6
ByLayer
 62
  256
370
   -1
100
AcDbLine
 10
122.690159
 20
108.14016
 11
122.890159
 21
108.14016
  0
LINE
  5
38B
100
AcDbEntity
  8
ProjItem
  6
ByLayer
 62
  256
370
   -1
100
AcDbLine
 10
122.690159
 20
107.44016
 11
122.690159
 21
108.14016
  0
LINE
  5
38C
100
AcDbEntity
  8
ProjItem
  6
ByLayer
 62
  256
370
   -1
100
AcDbLine
 10
126.890159
 20
107.44016
 11
126.890159
 21
108.14016
  0
LINE
  5
38D
100
AcDbEntity
  8
ProjItem
  6
ByLayer
 62
  256
370
   -1
100
AcDbLine
 10
126.690159
 20
108.14016
 11
126.890159
 21
108.14016
  0
LINE
  5
38E
100
AcDbEntity
  8
ProjItem
  6
ByLayer
 62
  256
370
   -1
100
AcDbLine
 10
126.690159
 20
107.44016
 11
126.690159
 21
108.14016
  0
LINE
  5
38F
100
AcDbEntity
  8
ProjItem
  6
ByLayer
 62
  256
370
   -1
100
AcDbLine
 10
125.890159
 20
107.44016
 11
125.890159
 21
108.14016
  0
LINE
  5
390
100
AcDbEntity
  8
ProjItem
  6
ByLayer
 62
  256
370
   -1
100
AcDbLine
 10
125.890159
 20
108.14016
 11
125.690159
 21
108.14016
  0
LINE
  5
391
100
AcDbEntity
  8
ProjItem
  6
ByLayer
 62
  256
370
   -1
100
AcDbLine
 10
125.690159
 20
108.14016
 11
125.690159
 21
107.44016
  0
LINE
  5
392
100
AcDbEntity
  8
ProjItem
  6
ByLayer
 62
  256
370
   -1
100
AcDbLine
 10
124.890159
 20
107.44016
 11
124.890159
 21
108.14016
  0
LINE
  5
393
100
AcDbEntity
  8
ProjItem
  6
ByLayer
 62
  256
370
   -1
100
AcDbLine
 10
124.890159
 20
108.14016
 11
124.690159
 21
108.14016
  0
LINE
  5
394
100
AcDbEntity
  8
ProjItem
  6
ByLayer
 62
  256
370
   -1
100
AcDbLine
 10
124.690159
 20
108.14016
 11
124.690159
 21
107.44016
  0
LINE
  5
395
100
AcDbEntity
  8
ProjItem
  6
ByLayer
 62
  256
370
   -1
100
AcDbLine
 10
123.890159
 20
107.44016
 11
123.890159
 21
108.14016
  0
LINE
  5
396
100
AcDbEntity
  8
ProjItem
  6
ByLayer
 62
  256
370
   -1
100
AcDbLine
 10
123.890159
 20
108.14016
 11
123.690159
 21
108.14016
  0
LINE
  5
397
100
AcDbEntity
  8
ProjItem
  6
ByLayer
 62
  256
370
   -1
100
AcDbLine
 10
123.690159
 20
108.14016
 11
123.690159
 21
107.44016
  0
LINE
  5
398
100
AcDbEntity
  8
ProjItem002
  6
ByLayer
 62
  256
370
   -1
100
AcDbLine
 10
156.538159
 20
103.04016
 11
146.538159
 21
103.04016
  0
LINE
  5
399
100
AcDbEntity
  8
ProjItem002
  6
ByLayer
 62
  256
370
   -1
100
AcDbLine
 10
156.538159
 20
113.04016
 11
156.538159
 21
103.04016
  0
LINE
  5
39A
100
AcDbEntity
  8
ProjItem002
  6
ByLayer
 62
  256
370
   -1
100
AcDbLine
 10
146.538159
 20
103.04016
 11
146.538159
 21
113.04016
  0
LINE
  5
39B
100
AcDbEntity
  8
ProjItem002
  6
ByLayer
 62
  256
370
   -1
100
AcDbLine
 10
146.538159
 20
113.04016
 11
156.538159
 21
113.04016
  0
CIRCLE
  5
39C
100
AcDbEntity
  8
ProjItem002
  6
ByLayer
 62
  256
370
   -1
100
AcDbCircle
 10
155.038159
 20
111.54016
 40
0.751
  0
CIRCLE
  5
39D
100
AcDbEntity
  8
ProjItem002
  6
ByLayer
 62
  256
370
   -1
100
AcDbCircle
 10
148.038159
 20
111.54016
 40
0.751
  0
LINE
  5
39E
100
AcDbEntity
  8
ProjItem002
  6
ByLayer
 62
  256
370
   -1
100
AcDbLine
 10
156.538159
 20
103.04016
 11
146.538159
 21
103.04016
  0
LINE
  5
39F
100
AcDbEntity
  8
ProjItem002
  6
ByLayer
 62
  256
370
   -1
100
AcDbLine
 10
156.538159
 20
113.04016
 11
156.538159
 21
103.04016
  0
LINE
  5
3A0
100
AcDbEntity
  8
ProjItem002
  6
ByLayer
 62
  256
370
   -1
100
AcDbLine
 10
146.538159
 20
103.04016
 11
146.538159
 21
113.04016
  0
LINE
  5
3A1
100
AcDbEntity
  8
ProjItem002
  6
ByLayer
 62
  256
370
   -1
100
AcDbLine
 10
146.538159
 20
113.04016
 11
156.538159
 21
113.04016
  0
CIRCLE
  5
3A2
100
AcDbEntity
  8
ProjItem002
  6
ByLayer
 62
  256
370
   -1
100
AcDbCircle
 10
155.038159
 20
111.54016
 40
0.751
  0
CIRCLE
  5
3A3
100
AcDbEntity
  8
ProjItem002
  6
ByLayer
 62
  256
370
   -1
100
AcDbCircle
 10
148.038159
 20
111.54016
 40
0.751
  0
LINE
  5
3A4
100
AcDbEntity
  8
ProjItem001
  6
ByLayer
 62
  256
370
   -1
100
AcDbLine
 10
136.390159
 20
111.84016
 11
137.840159
 21
111.84016
  0
LINE
  5
3A5
100
AcDbEntity
  8
ProjItem001
  6
ByLayer
 62
  256
370
   -1
100
AcDbLine
 10
136.460159
 20
109.44016
 11
136.460159
 21
108.89016
  0
LINE
  5
3A6
100
AcDbEntity
  8
ProjItem001
  6
ByLayer
 62
  256
370
   -1
100
AcDbLine
 10
136.460159
 20
111.59016
 11
136.460159
 21
111.04016
  0
LINE
  5
3A7
100
AcDbEntity
  8
ProjItem001
  6
ByLayer
 62
  256
370
   -1
100
AcDbLine
 10
137.840159
 20
111.10016
 11
137.840159
 21
111.84016
  0
LINE
  5
3A8
100
AcDbEntity
  8
ProjItem001
  6
ByLayer
 62
  256
370
   -1
100
AcDbLine
 10
137.940159
 20
111.84016
 11
137.840159
 21
111.84016
  0
LINE
  5
3A9
100
AcDbEntity
  8
ProjItem001
  6
ByLayer
 62
  256
370
   -1
100
AcDbLine
 10
136.390159
 20
108.64016
 11
137.840159
 21
108.64016
  0
LINE
  5
3AA
100
AcDbEntity
  8
ProjItem001
  6
ByLayer
 62
  256
370
   -1
100
AcDbLine
 10
137.840159
 20
108.64016
 11
137.840159
 21
109.38016
  0
LINE
  5
3AB
100
AcDbEntity
  8
ProjItem001
  6
ByLayer
 62
  256
370
   -1
100
AcDbLine
 10
136.460159
 20
109.44016
 11
136.460159
 21
108.89016
  0
LINE
  5
3AC
100
AcDbEntity
  8
ProjItem001
  6
ByLayer
 62
  256
370
   -1
100
AcDbLine
 10
136.460159
 20
111.59016
 11
136.460159
 21
111.04016
  0
LINE
  5
3AD
100
AcDbEntity
  8
ProjItem001
  6
ByLayer
 62
  256
370
   -1
100
AcDbLine
 10
137.940159
 20
111.10016
 11
137.840159
 21
111.10016
  0
LINE
  5
3AE
100
AcDbEntity
  8
ProjItem001
  6
ByLayer
 62
  256
370
   -1
100
AcDbLine
 10
137.940159
 20
110.98316
 11
138.240159
 21
110.98316
  0
LINE
  5
3AF
100
AcDbEntity
  8
ProjItem001
  6
ByLayer
 62
  256
370
   -1
100
AcDbLine
 10
138.240159
 20
111.61316
 11
138.240159
 21
110.98316
  0
LINE
  5
3B0
100
AcDbEntity
  8
ProjItem001
  6
ByLayer
 62
  256
370
   -1
100
AcDbLine
 10
138.240159
 20
111.61316
 11
137.840159
 21
111.61316
  0
LINE
  5
3B1
100
AcDbEntity
  8
ProjItem001
  6
ByLayer
 62
  256
370
   -1
100
AcDbLine
 10
138.240159
 20
111.79016
 11
138.240159
 21
111.61316
  0
LINE
  5
3B2
100
AcDbEntity
  8
ProjItem001
  6
ByLayer
 62
  256
370
   -1
100
AcDbLine
 10
138.240159
 20
111.79016
 11
137.840159
 21
111.79016
  0
LINE
  5
3B3
100
AcDbEntity
  8
ProjItem001
  6
ByLayer
 62
  256
370
   -1
100
AcDbLine
 10
137.940159
 20
111.84016
 11
137.940159
 21
111.79016
  0
LINE
  5
3B4
100
AcDbEntity
  8
ProjItem001
  6
ByLayer
 62
  256
370
   -1
100
AcDbLine
 10
137.940159
 20
109.38016
 11
137.940159
 21
111.10016
  0
LINE
  5
3B5
100
AcDbEntity
  8
ProjItem001
  6
ByLayer
 62
  256
370
   -1
100
AcDbLine
 10
137.940159
 20
108.64016
 11
137.940159
 21
108.69016
  0
LINE
  5
3B6
100
AcDbEntity
  8
ProjItem001
  6
ByLayer
 62
  256
370
   -1
100
AcDbLine
 10
137.940159
 20
109.38016
 11
137.840159
 21
109.38016
  0
SPLINE
  5
3B7
100
AcDbEntity
  8
ProjItem001
  6
ByLayer
 62
  256
370
   -1
100
AcDbSpline
210
0
220
0
230
0
 70
    8
 71
    3
 72
    8
 73
    4
 74
    0
 42
1e-07
 43
1e-07
 40
3.26726
 40
3.26726
 40
3.26726
 40
3.26726
 40
4.71239
 40
4.71239
 40
4.71239
 40
4.71239
 10
136.547159
 20
109.44016
 30
0
 10
136.499159
 20
109.44016
 30
0
 10
136.459159
 20
109.44016
 30
0
 10
136.460159
 20
109.44016
 30
0
  0
SPLINE
  5
3B8
100
AcDbEntity
  8
ProjItem001
  6
ByLayer
 62
  256
370
   -1
100
AcDbSpline
210
0
220
0
230
0
 70
    8
 71
    3
 72
    8
 73
    4
 74
    0
 42
1e-07
 43
1e-07
 40
3.26726
 40
3.26726
 40
3.26726
 40
3.26726
 40
4.71239
 40
4.71239
 40
4.71239
 40
4.71239
 10
136.547159
 20
108.89016
 30
0
 10
136.499159
 20
108.89016
 30
0
 10
136.459159
 20
108.89016
 30
0
 10
136.460159
 20
108.89016
 30
0
  0
LINE
  5
3B9
100
AcDbEntity
  8
ProjItem001
  6
ByLayer
 62
  256
370
   -1
100
AcDbLine
 10
136.947159
 20
109.44016
 11
136.934159
 21
109.44016
  0
LINE
  5
3BA
100
AcDbEntity
  8
ProjItem001
  6
ByLayer
 62
  256
370
   -1
100
AcDbLine
 10
136.934159
 20
109.44016
 11
136.547159
 21
109.44016
  0
LINE
  5
3BB
100
AcDbEntity
  8
ProjItem001
  6
ByLayer
 62
  256
370
   -1
100
AcDbLine
 10
136.947159
 20
108.89016
 11
136.934159
 21
108.89016
  0
LINE
  5
3BC
100
AcDbEntity
  8
ProjItem001
  6
ByLayer
 62
  256
370
   -1
100
AcDbLine
 10
136.934159
 20
108.89016
 11
136.547159
 21
108.89016
  0
LINE
  5
3BD
100
AcDbEntity
  8
ProjItem001
  6
ByLayer
 62
  256
370
   -1
100
AcDbLine
 10
136.947159
 20
109.44016
 11
136.947159
 21
108.89016
  0
SPLINE
  5
3BE
100
AcDbEntity
  8
ProjItem001
  6
ByLayer
 62
  256
370
   -1
100
AcDbSpline
210
0
220
0
230
0
 70
    8
 71
    3
 72
    8
 73
    4
 74
    0
 42
1e-07
 43
1e-07
 40
3.26726
 40
3.26726
 40
3.26726
 40
3.26726
 40
4.71239
 40
4.71239
 40
4.71239
 40
4.71239
 10
136.547159
 20
111.59016
 30
0
 10
136.499159
 20
111.59016
 30
0
 10
136.459159
 20
111.59016
 30
0
 10
136.460159
 20
111.59016
 30
0
  0
SPLINE
  5
3BF
100
AcDbEntity
  8
ProjItem001
  6
ByLayer
 62
  256
370
   -1
100
AcDbSpline
210
0
220
0
230
0
 70
    8
 71
    3
 72
    8
 73
    4
 74
    0
 42
1e-07
 43
1e-07
 40
3.26726
 40
3.26726
 40
3.26726
 40
3.26726
 40
4.71239
 40
4.71239
 40
4.71239
 40
4.71239
 10
136.547159
 20
111.04016
 30
0
 10
136.499159
 20
111.04016
 30
0
 10
136.459159
 20
111.04016
 30
0
 10
136.460159
 20
111.04016
 30
0
  0
LINE
  5
3C0
100
AcDbEntity
  8
ProjItem001
  6
ByLayer
 62
  256
370
   -1
100
AcDbLine
 10
136.947159
 20
111.04016
 11
136.934159
 21
111.04016
  0
LINE
  5
3C1
100
AcDbEntity
  8
ProjItem001
  6
ByLayer
 62
  256
370
   -1
100
AcDbLine
 10
136.934159
 20
111.04016
 11
136.547159
 21
111.04016
  0
LINE
  5
3C2
100
AcDbEntity
  8
ProjItem001
  6
ByLayer
 62
  256
370
   -1
100
AcDbLine
 10
136.947159
 20
111.59016
 11
136.947159
 21
111.04016
  0
LINE
  5
3C3
100
AcDbEntity
  8
ProjItem001
  6
ByLayer
 62
  256
370
   -1
100
AcDbLine
 10
136.947159
 20
111.59016
 11
136.934159
 21
111.59016
  0
LINE
  5
3C4
100
AcDbEntity
  8
ProjItem001
  6
ByLayer
 62
  256
370
   -1
100
AcDbLine
 10
136.934159
 20
111.59016
 11
136.547159
 21
111.59016
  0
LINE
  5
3C5
100
AcDbEntity
  8
ProjItem001
  6
ByLayer
 62
  256
370
   -1
100
AcDbLine
 10
137.940159
 20
108.64016
 11
137.840159
 21
108.64016
  0
LINE
  5
3C6
100
AcDbEntity
  8
ProjItem001
  6
ByLayer
 62
  256
370
   -1
100
AcDbLine
 10
137.940159
 20
109.49716
 11
138.240159
 21
109.49716
  0
LINE
  5
3C7
100
AcDbEntity
  8
ProjItem001
  6
ByLayer
 62
  256
370
   -1
100
AcDbLine
 10
138.240159
 20
109.49716
 11
138.240159
 21
108.86716
  0
LINE
  5
3C8
100
AcDbEntity
  8
ProjItem001
  6
ByLayer
 62
  256
370
   -1
100
AcDbLine
 10
137.840159
 20
108.86716
 11
138.240159
 21
108.86716
  0
LINE
  5
3C9
100
AcDbEntity
  8
ProjItem001
  6
ByLayer
 62
  256
370
   -1
100
AcDbLine
 10
138.240159
 20
108.69016
 11
137.840159
 21
108.69016
  0
LINE
  5
3CA
100
AcDbEntity
  8
ProjItem001
  6
ByLayer
 62
  256
370
   -1
100
AcDbLine
 10
138.240159
 20
111.34016
 11
138.890159
 21
111.34016
  0
LINE
  5
3CB
100
AcDbEntity
  8
ProjItem001
  6
ByLayer
 62
  256
370
   -1
100
AcDbLine
 10
138.240159
 20
111.34016
 11
138.890159
 21
111.34016
  0
LINE
  5
3CC
100
AcDbEntity
  8
ProjItem001
  6
ByLayer
 62
  256
370
   -1
100
AcDbLine
 10
138.240159
 20
109.14016
 11
138.890159
 21
109.14016
  0
SPLINE
  5
3CD
100
AcDbEntity
  8
ProjItem001
  6
ByLayer
 62
  256
370
   -1
100
AcDbSpline
210
0
220
0
230
0
 70
    8
 71
    1
 72
   17
 73
   15
 74
    0
 42
1e-07
 43
1e-07
 40
1.5708
 40
1.5708
 40
1.7952
 40
2.0196
 40
2.24399
 40
2.46839
 40
2.69279
 40
2.91719
 40
3.14159
 40
3.36599
 40
3.59039
 40
3.81479
 40
4.03919
 40
4.26359
 40
4.48799
 40
4.71239
 40
4.71239
 10
138.890159
 20
111.34016
 30
0
 10
138.890159
 20
111.31216
 30
0
 10
138.890159
 20
111.23116
 30
0
 10
138.890159
 20
111.10016
 30
0
 10
138.890159
 20
110.92616
 30
0
 10
138.890159
 20
110.71716
 30
0
 10
138.890159
 20
110.48516
 30
0
 10
138.890159
 20
110.24016
 30
0
 10
138.890159
 20
109.99516
 30
0
 10
138.890159
 20
109.76316
 30
0
 10
138.890159
 20
109.55416
 30
0
 10
138.890159
 20
109.38016
 30
0
 10
138.890159
 20
109.24916
 30
0
 10
138.890159
 20
109.16816
 30
0
 10
138.890159
 20
109.14016
 30
0
  0
LINE
  5
3CE
100
AcDbEntity
  8
ProjItem001
  6
ByLayer
 62
  256
370
   -1
100
AcDbLine
 10
138.240159
 20
108.86716
 11
138.240159
 21
108.69016
  0
LINE
  5
3CF
100
AcDbEntity
  8
ProjItem001
  6
ByLayer
 62
  256
370
   -1
100
AcDbLine
 10
136.934159
 20
109.44016
 11
136.934159
 21
108.89016
  0
LINE
  5
3D0
100
AcDbEntity
  8
ProjItem001
  6
ByLayer
 62
  256
370
   -1
100
AcDbLine
 10
136.934159
 20
111.59016
 11
136.934159
 21
111.04016
  0
LINE
  5
3D1
100
AcDbEntity
  8
ProjItem001
  6
ByLayer
 62
  256
370
   -1
100
AcDbLine
 10
136.390159
 20
104.64016
 11
136.390159
 21
104.64016
  0
SPLINE
  5
3D2
100
AcDbEntity
  8
ProjItem001
  6
ByLayer
 62
  256
370
   -1
100
AcDbSpline
210
0
220
0
230
0
 70
    8
 71
    1
 72
    4
 73
    2
 74
    0
 42
1e-07
 43
1e-07
 40
0
 40
0
 40
1.5708
 40
1.5708
 10
136.390159
 20
104.64016
 30
0
 10
136.390159
 20
104.63616
 30
0
  0
SPLINE
  5
3D3
100
AcDbEntity
  8
ProjItem001
  6
ByLayer
 62
  256
370
   -1
100
AcDbSpline
210
0
220
0
230
0
 70
    8
 71
    1
 72
    4
 73
    2
 74
    0
 42
1e-07
 43
1e-07
 40
0
 40
0
 40
1.5708
 40
1.5708
 10
136.390159
 20
104.64016
 30
0
 10
136.390159
 20
104.63616
 30
0
  0
LINE
  5
3D4
100
AcDbEntity
  8
ProjItem001
  6
ByLayer
 62
  256
370
   -1
100
AcDbLine
 10
136.390159
 20
104.63616
 11
136.390159
 21
103.24416
  0
LINE
  5
3D5
100
AcDbEntity
  8
ProjItem001
  6
ByLayer
 62
  256
370
   -1
100
AcDbLine
 10
136.390159
 20
104.63616
 11
136.390159
 21
103.24416
  0
SPLINE
  5
3D6
100
AcDbEntity
  8
ProjItem001
  6
ByLayer
 62
  256
370
   -1
100
AcDbSpline
210
0
220
0
230
0
 70
    8
 71
    1
 72
    4
 73
    2
 74
    0
 42
1e-07
 43
1e-07
 40
0
 40
0
 40
1.5708
 40
1.5708
 10
136.390159
 20
103.24416
 30
0
 10
136.390159
 20
103.24016
 30
0
  0
LINE
  5
3D7
100
AcDbEntity
  8
ProjItem001
  6
ByLayer
 62
  256
370
   -1
100
AcDbLine
 10
136.390159
 20
103.24016
 11
136.390159
 21
103.24016
  0
SPLINE
  5
3D8
100
AcDbEntity
  8
ProjItem001
  6
ByLayer
 62
  256
370
   -1
100
AcDbSpline
210
0
220
0
230
0
 70
    8
 71
    1
 72
    4
 73
    2
 74
    0
 42
1e-07
 43
1e-07
 40
0
 40
0
 40
1.5708
 40
1.5708
 10
136.390159
 20
103.24416
 30
0
 10
136.390159
 20
103.24016
 30
0
  0
LINE
  5
3D9
100
AcDbEntity
  8
ProjItem001
  6
ByLayer
 62
  256
370
   -1
100
AcDbLine
 10
136.390159
 20
108.34016
 11
136.390159
 21
108.34016
  0
LINE
  5
3DA
100
AcDbEntity
  8
ProjItem001
  6
ByLayer
 62
  256
370
   -1
100
AcDbLine
 10
136.390159
 20
108.34016
 11
136.390159
 21
107.44016
  0
LINE
  5
3DB
100
AcDbEntity
  8
ProjItem001
  6
ByLayer
 62
  256
370
   -1
100
AcDbLine
 10
136.390159
 20
108.34016
 11
136.390159
 21
107.44016
  0
LINE
  5
3DC
100
AcDbEntity
  8
ProjItem001
  6
ByLayer
 62
  256
370
   -1
100
AcDbLine
 10
136.390159
 20
108.79016
 11
136.390159
 21
108.79016
  0
LINE
  5
3DD
100
AcDbEntity
  8
ProjItem001
  6
ByLayer
 62
  256
370
   -1
100
AcDbLine
 10
136.390159
 20
109.49016
 11
136.390159
 21
109.49016
  0
LINE
  5
3DE
100
AcDbEntity
  8
ProjItem001
  6
ByLayer
 62
  256
370
   -1
100
AcDbLine
 10
136.390159
 20
109.49016
 11
136.390159
 21
108.79016
  0
LINE
  5
3DF
100
AcDbEntity
  8
ProjItem001
  6
ByLayer
 62
  256
370
   -1
100
AcDbLine
 10
136.390159
 20
109.49016
 11
136.390159
 21
108.79016
  0
LINE
  5
3E0
100
AcDbEntity
  8
ProjItem001
  6
ByLayer
 62
  256
370
   -1
100
AcDbLine
 10
136.390159
 20
110.99016
 11
136.390159
 21
110.99016
  0
LINE
  5
3E1
100
AcDbEntity
  8
ProjItem001
  6
ByLayer
 62
  256
370
   -1
100
AcDbLine
 10
136.390159
 20
111.69016
 11
136.390159
 21
111.69016
  0
LINE
  5
3E2
100
AcDbEntity
  8
ProjItem001
  6
ByLayer
 62
  256
370
   -1
100
AcDbLine
 10
136.390159
 20
111.69016
 11
136.390159
 21
110.99016
  0
LINE
  5
3E3
100
AcDbEntity
  8
ProjItem001
  6
ByLayer
 62
  256
370
   -1
100
AcDbLine
 10
136.390159
 20
111.69016
 11
136.390159
 21
110.99016
  0
LINE
  5
3E4
100
AcDbEntity
  8
ProjItem001
  6
ByLayer
 62
  256
370
   -1
100
AcDbLine
 10
136.390159
 20
104.64016
 11
136.390159
 21
104.64016
  0
SPLINE
  5
3E5
100
AcDbEntity
  8
ProjItem001
  6
ByLayer
 62
  256
370
   -1
100
AcDbSpline
210
0
220
0
230
0
 70
    8
 71
    1
 72
    4
 73
    2
 74
    0
 42
1e-07
 43
1e-07
 40
0
 40
0
 40
1.5708
 40
1.5708
 10
136.390159
 20
104.64016
 30
0
 10
136.390159
 20
104.63616
 30
0
  0
SPLINE
  5
3E6
100
AcDbEntity
  8
ProjItem001
  6
ByLayer
 62
  256
370
   -1
100
AcDbSpline
210
0
220
0
230
0
 70
    8
 71
    1
 72
    4
 73
    2
 74
    0
 42
1e-07
 43
1e-07
 40
0
 40
0
 40
1.5708
 40
1.5708
 10
136.390159
 20
104.64016
 30
0
 10
136.390159
 20
104.63616
 30
0
  0
LINE
  5
3E7
100
AcDbEntity
  8
ProjItem001
  6
ByLayer
 62
  256
370
   -1
100
AcDbLine
 10
136.390159
 20
104.63616
 11
136.390159
 21
103.24416
  0
LINE
  5
3E8
100
AcDbEntity
  8
ProjItem001
  6
ByLayer
 62
  256
370
   -1
100
AcDbLine
 10
136.390159
 20
104.63616
 11
136.390159
 21
103.24416
  0
SPLINE
  5
3E9
100
AcDbEntity
  8
ProjItem001
  6
ByLayer
 62
  256
370
   -1
100
AcDbSpline
210
0
220
0
230
0
 70
    8
 71
    1
 72
    4
 73
    2
 74
    0
 42
1e-07
 43
1e-07
 40
0
 40
0
 40
1.5708
 40
1.5708
 10
136.390159
 20
103.24416
 30
0
 10
136.390159
 20
103.24016
 30
0
  0
LINE
  5
3EA
100
AcDbEntity
  8
ProjItem001
  6
ByLayer
 62
  256
370
   -1
100
AcDbLine
 10
136.390159
 20
103.24016
 11
136.390159
 21
103.24016
  0
SPLINE
  5
3EB
100
AcDbEntity
  8
ProjItem001
  6
ByLayer
 62
  256
370
   -1
100
AcDbSpline
210
0
220
0
230
0
 70
    8
 71
    1
 72
    4
 73
    2
 74
    0
 42
1e-07
 43
1e-07
 40
0
 40
0
 40
1.5708
 40
1.5708
 10
136.390159
 20
103.24416
 30
0
 10
136.390159
 20
103.24016
 30
0
  0
LINE
  5
3EC
100
AcDbEntity
  8
ProjItem001
  6
ByLayer
 62
  256
370
   -1
100
AcDbLine
 10
136.390159
 20
108.34016
 11
136.390159
 21
108.34016
  0
LINE
  5
3ED
100
AcDbEntity
  8
ProjItem001
  6
ByLayer
 62
  256
370
   -1
100
AcDbLine
 10
136.390159
 20
108.34016
 11
136.390159
 21
107.44016
  0
LINE
  5
3EE
100
AcDbEntity
  8
ProjItem001
  6
ByLayer
 62
  256
370
   -1
100
AcDbLine
 10
136.390159
 20
108.34016
 11
136.390159
 21
107.44016
  0
LINE
  5
3EF
100
AcDbEntity
  8
ProjItem001
  6
ByLayer
 62
  256
370
   -1
100
AcDbLine
 10
136.390159
 20
108.79016
 11
136.390159
 21
108.79016
  0
LINE
  5
3F0
100
AcDbEntity
  8
ProjItem001
  6
ByLayer
 62
  256
370
   -1
100
AcDbLine
 10
136.390159
 20
109.49016
 11
136.390159
 21
109.49016
  0
LINE
  5
3F1
100
AcDbEntity
  8
ProjItem001
  6
ByLayer
 62
  256
370
   -1
100
AcDbLine
 10
136.390159
 20
109.49016
 11
136.390159
 21
108.79016
  0
LINE
  5
3F2
100
AcDbEntity
  8
ProjItem001
  6
ByLayer
 62
  256
370
   -1
100
AcDbLine
 10
136.390159
 20
109.49016
 11
136.390159
 21
108.79016
  0
LINE
  5
3F3
100
AcDbEntity
  8
ProjItem001
  6
ByLayer
 62
  256
370
   -1
100
AcDbLine
 10
136.390159
 20
110.99016
 11
136.390159
 21
110.99016
  0
LINE
  5
3F4
100
AcDbEntity
  8
ProjItem001
  6
ByLayer
 62
  256
370
   -1
100
AcDbLine
 10
136.390159
 20
111.69016
 11
136.390159
 21
111.69016
  0
LINE
  5
3F5
100
AcDbEntity
  8
ProjItem001
  6
ByLayer
 62
  256
370
   -1
100
AcDbLine
 10
136.390159
 20
111.69016
 11
136.390159
 21
110.99016
  0
LINE
  5
3F6
100
AcDbEntity
  8
ProjItem001
  6
ByLayer
 62
  256
370
   -1
100
AcDbLine
 10
136.390159
 20
111.69016
 11
136.390159
 21
110.99016
  0
LINE
  5
3F7
100
AcDbEntity
  8
ProjItem001
  6
ByLayer
 62
  256
370
   -1
100
AcDbLine
 10
135.790159
 20
103.04016
 11
136.390159
 21
103.04016
  0
LINE
  5
3F8
100
AcDbEntity
  8
ProjItem001
  6
ByLayer
 62
  256
370
   -1
100
AcDbLine
 10
135.790159
 20
113.04016
 11
136.390159
 21
113.04016
  0
LINE
  5
3F9
100
AcDbEntity
  8
ProjItem001
  6
ByLayer
 62
  256
370
   -1
100
AcDbLine
 10
136.390159
 20
113.04016
 11
136.390159
 21
103.04016
  0
LINE
  5
3FA
100
AcDbEntity
  8
ProjItem001
  6
ByLayer
 62
  256
370
   -1
100
AcDbLine
 10
135.790159
 20
113.04016
 11
135.790159
 21
103.04016
  0
LINE
  5
3FB
100
AcDbEntity
  8
ProjItem001
  6
ByLayer
 62
  256
370
   -1
100
AcDbLine
 10
135.790159
 20
103.04016
 11
136.390159
 21
103.04016
  0
LINE
  5
3FC
100
AcDbEntity
  8
ProjItem001
  6
ByLayer
 62
  256
370
   -1
100
AcDbLine
 10
135.790159
 20
113.04016
 11
136.390159
 21
113.04016
  0
LINE
  5
3FD
100
AcDbEntity
  8
ProjItem001
  6
ByLayer
 62
  256
370
   -1
100
AcDbLine
 10
136.390159
 20
113.04016
 11
136.390159
 21
103.04016
  0
LINE
  5
3FE
100
AcDbEntity
  8
ProjItem001
  6
ByLayer
 62
  256
370
   -1
100
AcDbLine
 10
135.790159
 20
113.04016
 11
135.790159
 21
103.04016
  0
LINE
  5
3FF
100
AcDbEntity
  8
ProjItem001
  6
ByLayer
 62
  256
370
   -1
100
AcDbLine
 10
137.645159
 20
103.19016
 11
139.285159
 21
103.19016
  0
LINE
  5
400
100
AcDbEntity
  8
ProjItem001
  6
ByLayer
 62
  256
370
   -1
100
AcDbLine
 10
139.285159
 20
106.24116
 11
139.285159
 21
103.19016
  0
LINE
  5
401
100
AcDbEntity
  8
ProjItem001
  6
ByLayer
 62
  256
370
   -1
100
AcDbLine
 10
139.285159
 20
106.24116
 11
139.285159
 21
106.89016
  0
LINE
  5
402
100
AcDbEntity
  8
ProjItem001
  6
ByLayer
 62
  256
370
   -1
100
AcDbLine
 10
137.645159
 20
103.19016
 11
136.395159
 21
103.19016
  0
LINE
  5
403
100
AcDbEntity
  8
ProjItem001
  6
ByLayer
 62
  256
370
   -1
100
AcDbLine
 10
136.395159
 20
103.19016
 11
136.390159
 21
103.19016
  0
LINE
  5
404
100
AcDbEntity
  8
ProjItem001
  6
ByLayer
 62
  256
370
   -1
100
AcDbLine
 10
137.645159
 20
103.69016
 11
137.645159
 21
103.19016
  0
LINE
  5
405
100
AcDbEntity
  8
ProjItem001
  6
ByLayer
 62
  256
370
   -1
100
AcDbLine
 10
136.995159
 20
103.69016
 11
137.645159
 21
103.69016
  0
LINE
  5
406
100
AcDbEntity
  8
ProjItem001
  6
ByLayer
 62
  256
370
   -1
100
AcDbLine
 10
136.995159
 20
104.69016
 11
136.995159
 21
103.69016
  0
LINE
  5
407
100
AcDbEntity
  8
ProjItem001
  6
ByLayer
 62
  256
370
   -1
100
AcDbLine
 10
136.390159
 20
104.69016
 11
136.995159
 21
104.69016
  0
LINE
  5
408
100
AcDbEntity
  8
ProjItem001
  6
ByLayer
 62
  256
370
   -1
100
AcDbLine
 10
137.845159
 20
107.44016
 11
136.390159
 21
107.44016
  0
LINE
  5
409
100
AcDbEntity
  8
ProjItem001
  6
ByLayer
 62
  256
370
   -1
100
AcDbLine
 10
137.845159
 20
106.89016
 11
137.845159
 21
107.44016
  0
LINE
  5
40A
100
AcDbEntity
  8
ProjItem001
  6
ByLayer
 62
  256
370
   -1
100
AcDbLine
 10
138.845159
 20
106.89016
 11
137.845159
 21
106.89016
  0
LINE
  5
40B
100
AcDbEntity
  8
ProjItem001
  6
ByLayer
 62
  256
370
   -1
100
AcDbLine
 10
138.845159
 20
106.24116
 11
138.845159
 21
106.89016
  0
LINE
  5
40C
100
AcDbEntity
  8
ProjItem001
  6
ByLayer
 62
  256
370
   -1
100
AcDbLine
 10
139.285159
 20
106.24116
 11
138.845159
 21
106.24116
  0
LINE
  5
40D
100
AcDbEntity
  8
ProjItem001
  6
ByLayer
 62
  256
370
   -1
100
AcDbLine
 10
138.845159
 20
106.89016
 11
139.285159
 21
106.89016
  0
LINE
  5
40E
100
AcDbEntity
  8
ProjItem001
  6
ByLayer
 62
  256
370
   -1
100
AcDbLine
 10
138.845159
 20
107.44016
 11
137.845159
 21
107.44016
  0
LINE
  5
40F
100
AcDbEntity
  8
ProjItem001
  6
ByLayer
 62
  256
370
   -1
100
AcDbLine
 10
138.845159
 20
107.44016
 11
138.845159
 21
106.89016
  0
LINE
  5
410
100
AcDbEntity
  8
ProjItem001
  6
ByLayer
 62
  256
370
   -1
100
AcDbLine
 10
136.585159
 20
107.44016
 11
136.585159
 21
108.14016
  0
LINE
  5
411
100
AcDbEntity
  8
ProjItem001
  6
ByLayer
 62
  256
370
   -1
100
AcDbLine
 10
136.585159
 20
108.14016
 11
136.390159
 21
108.14016
  0
LINE
  5
412
100
AcDbEntity
  8
ProjItem001
  6
ByLayer
 62
  256
370
   -1
100
AcDbLine
 10
136.390159
 20
108.14016
 11
136.390159
 21
108.14016
  0
LINE
  5
413
100
AcDbEntity
  8
ProjItem001
  6
ByLayer
 62
  256
370
   -1
100
AcDbLine
 10
137.645159
 20
103.19016
 11
139.285159
 21
103.19016
  0
LINE
  5
414
100
AcDbEntity
  8
ProjItem001
  6
ByLayer
 62
  256
370
   -1
100
AcDbLine
 10
139.285159
 20
106.24116
 11
139.285159
 21
103.19016
  0
LINE
  5
415
100
AcDbEntity
  8
ProjItem001
  6
ByLayer
 62
  256
370
   -1
100
AcDbLine
 10
139.285159
 20
106.24116
 11
139.285159
 21
106.89016
  0
LINE
  5
416
100
AcDbEntity
  8
ProjItem001
  6
ByLayer
 62
  256
370
   -1
100
AcDbLine
 10
137.645159
 20
103.19016
 11
136.395159
 21
103.19016
  0
LINE
  5
417
100
AcDbEntity
  8
ProjItem001
  6
ByLayer
 62
  256
370
   -1
100
AcDbLine
 10
136.395159
 20
103.19016
 11
136.390159
 21
103.19016
  0
LINE
  5
418
100
AcDbEntity
  8
ProjItem001
  6
ByLayer
 62
  256
370
   -1
100
AcDbLine
 10
137.645159
 20
103.69016
 11
137.645159
 21
103.19016
  0
LINE
  5
419
100
AcDbEntity
  8
ProjItem001
  6
ByLayer
 62
  256
370
   -1
100
AcDbLine
 10
136.995159
 20
103.69016
 11
137.645159
 21
103.69016
  0
LINE
  5
41A
100
AcDbEntity
  8
ProjItem001
  6
ByLayer
 62
  256
370
   -1
100
AcDbLine
 10
136.995159
 20
104.69016
 11
136.995159
 21
103.69016
  0
LINE
  5
41B
100
AcDbEntity
  8
ProjItem001
  6
ByLayer
 62
  256
370
   -1
100
AcDbLine
 10
136.390159
 20
104.69016
 11
136.995159
 21
104.69016
  0
LINE
  5
41C
100
AcDbEntity
  8
ProjItem001
  6
ByLayer
 62
  256
370
   -1
100
AcDbLine
 10
137.845159
 20
107.44016
 11
136.390159
 21
107.44016
  0
LINE
  5
41D
100
AcDbEntity
  8
ProjItem001
  6
ByLayer
 62
  256
370
   -1
100
AcDbLine
 10
137.845159
 20
106.89016
 11
137.845159
 21
107.44016
  0
LINE
  5
41E
100
AcDbEntity
  8
ProjItem001
  6
ByLayer
 62
  256
370
   -1
100
AcDbLine
 10
138.845159
 20
106.89016
 11
137.845159
 21
106.89016
  0
LINE
  5
41F
100
AcDbEntity
  8
ProjItem001
  6
ByLayer
 62
  256
370
   -1
100
AcDbLine
 10
138.845159
 20
106.24116
 11
138.845159
 21
106.89016
  0
LINE
  5
420
100
AcDbEntity
  8
ProjItem001
  6
ByLayer
 62
  256
370
   -1
100
AcDbLine
 10
139.285159
 20
106.24116
 11
138.845159
 21
106.24116
  0
LINE
  5
421
100
AcDbEntity
  8
ProjItem001
  6
ByLayer
 62
  256
370
   -1
100
AcDbLine
 10
138.845159
 20
106.89016
 11
139.285159
 21
106.89016
  0
LINE
  5
422
100
AcDbEntity
  8
ProjItem001
  6
ByLayer
 62
  256
370
   -1
100
AcDbLine
 10
138.845159
 20
107.44016
 11
137.845159
 21
107.44016
  0
LINE
  5
423
100
AcDbEntity
  8
ProjItem001
  6
ByLayer
 62
  256
370
   -1
100
AcDbLine
 10
138.845159
 20
107.44016
 11
138.845159
 21
106.89016
  0
LINE
  5
424
100
AcDbEntity
  8
ProjItem001
  6
ByLayer
 62
  256
370
   -1
100
AcDbLine
 10
136.585159
 20
107.44016
 11
136.585159
 21
108.14016
  0
LINE
  5
425
100
AcDbEntity
  8
ProjItem001
  6
ByLayer
 62
  256
370
   -1
100
AcDbLine
 10
136.585159
 20
108.14016
 11
136.390159
 21
108.14016
  0
LINE
  5
426
100
AcDbEntity
  8
ProjItem001
  6
ByLayer
 62
  256
370
   -1
100
AcDbLine
 10
136.390159
 20
108.14016
 11
136.390159
 21
108.14016
  0
LINE
  5
427
100
AcDbEntity
  8
ProjItem001
  6
ByLayer
 62
  256
370
   -1
100
AcDbLine
 10
136.547159
 20
109.44016
 11
136.547159
 21
108.89016
  0
LINE
  5
428
100
AcDbEntity
  8
ProjItem001
  6
ByLayer
 62
  256
370
   -1
100
AcDbLine
 10
136.547159
 20
111.59016
 11
136.547159
 21
111.04016
  0
LINE
  5
429
100
AcDbEntity
  8
ProjItem001
  6
ByLayer
 62
  256
370
   -1
100
AcDbLine
 10
136.390159
 20
104.63616
 11
136.390159
 21
104.63616
  0
LINE
  5
42A
100
AcDbEntity
  8
ProjItem001
  6
ByLayer
 62
  256
370
   -1
100
AcDbLine
 10
136.390159
 20
103.24416
 11
136.390159
 21
103.24416
  0
LINE
  5
42B
100
AcDbEntity
  8
ProjItem001
  6
ByLayer
 62
  256
370
   -1
100
AcDbLine
 10
136.390159
 20
104.63616
 11
136.390159
 21
104.63616
  0
LINE
  5
42C
100
AcDbEntity
  8
ProjItem001
  6
ByLayer
 62
  256
370
   -1
100
AcDbLine
 10
136.390159
 20
103.24416
 11
136.390159
 21
103.24416
  0
LINE
  5
42D
100
AcDbEntity
  8
ProjItem001
  6
ByLayer
 62
  256
370
   -1
100
AcDbLine
 10
137.840159
 20
109.38016
 11
137.840159
 21
111.10016
  0
LINE
  5
42E
100
AcDbEntity
  8
leader
  6
ByLayer
 62
  256
370
   -1
100
AcDbLine
 10
124.790159
 20
111.84016
 11
124.790159
 21
108.64016
  0
LINE
  5
42F
100
AcDbEntity
  8
leader
  6
ByLayer
 62
  256
370
   -1
100
AcDbLine
 10
124.790159
 20
107.44016
 11
124.790159
 21
103.19016
  0
LINE
  5
430
100
AcDbEntity
  8
leader
  6
ByLayer
 62
  256
370
   -1
100
AcDbLine
 10
136.390159
 20
110.24016
 11
138.8
 21
110.24016
  0
LINE
  5
431
100
AcDbEntity
  8
leader
  6
ByLayer
 62
  256
370
   -1
100
AcDbLine
 10
136.390159
 20
105.31516
 11
139.285159
 21
105.31516
  0
DIMENSION
  5
432
100
AcDbEntity
  8
dim
  6
ByLayer
 62
  256
370
   -1
100
AcDbDimension
  2
*D1
 10
126.890159
 20
114
 30
0
 11
124.790159
 21
114.9375
 31
0
 70
   32
 71
    5
  3
Standard
 53
0
210
0
220
0
230
1
100
AcDbAlignedDimension
 13
122.690159
 23
111.84016
 33
0
 14
126.890159
 24
111.84016
 34
0
100
AcDbRotatedDimension
  0
DIMENSION
  5
433
100
AcDbEntity
  8
dim
  6
ByLayer
 62
  256
370
   -1
100
AcDbDimension
  2
*D2
 10
128.290159
 20
101
 30
0
 11
124.790159
 21
101.9375
 31
0
 70
   32
 71
    5
  3
Standard
 53
0
210
0
220
0
230
1
100
AcDbAlignedDimension
 13
121.290159
 23
103.19016
 33
0
 14
128.290159
 24
103.19016
 34
0
100
AcDbRotatedDimension
  0
LINE
  5
434
100
AcDbEntity
  8
dim
  6
ByLayer
 62
  256
370
   -1
100
AcDbLine
 10
124.790159
 20
111.84016
 11
124.790159
 21
113.7177177359587
  0
LINE
  5
435
100
AcDbEntity
  8
dim
  6
ByLayer
 62
  256
370
   -1
100
AcDbLine
 10
124.790159
 20
115.5326634100131
 11
124.790159
 21
117
  0
LINE
  5
436
100
AcDbEntity
  8
dim
  6
ByLayer
 62
  256
370
   -1
100
AcDbLine
 10
124.790159
 20
103.19016
 11
124.790159
 21
102.6319121784871
  0
LINE
  5
437
100
AcDbEntity
  8
dim
  6
ByLayer
 62
  256
370
   -1
100
AcDbLine
 10
124.790159
 20
100.7058021391289
 11
124.790159
 21
99
  0
DIMENSION
  5
438
100
AcDbEntity
  8
dim
  6
ByLayer
 62
  256
370
   -1
100
AcDbDimension
  2
*D3
 10
124.790159
 20
117
 30
0
 11
122.290159
 21
117.9375
 31
0
 70
   32
 71
    5
  3
Standard
 53
0
210
0
220
0
230
1
100
AcDbAlignedDimension
 13
119.790159
 23
113.04016
 33
0
 14
124.790159
 24
115.5326634100131
 34
0
100
AcDbRotatedDimension
  0
DIMENSION
  5
439
100
AcDbEntity
  8
dim
  6
ByLayer
 62
  256
370
   -1
100
AcDbDimension
  2
*D4
 10
124.790159
 20
98
 30
0
 11
122.290159
 21
98.9375
 31
0
 70
   32
 71
    5
  3
Standard
 53
0
210
0
220
0
230
1
100
AcDbAlignedDimension
 13
119.790159
 23
103.04016
 33
0
 14
124.790159
 24
100.7058021391289
 34
0
100
AcDbRotatedDimension
  0
DIMENSION
  5
43A
100
AcDbEntity
  8
dim
  6
ByLayer
 62
  256
370
   -1
100
AcDbDimension
  2
*D5
 10
119
 20
108.64016
 30
0
 11
118.0625
 21
110.24016
 31
0
 70
   32
 71
    5
  3
Standard
 53
0
210
0
220
0
230
1
100
AcDbAlignedDimension
 13
122.690159
 23
111.84016
 33
0
 14
122.690159
 24
108.64016
 34
0
 50
90
100
AcDbRotatedDimension
  0
DIMENSION
  5
43B
100
AcDbEntity
  8
dim
  6
ByLayer
 62
  256
370
   -1
100
AcDbDimension
  2
*D6
 10
119
 20
103.19016
 30
0
 11
118.0625
 21
105.31516
 31
0
 70
   32
 71
    5
  3
Standard
 53
0
210
0
220
0
230
1
100
AcDbAlignedDimension
 13
121.290159
 23
107.44016
 33
0
 14
121.290159
 24
103.19016
 34
0
 50
90
100
AcDbRotatedDimension
  0
DIMENSION
  5
43C
100
AcDbEntity
  8
dim
  6
ByLayer
 62
  256
370
   -1
100
AcDbDimension
  2
*D7
 10
141
 20
110.24016
 30
0
 11
140.0625
 21
111.64016
 31
0
 70
   32
 71
    5
  3
Standard
 53
0
210
0
220
0
230
1
100
AcDbAlignedDimension
 13
136.390159
 23
113.04016
 33
0
 14
138.8
 24
110.24016
 34
0
 50
90
100
AcDbRotatedDimension
  0
DIMENSION
  5
43D
100
AcDbEntity
  8
dim
  6
ByLayer
 62
  256
370
   -1
100
AcDbDimension
  2
*D8
 10
141
 20
105.31516
 30
0
 11
140.0625
 21
104.17766
 31
0
 70
   32
 71
    5
  3
Standard
 53
0
210
0
220
0
230
1
100
AcDbAlignedDimension
 13
136.390159
 23
103.04016
 33
0
 14
139.285159
 24
105.31516
 34
0
 50
90
100
AcDbRotatedDimension
  0
DIMENSION
  5
43E
100
AcDbEntity
  8
dim
  6
ByLayer
 62
  256
370
   -1
100
AcDbDimension
  2
*D9
 10
138.890159
 20
114
 30
0
 11
137.640159
 21
114.9375
 31
0
 70
   32
 71
    5
  3
Standard
 53
0
210
0
220
0
230
1
100
AcDbAlignedDimension
 13
136.390159
 23
113.04016
 33
0
 14
138.890159
 24
111.34016
 34
0
100
AcDbRotatedDimension
  0
DIMENSION
  5
43F
100
AcDbEntity
  8
dim
  6
ByLayer
 62
  256
370
   -1
100
AcDbDimension
  2
*D10
 10
139.285159
 20
101
 30
0
 11
137.837659
 21
101.9375
 31
0
 70
   32
 71
    5
  3
Standard
 53
0
210
0
220
0
230
1
100
AcDbAlignedDimension
 13
136.390159
 23
103.04016
 33
0
 14
139.285159
 24
103.19016
 34
0
100
AcDbRotatedDimension
  0
DIMENSION
  5
440
100
AcDbEntity
  8
dim
  6
ByLayer
 62
  256
370
   -1
100
AcDbDimension
  2
*D11
 10
136.390159
 20
116
 30
0
 11
136.090159
 21
116.9375
 31
0
 70
   32
 71
    5
  3
Standard
 53
0
210
0
220
0
230
1
100
AcDbAlignedDimension
 13
135.790159
 23
113.04016
 33
0
 14
136.390159
 24
113.04016
 34
0
100
AcDbRotatedDimension
  0
DIMENSION
  5
441
100
AcDbEntity
  8
dim
  6
ByLayer
 62
  256
370
   -1
100
AcDbDimension
  2
*D12
 10
139.285159
 20
98
 30
0
 11
137.537659
 21
98.9375
 31
0
 70
   32
 71
    5
  3
Standard
 53
0
210
0
220
0
230
1
100
AcDbAlignedDimension
 13
135.790159
 23
103.04016
 33
0
 14
139.285159
 24
103.19016
 34
0
100
AcDbRotatedDimension
  0
DIMENSION
  5
442
100
AcDbEntity
  8
dim
  6
ByLayer
 62
  256
370
   -1
100
AcDbDimension
  2
*D13
 10
155.038159
 20
114
 30
0
 11
151.538159
 21
114.9375
 31
0
 70
   32
 71
    5
  3
Standard
 53
0
210
0
220
0
230
1
100
AcDbAlignedDimension
 13
148.038159
 23
111.54016
 33
0
 14
155.038159
 24
111.54016
 34
0
100
AcDbRotatedDimension
  0
DIMENSION
  5
443
100
AcDbEntity
  8
dim
  6
ByLayer
 62
  256
370
   -1
100
AcDbDimension
  2
*D14
 10
148.038159
 20
111.54016
 30
0
 11
147.100659
 21
112.29016
 31
0
 70
   32
  1
2x 1.5
 71
    5
  3
Standard
 53
0
210
0
220
0
230
1
100
AcDbAlignedDimension
 13
146.538159
 23
113.04016
 33
0
 14
148.038159
 24
111.54016
 34
0
 50
90
100
AcDbRotatedDimension
  0
DIMENSION
  5
444
100
AcDbEntity
  8
dim
  6
ByLayer
 62
  256
370
   -1
100
AcDbDimension
  2
*D15
 10
148.038159
 20
111.54016
 30
0
 11
147.288159
 21
112.47766
 31
0
 70
   32
  1
2x 1.5
 71
    5
  3
Standard
 53
0
210
0
220
0
230
1
100
AcDbAlignedDimension
 13
146.538159
 23
113.04016
 33
0
 14
148.038159
 24
111.54016
 34
0
100
AcDbRotatedDimension
  0
DIMENSION
  5
445
100
AcDbEntity
  8
dim
  6
ByLayer
 62
  256
370
   -1
100
AcDbDimension
  2
*D16
 10
155.038159
 20
111.54016
 30
0
 11
151.2251649579245
 21
109.8338917388056
 31
0
 70
   36
  1
2x R0.8
 71
    5
  3
Standard
 53
0
210
0
220
0
230
1
100
AcDbRadialDimension
 15
154.4389914152354
 25
111.0873916206189
 35
0
 40
0
  0
DIMENSION
  5
446
100
AcDbEntity
  8
dim
  6
ByLayer
 62
  256
370
   -1
100
AcDbDimension
  2
*D17
 10
159
 20
103.04016
 30
0
 11
158.0625
 21
108.04016
 31
0
 70
   32
 71
    5
  3
Standard
 53
0
210
0
220
0
230
1
100
AcDbAlignedDimension
 13
156.538159
 23
113.04016
 33
0
 14
156.538159
 24
103.04016
 34
0
 50
90
100
AcDbRotatedDimension
  0
DIMENSION
  5
447
100
AcDbEntity
  8
dim
  6
ByLayer
 62
  256
370
   -1
100
AcDbDimension
  2
*D18
 10
156.538159
 20
101
 30
0
 11
151.538159
 21
101.9375
 31
0
 70
   32
 71
    5
  3
Standard
 53
0
210
0
220
0
230
1
100
AcDbAlignedDimension
 13
146.538159
 23
103.04016
 33
0
 14
156.538159
 24
103.04016
 34
0
100
AcDbRotatedDimension
  0
MTEXT
  5
448
100
AcDbEntity
  8
0
  6
ByLayer
 62
  256
370
   -1
100
AcDbMText
 10
230.622678000926
 20
55.14118519194523
 30
0
 40
3.5
 41
73.30555555555556
 71
    5
 72
    1
  1
WIRELING MOMENTARY BUTTON
  7
standard
210
0
220
0
230
1
 50
0
 73
    2
 44
1
  0
MTEXT
  5
449
100
AcDbEntity
  8
0
  6
ByLayer
 62
  256
370
   -1
100
AcDbMText
 10
231.6634056522993
 20
46.17498974250736
 30
0
 40
4
 41
20.44444359643609
 71
    5
 72
    1
  1
AST1015
  7
standard
210
0
220
0
230
1
 50
0
 73
    2
 44
1
  0
MTEXT
  5
44A
100
AcDbEntity
  8
0
  6
ByLayer
 62
  256
370
   -1
100
AcDbMText
 10
195.113259
 20
27.58106258447588
 30
0
 40
2
 41
40.05555658413045
 71
    4
 72
    1
  1
PROJECT: Wirelings\P\PDATE: 7/28/2020\P\PAUTHOR NAME: Jason Marcum
  7
standard
210
0
220
0
230
1
 50
0
 73
    2
 44
1
  0
ENDSEC
  0
SECTION
  2
OBJECTS
  0
DICTIONARY
  5
C
330
0
100
AcDbDictionary
281
    1
  3
ACAD_GROUP
350
D
  0
DICTIONARY
  5
D
330
C
100
AcDbDictionary
281
    1
  0
PLOTSETTINGS
  5
44B
  6
1x1
 40
0
 41
0
 42
0
 43
0
  0
ENDSEC
  0
EOF
